<?xml version="1.0" standalone="no"?>
<!DOCTYPE svg PUBLIC "-//W3C//DTD SVG 1.1//EN" "http://www.w3.org/Graphics/SVG/1.1/DTD/svg11.dtd" >
<svg xmlns="http://www.w3.org/2000/svg" xmlns:xlink="http://www.w3.org/1999/xlink" version="1.1">
<metadata>
Created by FontForge 20170731 at Wed Feb 12 03:27:05 2020
 By Aleksey,,,
Copyright (c) 2020 by Connary Fagen. All rights reserved.
</metadata>
<defs>
<font id="TurismoCF-Bold" horiz-adv-x="810" >
  <font-face 
    font-family="Turismo CF Bold"
    font-weight="700"
    font-stretch="normal"
    units-per-em="1000"
    panose-1="0 0 8 0 0 0 0 0 0 0"
    ascent="800"
    descent="-200"
    x-height="508"
    cap-height="700"
    bbox="-263 -357 1896 921"
    underline-thickness="50"
    underline-position="-150"
    unicode-range="U+0020-25CA"
  />
<missing-glyph horiz-adv-x="495" 
d="M406 -190h-314v990h314v-990zM166 734v-33h65v-37h-66v-32h165v32h-66v37h66v33h-164zM165 606v-103h165v34h-66v69h-99zM231 537h-33v35h33v-35zM165 476v-32h66v-37h-66v-33h99v70h66v32h-165zM297 417v-65h-132v-34h165v99h-33zM231 296v-55h33v22h33v-46h-99v79h-33
v-112h165v112h-99zM165 125v-112h165v112h-165zM297 46h-99v46h99v-46zM165 -10v-32h70l-70 -47v-33h165v33h-101l69 47h32v32h-165z" />
    <glyph glyph-name=".notdef" horiz-adv-x="495" 
d="M406 -190h-314v990h314v-990zM166 734v-33h65v-37h-66v-32h165v32h-66v37h66v33h-164zM165 606v-103h165v34h-66v69h-99zM231 537h-33v35h33v-35zM165 476v-32h66v-37h-66v-33h99v70h66v32h-165zM297 417v-65h-132v-34h165v99h-33zM231 296v-55h33v22h33v-46h-99v79h-33
v-112h165v112h-99zM165 125v-112h165v112h-165zM297 46h-99v46h99v-46zM165 -10v-32h70l-70 -47v-33h165v33h-101l69 47h32v32h-165z" />
    <glyph glyph-name=".null" horiz-adv-x="0" 
 />
    <glyph glyph-name="nonmarkingreturn" horiz-adv-x="333" 
 />
    <glyph glyph-name="space" unicode=" " horiz-adv-x="300" 
 />
    <glyph glyph-name="exclam" unicode="!" horiz-adv-x="278" 
d="M59.5 237.5q-9.5 9.5 -9.5 25.5v402q0 17 9.5 26t25.5 9h83q17 0 26 -9t9 -26v-402q0 -16 -9 -25.5t-26 -9.5h-83q-16 0 -25.5 9.5zM70.5 2.5q-20.5 12.5 -20.5 39.5v32q0 27 20.5 39t69.5 12q48 0 68 -12t20 -39v-32q0 -27 -20.5 -39.5t-67.5 -12.5q-49 0 -69.5 12.5z
" />
    <glyph glyph-name="quotedbl" unicode="&#x22;" horiz-adv-x="466" 
d="M305 449q-13 0 -21.5 9t-8.5 24v193q0 25 25 25h91q25 0 25 -25v-151q0 -15 -7.5 -25t-22.5 -17l-62 -29q-9 -4 -19 -4zM80 449q-13 0 -21.5 9t-8.5 24v193q0 25 25 25h91q25 0 25 -25v-151q0 -15 -7.5 -25t-22.5 -17l-62 -29q-9 -4 -19 -4z" />
    <glyph glyph-name="numbersign" unicode="#" horiz-adv-x="1038" 
d="M823 421l-23 -142h153q17 0 26 -9t9 -26v-76q0 -16 -9 -25.5t-26 -9.5h-176l-15 -98q-2 -16 -13 -25.5t-28 -9.5h-83q-16 0 -23.5 9t-5.5 26l15 98h-278l-16 -98q-2 -17 -13 -26t-28 -9h-83q-16 0 -23.5 9.5t-5.5 25.5l16 98h-108q-16 0 -25.5 9.5t-9.5 25.5v76
q0 17 9.5 26t25.5 9h131l22 142h-153q-16 0 -25.5 9.5t-9.5 25.5v76q0 17 9.5 26t25.5 9h176l16 98q2 16 12.5 25.5t27.5 9.5h83q16 0 24 -9t6 -26l-16 -98h279l15 98q2 17 13 26t28 9h83q16 0 23.5 -9.5t5.5 -25.5l-15 -98h107q17 0 26 -9t9 -26v-76q0 -16 -9 -25.5
t-26 -9.5h-130zM647 279l23 142h-279l-22 -142h278z" />
    <glyph glyph-name="dollar" unicode="$" horiz-adv-x="1076" 
d="M608 -11v-64q0 -25 -25 -25h-97q-25 0 -25 25v64q-153 5 -249.5 28t-139.5 50q-17 11 -17 30q0 13 7 24l28 48q10 16 29 16q10 0 22 -5q33 -13 121 -27.5t199 -19.5v158q-138 15 -223.5 36.5t-133.5 63.5t-48 112q0 105 102.5 155t302.5 54v63q0 25 25 25h97q25 0 25 -25
v-65q132 -7 220.5 -31t132.5 -49q17 -10 17 -26q0 -12 -9 -27l-30 -55q-8 -14 -24 -14q-11 0 -25 6q-117 44 -282 54v-154q130 -13 215 -31.5t141.5 -61t56.5 -117.5q0 -202 -413 -215zM272 459q58 -16 189 -30v142q-247 -4 -247 -66q0 -30 58 -46zM800 154.5
q60 19.5 60 48.5q0 30 -59 45t-193 29v-145q132 3 192 22.5z" />
    <glyph glyph-name="percent" unicode="%" horiz-adv-x="1207" 
d="M998 701l91 -2q21 0 21 -12q0 -7 -11 -17l-856 -660q-12 -10 -31 -10h-91q-10 0 -16 4t-6 10q0 8 11 17l857 660q17 10 31 10zM462.5 662.5q56.5 -37.5 56.5 -121.5t-56.5 -121.5t-166.5 -37.5h-23q-110 0 -166.5 37.5t-56.5 121.5t56.5 121.5t166.5 37.5h23
q110 0 166.5 -37.5zM376 482q27 8 36 22.5t9 36.5t-9 36.5t-36 22.5t-80 8h-23q-52 0 -79.5 -8t-36.5 -22.5t-9 -36.5t9 -36.5t36.5 -22.5t79.5 -8h23q53 0 80 8zM1100.5 280.5q56.5 -37.5 56.5 -121.5t-56.5 -121.5t-166.5 -37.5h-23q-110 0 -166.5 37.5t-56.5 121.5
t56.5 121.5t166.5 37.5h23q110 0 166.5 -37.5zM1014 100q27 8 36 22.5t9 36.5t-9 36.5t-36 22.5t-80 8h-23q-52 0 -79.5 -8t-36.5 -22.5t-9 -36.5t9 -36.5t36.5 -22.5t79.5 -8h23q53 0 80 8z" />
    <glyph glyph-name="ampersand" unicode="&#x26;" horiz-adv-x="1322" 
d="M1263 425q9 -9 9 -26v-53q0 -16 -9 -25.5t-26 -9.5h-129v-286q0 -25 -25 -25h-92q-25 0 -25 25v132q-54 -83 -174.5 -126t-301.5 -43q-192 0 -303.5 53.5t-111.5 161.5q0 136 198 179q-67 25 -102 60t-34 87q-1 93 115 138t368 45q129 0 222.5 -10.5t142.5 -27.5
q25 -7 25 -31q0 -12 -4 -23l-10 -31q-13 -44 -51 -37q-57 9 -155.5 15.5t-194.5 6.5q-296 0 -298 -68q0 -37 85.5 -54.5t209.5 -17.5h645q17 0 26 -9zM859 172q107 49 107 139h-374q-106 -1 -177 -6.5t-125 -26.5t-54 -63q0 -47 73 -69.5t218 -22.5q225 0 332 49z" />
    <glyph glyph-name="quotesingle" unicode="'" horiz-adv-x="253" 
d="M80 449q-13 0 -21.5 9t-8.5 24v193q0 25 25 25h91q25 0 25 -25v-151q0 -15 -7.5 -25t-22.5 -17l-62 -29q-9 -4 -19 -4z" />
    <glyph glyph-name="parenleft" unicode="(" horiz-adv-x="450" 
d="M212 170q9 -63 34 -91t74 -28h55q17 0 26 -9t9 -26v-76q0 -17 -9 -26t-26 -9h-38q-103 0 -165.5 42.5t-92 140.5t-29.5 265t29.5 264.5t92 140t165.5 42.5h38q17 0 26 -9t9 -26v-76q0 -16 -9 -25.5t-26 -9.5h-55q-49 0 -74 -27.5t-34 -90.5t-9 -183t9 -183z" />
    <glyph glyph-name="parenright" unicode=")" horiz-adv-x="450" 
d="M248 536q-9 63 -34 90.5t-74 27.5h-55q-16 0 -25.5 9.5t-9.5 25.5v76q0 17 9.5 26t25.5 9h38q103 0 165.5 -42.5t92 -140t29.5 -264.5t-29.5 -265t-92 -140.5t-165.5 -42.5h-38q-16 0 -25.5 9t-9.5 26v76q0 17 9.5 26t25.5 9h55q49 0 74 28t34 91t9 183t-9 183z" />
    <glyph glyph-name="asterisk" unicode="*" horiz-adv-x="491" 
d="M441 534v-37q0 -25 -25 -25h-88l50 -72q6 -9 6 -16q0 -9 -12 -18l-30 -20q-9 -6 -16 -6q-11 0 -18 12l-62 89l-63 -89q-7 -12 -18 -12q-7 0 -16 6l-30 20q-12 9 -12 18q0 7 6 16l50 72h-88q-25 0 -25 25v37q0 25 25 25h88l-50 71q-6 9 -6 16q0 9 12 18l30 20q9 6 16 6
q10 0 18 -11l63 -89l62 89q10 13 19 13q8 0 15 -6l30 -22q12 -9 12 -18q0 -7 -6 -16l-50 -71h88q25 0 25 -25z" />
    <glyph glyph-name="plus" unicode="+" horiz-adv-x="696" 
d="M635 362q10 -9 10 -26v-76q0 -17 -10 -26t-28 -9h-186v-187q0 -17 -9.5 -27t-25.5 -10h-76q-16 0 -25.5 10t-9.5 27v187h-187q-18 0 -28 9t-10 26v76q0 17 10 26t28 9h187v187q0 18 9 28t26 10h76q17 0 26 -10t9 -28v-187h186q18 0 28 -9z" />
    <glyph glyph-name="comma" unicode="," horiz-adv-x="285" 
d="M133 -119q-11 0 -11 11v70q0 22 -19 29l-14 5q-19 7 -19 29v70q0 25 25 25h95q25 0 25 -25v-142q0 -12 -12.5 -23.5t-37.5 -28.5q-7 -6 -21 -16q-5 -4 -11 -4z" />
    <glyph glyph-name="hyphen" unicode="-" horiz-adv-x="650" 
d="M59.5 349q9.5 9 25.5 9h480q17 0 26 -9t9 -26v-76q0 -16 -9 -25.5t-26 -9.5h-480q-16 0 -25.5 9.5t-9.5 25.5v76q0 17 9.5 26z" />
    <glyph glyph-name="period" unicode="." horiz-adv-x="318" 
d="M90.5 2.5q-20.5 12.5 -20.5 39.5v32q0 27 20.5 39t69.5 12q48 0 68 -12t20 -39v-32q0 -27 -20.5 -39.5t-67.5 -12.5q-49 0 -69.5 12.5z" />
    <glyph glyph-name="slash" unicode="/" horiz-adv-x="847" 
d="M769 739.5q8 -5.5 8 -15.5q0 -8 -8 -21l-539 -779q-16 -22 -42 -22h-87q-15 0 -23 5.5t-8 15.5q0 8 8 21l540 779q16 22 42 22h86q15 0 23 -5.5z" />
    <glyph glyph-name="zero" unicode="0" horiz-adv-x="1165" 
d="M172 77q-127 85 -127 275t127 275t372 85h76q245 0 372.5 -85t127.5 -275t-127.5 -275t-372.5 -85h-76q-245 0 -372 85zM884.5 181q81.5 56 81.5 171t-81.5 171t-264.5 56h-76q-182 0 -263.5 -56t-81.5 -171t81.5 -171t263.5 -56h76q183 0 264.5 56z" />
    <glyph glyph-name="one" unicode="1" horiz-adv-x="634" 
d="M570 115q9 -9 9 -26v-54q0 -16 -9 -25.5t-26 -9.5h-454q-16 0 -25.5 9.5t-9.5 25.5v54q0 17 9.5 26t25.5 9h171v377h-150q-19 0 -28 6.5t-9 25.5v46q0 37 40 37q48 0 74 13t52 37q18 17 32.5 25.5t35.5 8.5h57q36 0 36 -38v-538h143q17 0 26 -9z" />
    <glyph glyph-name="two" unicode="2" horiz-adv-x="1041" 
d="M976 114q10 -10 10 -26v-53q0 -16 -10 -25.5t-27 -9.5h-857q-16 0 -25.5 9.5t-9.5 25.5v76q0 21 8.5 33.5t29.5 19.5l502 168q134 47 181 80t47 66q0 49 -82.5 73.5t-212.5 24.5q-201 0 -394 -60q-11 -4 -22 -4q-19 0 -25 14l-27 51q-8 14 -8 24q0 12 16 24
q27 17 89 36.5t155.5 33t206.5 13.5q209 0 333.5 -54.5t124.5 -171.5q0 -66 -40 -112t-104.5 -77t-163.5 -64l-326 -105h604q17 0 27 -10z" />
    <glyph glyph-name="three" unicode="3" horiz-adv-x="1050" 
d="M539 -8q-122 0 -219 13.5t-158.5 32.5t-89.5 37q-16 12 -16 24q0 10 8 24l26 51q7 14 25 14q11 0 22 -4q7 -2 61 -19.5t144 -29.5t190 -12q158 0 232 23t73 58q0 28 -50.5 49t-136.5 32t-193 11q-17 0 -26.5 9t-9.5 26v62q0 29 25 41l287 142h-601q-16 0 -25.5 9.5
t-9.5 25.5v54q0 17 9.5 26t25.5 9h764q17 0 26 -9t9 -26v-83q0 -30 -24 -42l-271 -135q162 -9 260 -59.5t99 -146.5q1 -207 -456 -207z" />
    <glyph glyph-name="four" unicode="4" horiz-adv-x="1068" 
d="M1009 250q9 -9 9 -26v-54q0 -16 -9 -25.5t-26 -9.5h-114v-100q0 -16 -9 -25.5t-26 -9.5h-70q-16 0 -25.5 9.5t-9.5 25.5v100h-633q-46 0 -46 47v63q0 23 9 36.5t31 25.5l619 376q15 9 26 13t29 4h70q17 0 26 -9t9 -26v-406h114q17 0 26 -9zM248 259h481v279z" />
    <glyph glyph-name="five" unicode="5" horiz-adv-x="1054" 
d="M872 385q127 -49 127 -171q0 -112 -122.5 -167t-341.5 -55q-115 0 -211 13.5t-160.5 33t-91.5 36.5q-16 12 -16 24q0 10 8 24l26 51q7 14 25 14q11 0 22 -4l20 -6q71 -24 154.5 -40t213.5 -16q162 0 240 27t78 68q0 44 -85 68t-232 24q-91 0 -163 -9t-142 -29l-110 55
q-12 8 -15.5 12.5t-3.5 18.5v308q0 17 9.5 26t25.5 9h779q17 0 26 -9t9 -26v-54q0 -16 -9 -25.5t-26 -9.5h-674v-174q52 15 139 23.5t180 8.5q194 0 321 -49z" />
    <glyph glyph-name="six" unicode="6" horiz-adv-x="1092" 
d="M927.5 378q114.5 -51 114.5 -158q0 -112 -128 -170t-352 -58q-253 0 -382.5 81t-129.5 257q0 189 145 283.5t396 94.5q149 0 239 -23t139 -54q19 -11 19 -27q0 -13 -13 -23l-47 -43q-13 -13 -32 -13q-12 0 -25 4q-5 2 -43 14t-101.5 20.5t-135.5 8.5q-158 0 -262 -52
t-116 -163q58 34 165 53t236 19q199 0 313.5 -51zM738.5 140q72.5 13 109 35.5t36.5 50.5q0 37 -67.5 60.5t-215.5 23.5q-123 0 -222 -16t-154 -42q26 -67 107.5 -96t230.5 -29q103 0 175.5 13z" />
    <glyph glyph-name="seven" unicode="7" horiz-adv-x="986" 
d="M937 691q9 -9 9 -26v-83q0 -15 -6.5 -26.5t-17.5 -15.5q-149 -44 -281.5 -116.5t-218 -172.5t-85.5 -219q0 -16 -9 -24t-23 -8h-87q-35 0 -35 32q0 126 76.5 239t204 193t275.5 112h-664q-16 0 -25.5 9.5t-9.5 25.5v54q0 17 9.5 26t25.5 9h836q17 0 26 -9z" />
    <glyph glyph-name="eight" unicode="8" horiz-adv-x="1066" 
d="M167 43q-122 51 -122 159q0 65 43.5 107t141.5 65q-73 23 -104 60t-31 87q0 97 111.5 140.5t326.5 43.5q216 0 328 -43.5t112 -140.5q0 -50 -31 -87t-104 -60q97 -23 140 -65.5t43 -106.5q0 -108 -121.5 -159t-366.5 -51q-244 0 -366 51zM828 501q0 39 -68.5 62.5
t-226.5 23.5q-157 0 -225 -23.5t-68 -62.5q0 -82 293 -82q295 0 295 82zM782.5 148q78.5 23 78.5 69q0 44 -75.5 68.5t-252.5 24.5q-176 0 -252 -24.5t-76 -68.5q0 -46 78.5 -69t249.5 -23t249.5 23z" />
    <glyph glyph-name="nine" unicode="9" horiz-adv-x="1092" 
d="M912.5 626q129.5 -81 129.5 -257q0 -189 -145 -283.5t-396 -94.5q-149 0 -239 23t-139 54q-19 11 -19 27q0 13 13 23l47 43q13 13 32 13q12 0 25 -4q5 -2 43 -14t101.5 -20.5t135.5 -8.5q158 0 262 52t116 163q-58 -34 -165 -53t-236 -19q-199 0 -313.5 51t-114.5 158
q0 112 128 170t352 58q253 0 382.5 -81zM275.5 412.5q67.5 -23.5 215.5 -23.5q123 0 222 16t154 42q-26 67 -107.5 96t-230.5 29q-103 0 -175.5 -13t-109 -35.5t-36.5 -50.5q0 -37 67.5 -60.5z" />
    <glyph glyph-name="colon" unicode=":" horiz-adv-x="278" 
d="M70.5 2.5q-20.5 12.5 -20.5 39.5v32q0 27 20.5 39t69.5 12q48 0 68 -12t20 -39v-32q0 -27 -20.5 -39.5t-67.5 -12.5q-49 0 -69.5 12.5zM70.5 342.5q-20.5 12.5 -20.5 39.5v32q0 27 20.5 39t69.5 12q48 0 68 -12t20 -39v-32q0 -27 -20.5 -39.5t-67.5 -12.5
q-49 0 -69.5 12.5z" />
    <glyph glyph-name="semicolon" unicode=";" horiz-adv-x="278" 
d="M113 -119q-11 0 -11 11v70q0 22 -19 29l-14 5q-19 7 -19 29v70q0 25 25 25h95q25 0 25 -25v-142q0 -12 -12.5 -23.5t-37.5 -28.5q-7 -6 -21 -16q-5 -4 -11 -4zM70.5 342.5q-20.5 12.5 -20.5 39.5v32q0 27 20.5 39t69.5 12q48 0 68 -12t20 -39v-32q0 -27 -20.5 -39.5
t-67.5 -12.5q-49 0 -69.5 12.5z" />
    <glyph glyph-name="less" unicode="&#x3c;" horiz-adv-x="697" 
d="M621 510q12 0 19 -8t7 -23v-73q0 -15 -8 -25.5t-21 -13.5l-407 -113l407 -113q13 -3 21 -13.5t8 -25.5v-73q0 -15 -7 -23t-19 -8q-9 0 -14 2l-527 166q-30 9 -30 40v96q0 31 30 40l527 166q5 2 14 2z" />
    <glyph glyph-name="equal" unicode="=" horiz-adv-x="696" 
d="M60 449q10 9 28 9h519q18 0 28 -9t10 -26v-76q0 -17 -10 -26t-28 -9h-519q-18 0 -28 9t-10 26v76q0 17 10 26zM60 239q10 9 28 9h519q18 0 28 -9t10 -26v-76q0 -17 -10 -26t-28 -9h-519q-18 0 -28 9t-10 26v76q0 17 10 26z" />
    <glyph glyph-name="greater" unicode="&#x3e;" horiz-adv-x="497" 
d="M447 302v-96q0 -31 -30 -40l-527 -166q-5 -2 -14 -2q-12 0 -19 8t-7 23v73q0 15 8 25.5t21 13.5l407 113l-407 113q-13 3 -21 13.5t-8 25.5v73q0 15 7 23t19 8q9 0 14 -2l527 -166q30 -9 30 -40z" />
    <glyph glyph-name="question" unicode="?" horiz-adv-x="1010" 
d="M844.5 663q125.5 -45 125.5 -144q0 -59 -36.5 -95t-88 -54t-130.5 -36q-80 -18 -117 -34t-37 -47q0 -13 -8 -19t-27 -6h-81q-19 0 -27 6t-8 19q0 66 38 105t89.5 56.5t132.5 34.5q70 14 102.5 27.5t32.5 39.5q0 28 -88.5 43t-204.5 15q-117 0 -208 -16t-149 -35
q-18 -4 -23 -4q-14 0 -29 12l-52 48q-12 12 -12 23q0 17 18 27q27 17 90 35.5t157.5 31t207.5 12.5q207 0 332.5 -45zM430.5 2.5q-20.5 12.5 -20.5 39.5v32q0 27 20.5 39t68.5 12t68 -12t20 -39v-32q0 -27 -20 -39.5t-68 -12.5t-68.5 12.5z" />
    <glyph glyph-name="at" unicode="@" horiz-adv-x="1180" 
d="M995 630q135 -82 135 -258q0 -115 -61.5 -160t-159.5 -45q-142 0 -182 70q-21 -36 -64.5 -53t-116.5 -17q-139 0 -202 42.5t-63 140.5q0 99 62.5 141t202.5 42q60 0 100 -11t64 -35v31h124v-187q0 -39 19.5 -50t55.5 -11q29 0 48 23.5t19 78.5q0 75 -34 121.5
t-118.5 70.5t-234.5 24q-151 0 -235 -28t-117 -79.5t-33 -130.5q0 -80 33 -131.5t117 -79t235 -27.5q43 0 85 4q24 2 30 2q23 0 23 -23v-74q0 -11 -6 -19t-16 -9q-50 -6 -116 -6q-274 0 -406.5 85.5t-132.5 277.5q0 191 133 276.5t406 85.5q271 0 406 -82zM666.5 286.5
q38.5 16.5 43.5 50.5v27q-5 34 -43.5 50t-120.5 16q-76 0 -105 -19.5t-29 -60.5q0 -40 29.5 -60t104.5 -20q82 0 120.5 16.5z" />
    <glyph glyph-name="A" unicode="A" horiz-adv-x="1186" 
d="M1156 21q0 -9 -8 -15t-22 -6h-109q-27 0 -42 22l-87 123h-590l-87 -123q-15 -22 -42 -22h-109q-14 0 -22 6t-8 15q0 10 8 21l459 638q9 12 19.5 17t24.5 5h104q14 0 24.5 -5t19.5 -17l459 -638q8 -11 8 -21zM386 270h414l-207 292z" />
    <glyph glyph-name="B" unicode="B" horiz-adv-x="1116" 
d="M84.5 9.5q-9.5 9.5 -9.5 25.5v630q0 17 9.5 26t25.5 9h616q103 0 165 -28t87 -69t25 -86q0 -46 -24 -82t-74 -58q84 -21 122.5 -68t38.5 -113q0 -90 -72 -143t-231 -53h-653q-16 0 -25.5 9.5zM820 428.5q33 18.5 33 58.5q0 39 -32.5 55.5t-106.5 16.5h-476q-10 0 -10 -10
v-129q0 -10 10 -10h476q73 0 106 18.5zM874.5 158q38.5 17 38.5 61q0 45 -39.5 62.5t-119.5 17.5h-516q-10 0 -10 -10v-138q0 -10 10 -10h516q82 0 120.5 17z" />
    <glyph glyph-name="C" unicode="C" horiz-adv-x="1109" 
d="M292 24q-121 36 -181.5 115.5t-60.5 210.5t60.5 210.5t181.5 115.5t310 36q175 0 283.5 -24.5t154.5 -54.5q17 -11 17 -24q0 -8 -9 -24l-33 -59q-7 -13 -22 -13q-8 0 -26 6q-61 21 -143.5 35.5t-216.5 14.5q-151 0 -238.5 -24t-124 -71.5t-36.5 -123.5q0 -74 35 -122
t117.5 -72.5t224.5 -24.5q146 0 234.5 14.5t149.5 35.5q13 5 24 5q17 0 24 -12q22 -37 32 -56t10 -27q0 -12 -17 -24q-46 -30 -155 -54.5t-285 -24.5q-189 0 -310 36z" />
    <glyph glyph-name="D" unicode="D" horiz-adv-x="1116" 
d="M84.5 9.5q-9.5 9.5 -9.5 25.5v630q0 17 9.5 26t25.5 9h469q175 0 281.5 -36t156 -112.5t49.5 -201.5q0 -126 -49 -202.5t-155.5 -112t-282.5 -35.5h-469q-16 0 -25.5 9.5zM782 171q75 23 101 65.5t26 113.5t-26 113.5t-101 65.5t-221 23h-323q-10 0 -10 -10v-384
q0 -10 10 -10h323q146 0 221 23z" />
    <glyph glyph-name="E" unicode="E" horiz-adv-x="1041" 
d="M84.5 9.5q-9.5 9.5 -9.5 25.5v630q0 17 9.5 26t25.5 9h846q17 0 26 -9t9 -26v-76q0 -16 -9 -25.5t-26 -9.5h-718q-10 0 -10 -10v-122q0 -10 10 -10h669q17 0 26 -9t9 -25v-65q0 -16 -9 -25t-26 -9h-669q-10 0 -10 -10v-113q0 -10 10 -10h718q17 0 26 -9t9 -26v-76
q0 -16 -9 -25.5t-26 -9.5h-846q-16 0 -25.5 9.5z" />
    <glyph glyph-name="F" unicode="F" horiz-adv-x="1041" 
d="M84.5 9.5q-9.5 9.5 -9.5 25.5v630q0 17 9.5 26t25.5 9h846q17 0 26 -9t9 -26v-76q0 -16 -9 -25.5t-26 -9.5h-718q-10 0 -10 -10v-138q0 -10 10 -10h669q17 0 26 -9t9 -26v-68q0 -16 -9 -25.5t-26 -9.5h-669q-10 0 -10 -10v-213q0 -16 -9 -25.5t-26 -9.5h-83
q-16 0 -25.5 9.5z" />
    <glyph glyph-name="G" unicode="G" horiz-adv-x="1113" 
d="M1050 384q9 -9 9 -26v-267q0 -12 -17 -24q-46 -30 -155 -54.5t-285 -24.5q-189 0 -310 36t-181.5 115.5t-60.5 210.5t60.5 210.5t181.5 115.5t310 36q175 0 283.5 -24.5t154.5 -54.5q17 -11 17 -24q0 -8 -9 -24l-33 -59q-7 -13 -22 -13q-8 0 -26 6q-61 21 -143.5 35.5
t-216.5 14.5q-151 0 -238.5 -24t-124 -71.5t-36.5 -123.5q0 -74 35 -122t117.5 -72.5t224.5 -24.5q200 0 326 33v81q0 10 -10 10h-207q-16 0 -25.5 9.5t-9.5 25.5v68q0 17 9.5 26t25.5 9h330q17 0 26 -9z" />
    <glyph glyph-name="H" unicode="H" horiz-adv-x="1135" 
d="M84.5 9.5q-9.5 9.5 -9.5 25.5v630q0 17 9.5 26t25.5 9h83q17 0 26 -9t9 -26v-249q0 -10 10 -10h659q10 0 10 10v249q0 17 9.5 26t25.5 9h83q17 0 26 -9t9 -26v-630q0 -16 -9 -25.5t-26 -9.5h-83q-16 0 -25.5 9.5t-9.5 25.5v217q0 10 -10 10h-659q-10 0 -10 -10v-217
q0 -16 -9 -25.5t-26 -9.5h-83q-16 0 -25.5 9.5z" />
    <glyph glyph-name="I" unicode="I" horiz-adv-x="303" 
d="M84.5 9.5q-9.5 9.5 -9.5 25.5v630q0 17 9.5 26t25.5 9h83q17 0 26 -9t9 -26v-630q0 -16 -9 -25.5t-26 -9.5h-83q-16 0 -25.5 9.5z" />
    <glyph glyph-name="J" unicode="J" horiz-adv-x="1024" 
d="M199.5 12.5q-97.5 24.5 -149.5 54.5q-20 13 -20 35q0 9 5 19l27 49q11 20 33 20q11 0 23 -5q121 -52 337 -52q125 0 200 20t110.5 66t35.5 126v320q0 17 9.5 26t25.5 9h83q17 0 26 -9t9 -26v-320q0 -135 -56 -213t-163 -111t-273 -33q-165 0 -262.5 24.5z" />
    <glyph glyph-name="K" unicode="K" horiz-adv-x="1068" 
d="M1018 17q0 -8 -8 -12.5t-22 -4.5h-128q-21 0 -43 14l-432 326l-157 -85v-220q0 -16 -9 -25.5t-26 -9.5h-83q-16 0 -25.5 9.5t-9.5 25.5v630q0 17 9.5 26t25.5 9h83q17 0 26 -9t9 -26v-255l521 280q19 10 46 10h168q14 0 22 -5t8 -13q0 -13 -20 -23l-459 -249l488 -369
q16 -12 16 -24z" />
    <glyph glyph-name="L" unicode="L" horiz-adv-x="1000" 
d="M84.5 9.5q-9.5 9.5 -9.5 25.5v630q0 17 9.5 26t25.5 9h83q17 0 26 -9t9 -26v-509q0 -10 10 -10h692q17 0 26 -9t9 -26v-76q0 -16 -9 -25.5t-26 -9.5h-820q-16 0 -25.5 9.5z" />
    <glyph glyph-name="M" unicode="M" horiz-adv-x="1270" 
d="M84.5 9.5q-9.5 9.5 -9.5 25.5v630q0 17 9.5 26t25.5 9h83q22 0 33.5 -3t22.5 -14l379 -393q3 -3 7 -3t7 3l379 393q11 11 22.5 14t33.5 3h83q17 0 26 -9t9 -26v-630q0 -16 -9 -25.5t-26 -9.5h-83q-16 0 -25.5 9.5t-9.5 25.5v451q0 9 -5 9q-3 0 -7 -4l-347 -353
q-10 -10 -21 -12.5t-27 -2.5t-27 2.5t-21 12.5l-347 353q-4 4 -7 4q-5 0 -5 -9v-451q0 -16 -9 -25.5t-26 -9.5h-83q-16 0 -25.5 9.5z" />
    <glyph glyph-name="N" unicode="N" horiz-adv-x="1136" 
d="M84.5 9.5q-9.5 9.5 -9.5 25.5v630q0 17 9.5 26t25.5 9h83q20 0 30.5 -3.5t24.5 -13.5l648 -495q2 -2 6 -2q2 0 4 2t2 6v471q0 17 9.5 26t25.5 9h83q17 0 26 -9t9 -26v-630q0 -16 -9 -25.5t-26 -9.5h-83q-20 0 -31.5 3.5t-23.5 13.5l-648 496q-2 2 -6 2q-2 0 -4 -2t-2 -6
v-472q0 -16 -9 -25.5t-26 -9.5h-83q-16 0 -25.5 9.5z" />
    <glyph glyph-name="O" unicode="O" horiz-adv-x="1188" 
d="M179 74q-129 86 -129 276q0 189 129 275.5t377 86.5h75q248 0 377.5 -86.5t129.5 -275.5q0 -190 -129 -276t-378 -86h-75q-248 0 -377 86zM899 184.5q82 53.5 82 165.5q0 110 -82.5 164.5t-267.5 54.5h-75q-184 0 -266.5 -54.5t-82.5 -164.5q0 -112 82 -165.5t267 -53.5
h75q186 0 268 53.5z" />
    <glyph glyph-name="P" unicode="P" horiz-adv-x="1096" 
d="M84.5 9.5q-9.5 9.5 -9.5 25.5v630q0 17 9.5 26t25.5 9h650q101 0 166.5 -34t95 -88t29.5 -116t-29.5 -116t-95 -88t-166.5 -34h-522q-10 0 -10 -10v-179q0 -16 -9 -25.5t-26 -9.5h-83q-16 0 -25.5 9.5zM862 390q34 20 34 72t-34 72t-110 20h-514q-10 0 -10 -10v-164
q0 -10 10 -10h514q76 0 110 20z" />
    <glyph glyph-name="Q" unicode="Q" horiz-adv-x="1188" 
d="M1075 18q0 -8 -8 -13t-22 -5h-115q-27 0 -43 15l-53 47l-18 -46q-53 -17 -102 -22.5t-139 -5.5h-19q-248 0 -377 86t-129 276q0 189 129 275.5t377 86.5h75q248 0 377.5 -86.5t129.5 -275.5q0 -186 -149 -247l71 -60q15 -13 15 -25zM749 136l-126 111q-14 13 -14 24
q0 8 8 13.5t22 5.5h105q25 0 44 -16l109 -93q84 55 84 169q0 110 -82.5 164.5t-267.5 54.5h-75q-184 0 -266.5 -54.5t-82.5 -164.5q0 -112 82 -165.5t267 -53.5h101q45 0 92 5z" />
    <glyph glyph-name="R" unicode="R" horiz-adv-x="1093" 
d="M1037 18q0 -8 -8 -13t-22 -5h-102q-16 0 -28.5 5t-27.5 17l-237 202h-374q-10 0 -10 -10v-179q0 -16 -9 -25.5t-26 -9.5h-83q-16 0 -25.5 9.5t-9.5 25.5v630q0 17 9.5 26t25.5 9h650q101 0 166.5 -34t95 -88t29.5 -116q0 -57 -25 -107.5t-80 -85.5t-140 -43l216 -183
q15 -13 15 -25zM238 370h514q76 0 110 20t34 72t-34 72t-110 20h-514q-10 0 -10 -10v-164q0 -10 10 -10z" />
    <glyph glyph-name="S" unicode="S" horiz-adv-x="1076" 
d="M237 12.5q-116 24.5 -165 54.5q-17 11 -17 30q0 13 7 24l28 48q10 16 29 16q10 0 22 -5q40 -17 154 -33t251 -16h12q159 0 230.5 20.5t71.5 51.5q0 24 -38.5 38.5t-99.5 22.5t-191 20q-167 16 -265 36.5t-154 63.5t-56 119q0 109 110.5 159t327.5 50h25q169 0 280 -26
t162 -56q17 -10 17 -26q0 -12 -9 -27l-30 -55q-8 -14 -24 -14q-11 0 -25 6q-57 21 -149 39t-221 18h-25q-281 0 -281 -66q0 -24 36.5 -38.5t99.5 -23.5t188 -22l38 -4q144 -14 232.5 -31t150.5 -60t62 -122q0 -216 -469 -216h-12q-187 0 -303 24.5z" />
    <glyph glyph-name="T" unicode="T" horiz-adv-x="1089" 
d="M477.5 9.5q-9.5 9.5 -9.5 25.5v509q0 10 -10 10h-383q-16 0 -25.5 9.5t-9.5 25.5v76q0 17 9.5 26t25.5 9h939q17 0 26 -9t9 -26v-76q0 -16 -9 -25.5t-26 -9.5h-383q-10 0 -10 -10v-509q0 -16 -9 -25.5t-26 -9.5h-83q-16 0 -25.5 9.5z" />
    <glyph glyph-name="U" unicode="U" horiz-adv-x="1136" 
d="M1057 691q9 -9 9 -26v-315q0 -190 -121.5 -276t-360.5 -86h-32q-239 0 -360.5 86t-121.5 276v315q0 17 9.5 26t25.5 9h83q17 0 26 -9t9 -26v-315q0 -75 32.5 -122.5t104.5 -71t192 -23.5h32q122 0 194 23.5t103.5 70.5t31.5 123v315q0 17 9.5 26t25.5 9h83q17 0 26 -9z
" />
    <glyph glyph-name="V" unicode="V" horiz-adv-x="1166" 
d="M1128 696q8 -6 8 -15q0 -10 -8 -21l-459 -638q-9 -12 -19.5 -17t-24.5 -5h-84q-14 0 -24.5 5t-19.5 17l-459 638q-8 11 -8 21q0 9 8 15t22 6h109q27 0 42 -22l372 -528l372 528q15 22 42 22h109q14 0 22 -6z" />
    <glyph glyph-name="W" unicode="W" horiz-adv-x="1642" 
d="M1604 694q8 -6 8 -15q0 -8 -8 -21l-445 -638q-15 -22 -44 -22h-76q-29 0 -44 22l-173 247l-176 -247q-15 -22 -44 -22h-75q-29 0 -44 22l-445 638q-8 13 -8 21q0 9 8 15t22 6h113q27 0 42 -22l351 -509l164 231l-181 258q-8 13 -8 21q0 9 8 15t22 6h113q28 0 42 -22
l351 -508l350 508q15 22 42 22h113q14 0 22 -6z" />
    <glyph glyph-name="X" unicode="X" horiz-adv-x="1103" 
d="M1078 20q0 -8 -8.5 -14t-22.5 -6h-134q-23 0 -44 16l-317 250l-318 -250q-21 -16 -44 -16h-134q-14 0 -22.5 6t-8.5 14q0 11 15 23l398 312l-384 302q-14 11 -14 23q0 9 8.5 14.5t22.5 5.5h132q23 0 44 -16l305 -239l304 239q21 16 44 16h132q15 0 23.5 -5.5t8.5 -14.5
q0 -11 -15 -23l-384 -302l398 -312q15 -12 15 -23z" />
    <glyph glyph-name="Y" unicode="Y" horiz-adv-x="1047" 
d="M1009 694.5q8 -5.5 8 -13.5q0 -11 -14 -24l-404 -363v-259q0 -16 -9 -25.5t-26 -9.5h-83q-16 0 -25.5 9.5t-9.5 25.5v260l-402 362q-14 14 -14 24q0 8 8 13.5t22 5.5h131q28 0 44 -16l282 -255q3 -3 7.5 -2.5t6.5 2.5l281 255q19 16 44 16h131q14 0 22 -5.5z" />
    <glyph glyph-name="Z" unicode="Z" horiz-adv-x="1008" 
d="M59.5 9.5q-9.5 9.5 -9.5 25.5v82q0 14 5.5 24t18.5 19l623 397h-612q-16 0 -25.5 9.5t-9.5 25.5v73q0 17 9.5 26t25.5 9h833q17 0 26 -9t9 -26v-82q0 -14 -5.5 -24t-18.5 -19l-623 -397h617q17 0 26 -9t9 -26v-73q0 -16 -9 -25.5t-26 -9.5h-838q-16 0 -25.5 9.5z" />
    <glyph glyph-name="bracketleft" unicode="[" horiz-adv-x="495" 
d="M228 654v-603h192q17 0 26 -9t9 -26v-76q0 -17 -9 -26t-26 -9h-310q-16 0 -25.5 9t-9.5 26v825q0 17 9.5 26t25.5 9h310q17 0 26 -9t9 -26v-76q0 -16 -9 -25.5t-26 -9.5h-192z" />
    <glyph glyph-name="backslash" unicode="\" horiz-adv-x="847" 
d="M187 745q26 0 42 -22l540 -779q8 -13 8 -21q0 -10 -8 -15.5t-23 -5.5h-87q-26 0 -42 22l-539 779q-8 13 -8 21q0 10 8 15.5t23 5.5h86z" />
    <glyph glyph-name="bracketright" unicode="]" horiz-adv-x="465" 
d="M381 791q9 -9 9 -26v-825q0 -17 -9 -26t-26 -9h-310q-16 0 -25.5 9t-9.5 26v76q0 17 9.5 26t25.5 9h192v603h-192q-16 0 -25.5 9.5t-9.5 25.5v76q0 17 9.5 26t25.5 9h310q17 0 26 -9z" />
    <glyph glyph-name="asciicircum" unicode="^" horiz-adv-x="526" 
d="M342.5 695.5q9.5 -4.5 21.5 -18.5l59 -69q5 -7 5 -14t-5 -12t-16 -5h-65q-12 0 -21 3.5t-20 9.5l-62 45l-62 -45q-11 -6 -20 -9.5t-21 -3.5h-65q-11 0 -16 5t-5 12t5 14l59 69q12 14 21.5 18.5t22.5 4.5h162q13 0 22.5 -4.5z" />
    <glyph glyph-name="underscore" unicode="_" horiz-adv-x="990" 
d="M59.5 -9.5q9.5 9.5 25.5 9.5h820q17 0 26 -9.5t9 -25.5v-76q0 -17 -9 -26t-26 -9h-820q-16 0 -25.5 9t-9.5 26v76q0 16 9.5 25.5z" />
    <glyph glyph-name="grave" unicode="`" horiz-adv-x="263" 
d="M172 687l83 -87q8 -8 8 -17q0 -6 -5.5 -10t-15.5 -4h-110q-18 0 -31 13l-92 87q-9 9 -9 17q0 6 5.5 10t14.5 4h121q19 0 31 -13z" />
    <glyph glyph-name="a" unicode="a" horiz-adv-x="791" 
d="M108.5 32.5q-63.5 39.5 -63.5 121.5q0 83 62 117.5t172 34.5h262q10 0 10 10v5q0 43 -44.5 61t-144.5 18q-63 0 -106 -5.5t-89 -14.5l-36 -7q-14 -2 -24 4.5t-10 22.5v28q0 20 6.5 31t26.5 21q30 14 89 24.5t147 10.5q170 0 246.5 -44.5t76.5 -138.5v-193q0 -18 9.5 -27
t26.5 -9h16q25 0 25 -25v-17q0 -27 -23.5 -44t-62.5 -17h-10q-105 0 -117 91q-21 -55 -81 -76.5t-128 -21.5h-65q-107 0 -170.5 39.5zM460 111q43 4 67 18t24 44v24q0 10 -10 10h-255q-50 0 -77.5 -10t-27.5 -39q0 -30 27.5 -40.5t77.5 -10.5h50q81 0 124 4z" />
    <glyph glyph-name="b" unicode="b" horiz-adv-x="824" 
d="M649 486q74 -30 105 -87t30 -144q-1 -88 -31.5 -145t-104 -87t-201.5 -30q-103 0 -161 19.5t-85 58.5v-46q0 -25 -25 -25h-91q-25 0 -25 25v650q0 25 25 25h91q25 0 25 -25v-235q27 38 85.5 57t160.5 19q128 0 202 -30zM545.5 123.5q48.5 12.5 72 44t23.5 87.5t-23.5 87
t-72 43.5t-129.5 12.5t-129 -12.5t-71 -43.5t-23 -87t23 -87.5t71 -44t129 -12.5t129.5 12.5z" />
    <glyph glyph-name="c" unicode="c" horiz-adv-x="731" 
d="M695 89q0 -7 -7 -14q-96 -82 -295 -82q-353 0 -353 262q0 261 353 261q199 0 295 -82q7 -7 7 -14q0 -10 -11 -21l-31 -35q-12 -13 -28 -13q-9 0 -21 5q-50 23 -94.5 32.5t-103.5 9.5q-116 0 -169.5 -31.5t-53.5 -111.5t53.5 -112t169.5 -32q59 0 103.5 9.5t94.5 32.5
q12 5 21 5q16 0 28 -13l31 -35q11 -11 11 -21z" />
    <glyph glyph-name="d" unicode="d" horiz-adv-x="824" 
d="M764 675v-650q0 -25 -25 -25h-91q-25 0 -25 25v46q-26 -39 -84.5 -58.5t-161.5 -19.5q-128 0 -201.5 30t-104 87t-31.5 145q-1 87 30 144t105 87t202 30q102 0 160.5 -19t85.5 -57v235q0 25 25 25h91q25 0 25 -25zM536.5 123.5q47.5 12.5 71 44t23.5 87.5t-23.5 87
t-71 43.5t-128.5 12.5t-129.5 -12.5t-72 -43.5t-23.5 -87t23.5 -87.5t72 -44t129.5 -12.5t128.5 12.5z" />
    <glyph glyph-name="e" unicode="e" horiz-adv-x="787" 
d="M741.5 236q-5.5 -14 -20 -20t-43.5 -6h-489q16 -57 72 -79t155 -22q66 0 119.5 9t105.5 28q8 2 13 2q19 0 27 -14l14 -28q6 -14 6 -21q0 -17 -14 -25q-93 -67 -281 -67q-187 0 -276.5 67.5t-89.5 194.5t85.5 194t269.5 67t268 -65t84 -174q0 -27 -5.5 -41zM245 375.5
q-49 -22.5 -59 -75.5h427q-12 54 -61 76t-153 22q-105 0 -154 -22.5z" />
    <glyph glyph-name="f" unicode="f" horiz-adv-x="731" 
d="M701 669q0 -7 -3 -16l-17 -43q-7 -18 -24 -18q-10 0 -21 4q-83 24 -193 24q-61 0 -94.5 -10t-48 -33t-14.5 -65v-112h283q25 0 25 -25v-66q0 -25 -25 -25h-283v-259q0 -25 -25 -25h-91q-25 0 -25 25v259h-85q-25 0 -25 25v66q0 25 25 25h85v122q0 109 67.5 163.5
t230.5 54.5q142 0 234 -40q24 -10 24 -31z" />
    <glyph glyph-name="g" unicode="g" horiz-adv-x="804" 
d="M744 483v-459q0 -115 -93 -172t-274 -57q-133 0 -221.5 31.5t-107.5 97.5q-1 3 -1 10q0 13 8.5 22t24.5 9h70q14 0 23 -4.5t19 -13.5q24 -22 68 -32.5t117 -10.5q103 0 164.5 25t61.5 100v86q-24 -40 -78 -60t-155 -20q-177 0 -253 60t-77 181q-1 120 75.5 180t254.5 60
q100 0 155 -18t78 -55v40q0 25 25 25h91q25 0 25 -25zM558 179.5q53 26.5 53 96.5t-52.5 96t-165.5 26q-74 0 -119 -10.5t-68 -37t-23 -74.5q0 -70 50 -96.5t160 -26.5q112 0 165 26.5z" />
    <glyph glyph-name="h" unicode="h" 
d="M689 452.5q66 -62.5 66 -189.5v-238q0 -25 -25 -25h-92q-25 0 -25 25v238q0 75 -47.5 105t-156.5 30q-110 0 -159 -30.5t-49 -104.5v-238q0 -25 -25 -25h-91q-25 0 -25 25v650q0 25 25 25h91q25 0 25 -25v-258q0 -6 4 -7t7 3q25 47 87.5 74.5t168.5 27.5q155 0 221 -62.5
z" />
    <glyph glyph-name="i" unicode="i" horiz-adv-x="261" 
d="M69 599.5q-19 11.5 -19 35.5v29q0 24 18.5 35.5t62.5 11.5q43 0 61.5 -11.5t18.5 -35.5v-29q0 -24 -18.5 -35.5t-61.5 -11.5t-62 11.5zM60 25v458q0 25 25 25h91q25 0 25 -25v-458q0 -25 -25 -25h-91q-25 0 -25 25z" />
    <glyph glyph-name="j" unicode="j" horiz-adv-x="297" 
d="M105 599.5q-19 11.5 -19 35.5v29q0 24 18.5 35.5t62.5 11.5q43 0 61.5 -11.5t18.5 -35.5v-29q0 -24 -18.5 -35.5t-61.5 -11.5t-62 11.5zM-63 -198.5q-7 6.5 -7 18.5v71q0 12 7 18.5t20 6.5q75 0 107 23t32 84v460q0 25 25 25h91q25 0 25 -25v-460q0 -80 -18 -127.5
t-72.5 -74t-160.5 -26.5h-29q-13 0 -20 6.5z" />
    <glyph glyph-name="k" unicode="k" horiz-adv-x="792" 
d="M756 15q0 -15 -29 -15h-97q-14 0 -24.5 3t-18.5 11l-258 239l-128 -71v-157q0 -25 -25 -25h-91q-25 0 -25 25v650q0 25 25 25h91q25 0 25 -25v-363l331 186q19 10 45 10h132q15 0 22.5 -4.5t7.5 -12.5q0 -13 -20 -24l-278 -153l300 -273q15 -15 15 -26z" />
    <glyph glyph-name="l" unicode="l" horiz-adv-x="261" 
d="M60 25v650q0 25 25 25h91q25 0 25 -25v-650q0 -25 -25 -25h-91q-25 0 -25 25z" />
    <glyph glyph-name="m" unicode="m" horiz-adv-x="1227" 
d="M60 25v458q0 25 25 25h91q25 0 25 -25v-49q0 -12 6 -12q4 0 10 7q61 86 218 86q85 0 138.5 -24.5t80.5 -73.5q4 -7 7 -9.5t5 1.5q29 51 90 78.5t164 27.5q96 0 151 -28.5t78 -83t23 -140.5v-238q0 -25 -25 -25h-91q-25 0 -25 25v238q0 51 -16.5 80t-53 42t-100.5 13
q-92 0 -133 -30.5t-41 -104.5v-238q0 -25 -25 -25h-92q-25 0 -25 25v238q0 75 -39 105t-130 30q-92 0 -133.5 -30.5t-41.5 -104.5v-238q0 -25 -25 -25h-91q-25 0 -25 25z" />
    <glyph glyph-name="n" unicode="n" 
d="M689 452.5q66 -62.5 66 -189.5v-238q0 -25 -25 -25h-92q-25 0 -25 25v238q0 75 -47.5 105t-156.5 30q-110 0 -159 -30.5t-49 -104.5v-238q0 -25 -25 -25h-91q-25 0 -25 25v458q0 25 25 25h91q25 0 25 -25v-66q0 -6 4 -7t7 3q25 47 87.5 74.5t168.5 27.5q155 0 221 -62.5z
" />
    <glyph glyph-name="o" unicode="o" horiz-adv-x="801" 
d="M126 60q-86 67 -86 195q0 127 86 194t274 67q189 0 275.5 -67t85.5 -194q-1 -128 -86.5 -195t-274.5 -67q-188 0 -274 67zM567.5 143.5q50.5 32.5 50.5 111.5t-50.5 111t-167.5 32q-116 0 -166.5 -32t-50.5 -111t50.5 -111.5t166.5 -32.5q117 0 167.5 32.5z" />
    <glyph glyph-name="p" unicode="p" horiz-adv-x="824" 
d="M754 110q-31 -57 -105 -87t-202 -30q-102 0 -160.5 19t-85.5 57v-235q0 -25 -25 -25h-91q-25 0 -25 25v650q0 25 25 25h91q25 0 25 -25v-46q27 39 85 58.5t161 19.5q128 0 201.5 -30t104 -87t31.5 -145q1 -87 -30 -144zM545.5 123.5q48.5 12.5 72 43.5t23.5 87
t-23.5 87.5t-72 44t-129.5 12.5t-129 -12.5t-71 -44t-23 -87.5t23 -87t71 -43.5t129 -12.5t129.5 12.5z" />
    <glyph glyph-name="q" unicode="q" horiz-adv-x="824" 
d="M764 484v-650q0 -25 -25 -25h-91q-25 0 -25 25v235q-27 -38 -85.5 -57t-160.5 -19q-128 0 -202 30t-105 87t-30 144q1 88 31.5 145t104 87t201.5 30q103 0 161.5 -19.5t84.5 -58.5v46q0 25 25 25h91q25 0 25 -25zM536.5 123.5q47.5 12.5 71 43.5t23.5 87t-23.5 87.5
t-71 44t-128.5 12.5t-129.5 -12.5t-72 -44t-23.5 -87.5t23.5 -87t72 -43.5t129.5 -12.5t128.5 12.5z" />
    <glyph glyph-name="r" unicode="r" horiz-adv-x="686" 
d="M60 25v458q0 25 25 25h91q25 0 25 -25v-50q0 -6 3 -9.5t8 -3.5q8 0 17 10q34 42 83.5 63.5t137.5 21.5q94 0 148 -28q21 -10 27 -23t6 -34v-35q0 -27 -23 -27q-12 0 -24 4q-43 14 -77 20.5t-87 6.5q-102 0 -160.5 -32t-58.5 -104v-238q0 -25 -25 -25h-91q-25 0 -25 25z
" />
    <glyph glyph-name="s" unicode="s" horiz-adv-x="698" 
d="M202.5 344q15.5 -8 54.5 -16t91 -17l39 -6q89 -14 143.5 -28t93.5 -46t39 -87q0 -82 -86.5 -116.5t-221.5 -34.5q-107 0 -188.5 16t-113.5 36q-10 6 -10 19q0 11 5 19l26 51q4 8 15 8q7 0 21 -4q43 -13 105 -24t136 -11q69 0 117.5 8.5t48.5 34.5q0 21 -39 32.5
t-140 28.5l-36 6q-84 13 -135.5 26t-86.5 43t-35 83q0 79 77.5 115t211.5 36q99 0 174 -15.5t108 -32.5q17 -10 17 -21q0 -7 -5 -20l-20 -46q-5 -13 -23 -13q-9 0 -17 3q-37 12 -101.5 23.5t-134.5 11.5q-145 0 -145 -42q0 -12 15.5 -20z" />
    <glyph glyph-name="t" unicode="t" horiz-adv-x="538" 
d="M220 28q-40 33 -40 111v243q0 10 -10 10h-110q-25 0 -25 25v66q0 25 25 25h110q10 0 10 10v157q0 25 25 25h91q25 0 25 -25v-157q0 -10 10 -10h134q25 0 25 -25v-66q0 -25 -25 -25h-134q-10 0 -10 -10v-221q0 -48 46 -48q62 0 84 7q8 2 11 2q16 0 21 -17l16 -55
q1 -3 1 -10q0 -17 -15 -22q-30 -11 -72 -17t-76 -6q-77 0 -117 33z" />
    <glyph glyph-name="u" unicode="u" 
d="M121 55.5q-66 62.5 -66 189.5v238q0 25 25 25h91q25 0 25 -25v-238q0 -74 48 -104.5t157 -30.5q110 0 158.5 30.5t48.5 104.5v238q0 25 25 25h92q25 0 25 -25v-458q0 -25 -25 -25h-92q-25 0 -25 25v66q0 6 -3.5 7t-6.5 -3q-57 -102 -256 -102q-155 0 -221 62.5z" />
    <glyph glyph-name="v" unicode="v" horiz-adv-x="863" 
d="M375 5q-10 5 -20 17l-324 456q-5 6 -5 14q0 16 22 16h109q18 0 30 -17l237 -340q3 -4 7 -4t7 4l238 340q12 17 30 17h109q22 0 22 -16q0 -8 -5 -14l-324 -456q-15 -22 -44 -22h-65q-14 0 -24 5z" />
    <glyph glyph-name="w" unicode="w" horiz-adv-x="1222" 
d="M1196 492q0 -8 -5 -14l-324 -456q-15 -22 -44 -22h-65q-14 0 -24 5t-20 17l-105 148l-101 -148q-15 -22 -44 -22h-65q-14 0 -24 5t-20 17l-324 456q-5 6 -5 14q0 16 22 16h108q18 0 30 -17l238 -340q3 -4 7 -4t7 4l91 131l-139 196q-5 6 -5 14q0 16 22 16h109
q18 0 30 -17l238 -340q3 -4 7 -4t7 4l237 340q12 17 30 17h109q22 0 22 -16z" />
    <glyph glyph-name="x" unicode="x" horiz-adv-x="753" 
d="M30 13q0 10 11 18l242 219q4 3 4 7.5t-4 6.5l-235 213q-10 10 -10 18q0 13 22 13h117q20 0 31 -12l162 -154q7 -7 14 0l161 154q13 12 31 12h116q10 0 16 -4t6 -10q0 -8 -10 -17l-234 -213q-4 -2 -4 -7q0 -3 4 -7l242 -219q10 -9 10 -17q0 -6 -6 -10t-16 -4h-116
q-18 0 -31 12l-169 161q-7 7 -14 0l-171 -161q-13 -12 -31 -12h-116q-22 0 -22 13z" />
    <glyph glyph-name="y" unicode="y" horiz-adv-x="863" 
d="M837 492q0 -8 -5 -14l-324 -456q-6 -8 -10 -11l-132 -185q-12 -16 -30 -16h-97q-22 0 -22 14q0 7 6 16l130 185l-322 453q-5 6 -5 14q0 16 22 16h109q18 0 30 -17l237 -340q3 -4 7 -4t7 4l238 340q12 17 30 17h109q22 0 22 -16z" />
    <glyph glyph-name="z" unicode="z" horiz-adv-x="753" 
d="M40 25v70q0 11 3.5 18.5t12.5 13.5l426 253q5 3 5 6q0 2 -2.5 4t-6.5 2h-411q-25 0 -25 25v66q0 25 25 25h615q25 0 25 -25v-70q0 -11 -3.5 -18.5t-12.5 -13.5l-426 -253q-5 -3 -5 -6q0 -2 2.5 -4t6.5 -2h419q25 0 25 -25v-66q0 -25 -25 -25h-623q-25 0 -25 25z" />
    <glyph glyph-name="braceleft" unicode="{" horiz-adv-x="520" 
d="M471 42q9 -9 9 -26v-76q0 -17 -9 -26t-26 -9h-310q-16 0 -25.5 9t-9.5 26v267q0 76 -54 121q-16 14 -16 25t16 25q54 45 54 121v266q0 17 9.5 26t25.5 9h310q17 0 26 -9t9 -26v-76q0 -16 -9 -25.5t-26 -9.5h-192v-155q0 -55 -24.5 -89t-64.5 -57q40 -23 64.5 -57
t24.5 -89v-156h192q17 0 26 -9z" />
    <glyph glyph-name="bar" unicode="|" horiz-adv-x="303" 
d="M84.5 -181q-9.5 9 -9.5 26v920q0 17 9.5 26t25.5 9h83q17 0 26 -9t9 -26v-920q0 -17 -9 -26t-26 -9h-83q-16 0 -25.5 9z" />
    <glyph glyph-name="braceright" unicode="}" horiz-adv-x="520" 
d="M267 207q0 55 24.5 89t64.5 57q-40 23 -64.5 57t-24.5 89v155h-192q-16 0 -25.5 9.5t-9.5 25.5v76q0 17 9.5 26t25.5 9h310q17 0 26 -9t9 -26v-266q0 -76 54 -121q16 -13 16 -25t-16 -25q-54 -45 -54 -121v-267q0 -17 -9 -26t-26 -9h-310q-16 0 -25.5 9t-9.5 26v76
q0 17 9.5 26t25.5 9h192v156z" />
    <glyph glyph-name="asciitilde" unicode="~" horiz-adv-x="452" 
d="M60 333q16 9 31.5 11.5t34.5 2.5q25 0 46 -4.5t54 -13.5q32 -9 54 -13.5t46 -4.5q36 0 58 10l8 2q10 0 10 -12v-71q0 -12 -10 -18q-16 -9 -31.5 -11.5t-34.5 -2.5q-24 0 -46 4.5t-54 13.5q-33 9 -54 13.5t-46 4.5q-36 0 -58 -10l-8 -2q-10 0 -10 12v71q0 12 10 18z" />
    <glyph glyph-name="exclamdown" unicode="&#xa1;" horiz-adv-x="278" 
d="M207.5 487.5q20.5 -12.5 20.5 -39.5v-32q0 -27 -20 -39t-68 -12q-49 0 -69.5 12t-20.5 39v32q0 27 20.5 39.5t69.5 12.5q47 0 67.5 -12.5zM168 262q17 0 26 -9t9 -26v-402q0 -17 -9 -26t-26 -9h-83q-16 0 -25.5 9t-9.5 26v402q0 17 9.5 26t25.5 9h83z" />
    <glyph glyph-name="cent" unicode="&#xa2;" horiz-adv-x="731" 
d="M695 162q0 -7 -7 -14q-96 -80 -295 -80q-54 0 -99 6l-49 -103q-5 -11 -17 -11h-31q-8 0 -12 5t0 13l51 107q-196 49 -196 240q0 256 353 256q46 0 78 -4l53 112q5 11 17 11h31q8 0 12 -5t0 -13l-54 -113q97 -19 158 -68q7 -7 7 -14q0 -10 -11 -21l-31 -34
q-12 -13 -28 -13q-9 0 -21 5q-66 30 -125 37l-131 -275q36 -2 58 -2q59 0 103.5 9t94.5 32q12 5 22 5q14 0 27 -13l31 -35q11 -9 11 -20zM208.5 239q25.5 -31 79.5 -44l129 270h-11q-116 0 -169.5 -31t-53.5 -109q0 -55 25.5 -86z" />
    <glyph glyph-name="sterling" unicode="&#xa3;" horiz-adv-x="1069" 
d="M950 134q9 -9 9 -26v-73q0 -16 -9 -25.5t-26 -9.5h-849q-16 0 -25.5 9.5t-9.5 25.5v108q53 37 83.5 64.5t42.5 53.5h-91q-16 0 -25.5 9.5t-9.5 25.5v58q0 17 9.5 26t25.5 9h36q-26 27 -40.5 53t-14.5 61q0 107 115 158t340 51q152 0 264 -26t159 -55q17 -11 17 -26
q0 -13 -11 -24l-52 -54q-13 -13 -28 -13q-8 0 -21 5q-45 19 -131 36.5t-197 17.5q-116 0 -181.5 -11.5t-90.5 -33t-25 -53.5q0 -22 13.5 -38.5t46.5 -47.5h284q17 0 26 -9t9 -26v-58q0 -16 -9 -25.5t-26 -9.5h-235q-23 -49 -120 -118h721q17 0 26 -9z" />
    <glyph glyph-name="currency" unicode="&#xa4;" horiz-adv-x="598" 
d="M501 384l47 -47l-87 -87l-40 40q-55 -38 -124 -38q-66 0 -121 36l-38 -38l-88 87l44 44q-21 47 -21 95q0 53 23 99l-46 46l88 86l41 -41q53 34 118 34q66 0 121 -36l43 43l87 -86l-49 -49q22 -46 22 -96q0 -49 -20 -92zM369 374q28 21 40 49.5t12 52.5t-12 52.5t-40 49.5
t-72 21q-45 0 -72.5 -21t-39 -49.5t-11.5 -52.5q0 -25 11.5 -53t39 -49t72.5 -21q44 0 72 21z" />
    <glyph glyph-name="yen" unicode="&#xa5;" horiz-adv-x="1047" 
d="M1009 694.5q8 -5.5 8 -13.5q0 -11 -14 -24l-401 -360h117q25 0 25 -25v-43q0 -25 -25 -25h-120v-40h120q25 0 25 -25v-44q0 -25 -25 -25h-120v-35q0 -16 -9 -25.5t-26 -9.5h-83q-16 0 -25.5 9.5t-9.5 25.5v35h-118q-25 0 -25 25v44q0 25 25 25h118v40h-118q-25 0 -25 25
v43q0 25 25 25h116l-400 360q-14 14 -14 24q0 8 8 13.5t22 5.5h131q28 0 44 -16l282 -255q3 -3 7.5 -2.5t6.5 2.5l281 255q19 16 44 16h131q14 0 22 -5.5z" />
    <glyph glyph-name="brokenbar" unicode="&#xa6;" horiz-adv-x="303" 
d="M84.5 405.5q-9.5 9.5 -9.5 25.5v334q0 17 9.5 26t25.5 9h83q17 0 26 -9t9 -26v-334q0 -16 -9 -25.5t-26 -9.5h-83q-16 0 -25.5 9.5zM84.5 -181q-9.5 9 -9.5 26v334q0 17 9.5 26t25.5 9h83q17 0 26 -9t9 -26v-334q0 -17 -9 -26t-26 -9h-83q-16 0 -25.5 9z" />
    <glyph glyph-name="section" unicode="&#xa7;" horiz-adv-x="1078" 
d="M1023 4q0 -115 -124 -167.5t-361 -52.5q-178 0 -297.5 25.5t-168.5 55.5q-17 10 -17 26q0 13 11 24l53 53q13 13 27 13q8 0 21 -5q47 -19 140 -36t231 -17q175 0 251 21t76 55q0 24 -29 37.5t-77 21t-145 16.5q-55 5 -76 7q-176 19 -270.5 38t-151 61t-56.5 119
q0 96 97 148q-48 24 -72.5 59t-24.5 85q0 108 118.5 158.5t359.5 50.5q163 0 277.5 -26t161.5 -55q17 -11 17 -26q0 -13 -11 -24l-52 -54q-13 -13 -28 -13q-8 0 -21 5q-46 20 -134 37t-210 17q-320 0 -320 -75q0 -22 30.5 -35.5t83.5 -20.5t158 -17l48 -5q159 -16 253.5 -33
t163 -59.5t68.5 -119.5q0 -101 -100 -155q100 -49 100 -137zM248.5 258.5q30.5 -13.5 83.5 -20.5t158 -17l48 -5q174 -1 250.5 20.5t76.5 54.5q0 24 -29 37.5t-77 21t-145 16.5q-55 5 -76 7v-1q-320 0 -320 -78q0 -22 30.5 -35.5z" />
    <glyph glyph-name="dieresis" unicode="&#xa8;" horiz-adv-x="486" 
d="M18.5 605q-18.5 10 -18.5 34v27q0 24 18.5 34t63.5 10q44 0 62 -10t18 -34v-27q0 -24 -18 -34t-62 -10q-45 0 -63.5 10zM342.5 605q-18.5 10 -18.5 34v27q0 24 18.5 34t63.5 10q44 0 62 -10t18 -34v-27q0 -24 -18 -34t-62 -10q-45 0 -63.5 10z" />
    <glyph glyph-name="copyright" unicode="&#xa9;" horiz-adv-x="1188" 
d="M1003 626q135 -86 135 -276q0 -191 -134.5 -276.5t-409.5 -85.5t-409.5 85.5t-134.5 276.5q0 190 135 276t409 86t409 -86zM846.5 130q92.5 27 131.5 81t39 139q0 84 -39 138t-132 81.5t-252 27.5q-160 0 -252 -27.5t-130.5 -81t-38.5 -138.5t38.5 -139t130.5 -81
t252 -27t252.5 27zM864 220q0 -12 -14 -18q-31 -14 -97.5 -25.5t-174.5 -11.5q-163 0 -243 41t-81 144q1 103 81 144t243 41q108 0 174.5 -11.5t97.5 -25.5q14 -6 14 -18q0 -7 -3 -13l-23 -47q-5 -11 -19 -11q-9 0 -21 3q-50 10 -93.5 15t-127.5 5q-78 0 -122.5 -7.5
t-64.5 -25t-20 -49.5t20 -49.5t64.5 -25t122.5 -7.5q84 0 127.5 5t93.5 15q12 3 21 3q14 0 19 -11l23 -47q3 -6 3 -13z" />
    <glyph glyph-name="ordfeminine" unicode="&#xaa;" horiz-adv-x="574" 
d="M549 397q0 -4 -3.5 -6.5t-10.5 -2.5h-87q-11 0 -18 10l-25 35h-217l-25 -35q-7 -10 -18 -10h-86q-7 0 -10.5 2.5t-3.5 6.5q0 5 4 10l209 283q7 10 19 10h40q10 0 19 -10l209 -283q4 -5 4 -10zM246 514h101l-50 71z" />
    <glyph glyph-name="guillemotleft" unicode="&#xab;" horiz-adv-x="387" 
d="M54.5 415q4.5 9 18.5 21l69 60q7 5 14 5t12 -5t5 -16v-66q0 -19 -13 -40l-45 -62l45 -63q13 -21 13 -40v-65q0 -11 -5 -16.5t-12 -5.5t-14 5l-69 60q-14 12 -18.5 21.5t-4.5 22.5v161q0 14 4.5 23zM218.5 415q4.5 9 18.5 21l69 60q7 5 14 5t12 -5t5 -16v-66
q0 -19 -13 -40l-45 -62l45 -63q13 -21 13 -40v-65q0 -11 -5 -16.5t-12 -5.5t-14 5l-69 60q-14 12 -18.5 21.5t-4.5 22.5v161q0 14 4.5 23z" />
    <glyph glyph-name="logicalnot" unicode="&#xac;" horiz-adv-x="650" 
d="M591 349q9 -9 9 -26v-284q0 -16 -9 -25.5t-26 -9.5h-76q-16 0 -25.5 9.5t-9.5 25.5v173h-369q-16 0 -25.5 9.5t-9.5 25.5v76q0 17 9.5 26t25.5 9h480q17 0 26 -9z" />
    <glyph glyph-name="uni00AD" unicode="&#xad;" horiz-adv-x="650" 
d="M59.5 349q9.5 9 25.5 9h480q17 0 26 -9t9 -26v-76q0 -16 -9 -25.5t-26 -9.5h-480q-16 0 -25.5 9.5t-9.5 25.5v76q0 17 9.5 26z" />
    <glyph glyph-name="registered" unicode="&#xae;" horiz-adv-x="1188" 
d="M1003 626q135 -86 135 -276q0 -191 -134.5 -276.5t-409.5 -85.5t-409.5 85.5t-134.5 276.5q0 190 135 276t409 86t409 -86zM846.5 130q92.5 27 131.5 81t39 139q0 84 -39 138t-132 81.5t-252 27.5q-160 0 -252 -27.5t-130.5 -81t-38.5 -138.5q0 -87 40 -141t134 -80v360
q0 9 6 14.5t16 5.5h79q20 0 20 -20v-41q27 31 81.5 49t125.5 18q124 0 180 -49q10 -9 10 -17q0 -11 -16 -25l-30 -27q-8 -7 -19 -7q-8 0 -23 5q-63 19 -131 19q-90 0 -134 -27t-44 -85v-194q63 -5 126 -5q160 0 252.5 27z" />
    <glyph glyph-name="macron" unicode="&#xaf;" horiz-adv-x="471" 
d="M25 700h421q25 0 25 -25v-39q0 -25 -25 -25h-421q-25 0 -25 25v39q0 25 25 25z" />
    <glyph glyph-name="degree" unicode="&#xb0;" horiz-adv-x="569" 
d="M467.5 679.5q56.5 -37.5 56.5 -121.5t-56.5 -121.5t-166.5 -37.5h-23q-110 0 -166.5 37.5t-56.5 121.5t56.5 121.5t166.5 37.5h23q110 0 166.5 -37.5zM381 499q27 8 36 22.5t9 36.5t-9 36.5t-36 22.5t-80 8h-23q-52 0 -79.5 -8t-36.5 -22.5t-9 -36.5t9 -36.5t36.5 -22.5
t79.5 -8h23q53 0 80 8z" />
    <glyph glyph-name="plusminus" unicode="&#xb1;" horiz-adv-x="696" 
d="M635 419q10 -9 10 -26v-76q0 -17 -10 -26t-28 -9h-186v-187q0 -17 -9.5 -27t-25.5 -10h-76q-16 0 -25.5 10t-9.5 27v187h-187q-18 0 -28 9t-10 26v76q0 17 10 26t28 9h187v187q0 18 9 28t26 10h76q17 0 26 -10t9 -28v-187h186q18 0 28 -9zM60 -9q10 9 28 9h519
q18 0 28 -9t10 -26v-76q0 -17 -10 -26t-28 -9h-519q-18 0 -28 9t-10 26v76q0 17 10 26z" />
    <glyph glyph-name="acute" unicode="&#xb4;" horiz-adv-x="263" 
d="M257.5 696q5.5 -4 5.5 -10q0 -8 -9 -17l-92 -87q-13 -13 -31 -13h-110q-10 0 -15.5 4t-5.5 10q0 9 8 17l83 87q12 13 31 13h121q9 0 14.5 -4z" />
    <glyph glyph-name="uni00B5" unicode="&#xb5;" 
d="M750 483v-458q0 -25 -25 -25h-92q-25 0 -25 25v66q0 6 -3.5 7t-6.5 -3q-57 -102 -256 -102q-86 0 -146 20v-168q0 -17 -9 -26t-26 -9h-71q-16 0 -25.5 9t-9.5 26v638q0 25 25 25h91q25 0 25 -25v-238q0 -74 48 -104.5t157 -30.5q110 0 158.5 30.5t48.5 104.5v238
q0 25 25 25h92q25 0 25 -25z" />
    <glyph glyph-name="paragraph" unicode="&#xb6;" horiz-adv-x="1316" 
d="M1017 691q9 -9 9 -26v-630q0 -16 -9 -25.5t-26 -9.5h-83q-16 0 -25.5 9.5t-9.5 25.5v189h-532q-101 0 -166 34t-95 88t-30 116t30 116t95 88t166 34h650q17 0 26 -9zM1257 691q9 -9 9 -26v-630q0 -16 -9 -25.5t-26 -9.5h-83q-16 0 -25.5 9.5t-9.5 25.5v630q0 17 9.5 26
t25.5 9h83q17 0 26 -9z" />
    <glyph glyph-name="periodcentered" unicode="&#xb7;" horiz-adv-x="313" 
d="M100.5 203.5q-20.5 12.5 -20.5 39.5v32q0 27 20.5 39t69.5 12q48 0 68 -12t20 -39v-32q0 -27 -20.5 -39.5t-67.5 -12.5q-49 0 -69.5 12.5z" />
    <glyph glyph-name="cedilla" unicode="&#xb8;" horiz-adv-x="369" 
d="M326 -70.5q43 -25.5 43 -84.5q0 -77 -67 -103.5t-181 -26.5q-70 0 -103 8q-13 3 -13 17v73q0 14 16 14q72 -3 103 -3q65 0 88 8t23 24t-29.5 25t-120.5 9q-9 0 -14 4.5t-1 10.5l57 95h109l-29 -42q76 -3 119 -28.5z" />
    <glyph glyph-name="ordmasculine" unicode="&#xba;" horiz-adv-x="549" 
d="M452.5 662.5q56.5 -37.5 56.5 -121.5t-56.5 -121.5t-166.5 -37.5h-23q-110 0 -166.5 37.5t-56.5 121.5t56.5 121.5t166.5 37.5h23q110 0 166.5 -37.5zM366 482q27 8 36 22.5t9 36.5t-9 36.5t-36 22.5t-80 8h-23q-52 0 -79.5 -8t-36.5 -22.5t-9 -36.5t9 -36.5t36.5 -22.5
t79.5 -8h23q53 0 80 8z" />
    <glyph glyph-name="guillemotright" unicode="&#xbb;" horiz-adv-x="387" 
d="M173 231q0 -13 -4.5 -22.5t-18.5 -21.5l-69 -60q-7 -5 -14 -5t-12 5.5t-5 16.5v65q0 19 13 40l45 63l-45 62q-13 21 -13 40v66q0 11 5 16t12 5t14 -5l69 -60q14 -12 18.5 -21t4.5 -23v-161zM337 231q0 -13 -4.5 -22.5t-18.5 -21.5l-69 -60q-7 -5 -14 -5t-12 5.5t-5 16.5
v65q0 19 13 40l45 63l-45 62q-13 21 -13 40v66q0 11 5 16t12 5t14 -5l69 -60q14 -12 18.5 -21t4.5 -23v-161z" />
    <glyph glyph-name="questiondown" unicode="&#xbf;" horiz-adv-x="1010" 
d="M579.5 487.5q20.5 -12.5 20.5 -39.5v-32q0 -27 -20.5 -39t-69.5 -12q-48 0 -68 12t-20 39v32q0 27 20.5 39.5t67.5 12.5q49 0 69.5 -12.5zM165.5 -173q-125.5 45 -125.5 144q0 59 36.5 95t88 54t130.5 36q80 18 117 34t37 47q0 13 8 19t27 6h81q19 0 27 -6t8 -19
q0 -66 -38 -105t-89.5 -56.5t-132.5 -34.5q-71 -14 -103.5 -27.5t-32.5 -39.5q0 -28 89 -43t205 -15q117 0 208.5 16.5t147.5 34.5q18 4 23 4q15 0 30 -12l51 -48q12 -11 12 -23q0 -17 -18 -27q-27 -17 -90 -35.5t-157 -31t-207 -12.5q-207 0 -332.5 45z" />
    <glyph glyph-name="Agrave" unicode="&#xc0;" horiz-adv-x="1186" 
d="M1156 21q0 -9 -8 -15t-22 -6h-109q-27 0 -42 22l-87 123h-590l-87 -123q-15 -22 -42 -22h-109q-14 0 -22 6t-8 15q0 10 8 21l459 638q9 12 19.5 17t24.5 5h104q14 0 24.5 -5t19.5 -17l459 -638q8 -11 8 -21zM386 270h414l-207 292zM578 879l83 -87q8 -8 8 -17
q0 -6 -5.5 -10t-15.5 -4h-110q-18 0 -31 13l-92 87q-9 9 -9 17q0 6 5.5 10t14.5 4h121q19 0 31 -13z" />
    <glyph glyph-name="Aacute" unicode="&#xc1;" horiz-adv-x="1186" 
d="M1156 21q0 -9 -8 -15t-22 -6h-109q-27 0 -42 22l-87 123h-590l-87 -123q-15 -22 -42 -22h-109q-14 0 -22 6t-8 15q0 10 8 21l459 638q9 12 19.5 17t24.5 5h104q14 0 24.5 -5t19.5 -17l459 -638q8 -11 8 -21zM386 270h414l-207 292zM784.5 888q5.5 -4 5.5 -10q0 -8 -9 -17
l-92 -87q-13 -13 -31 -13h-110q-10 0 -15.5 4t-5.5 10q0 9 8 17l83 87q12 13 31 13h121q9 0 14.5 -4z" />
    <glyph glyph-name="Acircumflex" unicode="&#xc2;" horiz-adv-x="1186" 
d="M1156 21q0 -9 -8 -15t-22 -6h-109q-27 0 -42 22l-87 123h-590l-87 -123q-15 -22 -42 -22h-109q-14 0 -22 6t-8 15q0 10 8 21l459 638q9 12 19.5 17t24.5 5h104q14 0 24.5 -5t19.5 -17l459 -638q8 -11 8 -21zM386 270h414l-207 292zM696.5 887.5q9.5 -4.5 21.5 -18.5
l59 -69q5 -7 5 -14t-5 -12t-16 -5h-65q-12 0 -21 3.5t-20 9.5l-62 45l-62 -45q-11 -6 -20 -9.5t-21 -3.5h-65q-11 0 -16 5t-5 12t5 14l59 69q12 14 21.5 18.5t22.5 4.5h162q13 0 22.5 -4.5z" />
    <glyph glyph-name="Atilde" unicode="&#xc3;" horiz-adv-x="1186" 
d="M1156 21q0 -9 -8 -15t-22 -6h-109q-27 0 -42 22l-87 123h-590l-87 -123q-15 -22 -42 -22h-109q-14 0 -22 6t-8 15q0 10 8 21l459 638q9 12 19.5 17t24.5 5h104q14 0 24.5 -5t19.5 -17l459 -638q8 -11 8 -21zM386 270h414l-207 292zM433 890q16 9 31.5 11.5t34.5 2.5
q25 0 46 -4.5t54 -13.5q32 -9 54 -13.5t46 -4.5q36 0 58 10l8 2q10 0 10 -12v-71q0 -12 -10 -18q-16 -9 -31.5 -11.5t-34.5 -2.5q-24 0 -46 4.5t-54 13.5q-33 9 -54 13.5t-46 4.5q-36 0 -58 -10l-8 -2q-10 0 -10 12v71q0 12 10 18z" />
    <glyph glyph-name="Adieresis" unicode="&#xc4;" horiz-adv-x="1186" 
d="M1156 21q0 -9 -8 -15t-22 -6h-109q-27 0 -42 22l-87 123h-590l-87 -123q-15 -22 -42 -22h-109q-14 0 -22 6t-8 15q0 10 8 21l459 638q9 12 19.5 17t24.5 5h104q14 0 24.5 -5t19.5 -17l459 -638q8 -11 8 -21zM386 270h414l-207 292zM368.5 797q-18.5 10 -18.5 34v27
q0 24 18.5 34t63.5 10q44 0 62 -10t18 -34v-27q0 -24 -18 -34t-62 -10q-45 0 -63.5 10zM692.5 797q-18.5 10 -18.5 34v27q0 24 18.5 34t63.5 10q44 0 62 -10t18 -34v-27q0 -24 -18 -34t-62 -10q-45 0 -63.5 10z" />
    <glyph glyph-name="Aring" unicode="&#xc5;" horiz-adv-x="1186" 
d="M1156 21q0 -9 -8 -15t-22 -6h-109q-27 0 -42 22l-87 123h-590l-87 -123q-15 -22 -42 -22h-109q-14 0 -22 6t-8 15q0 10 8 21l459 638q9 12 19.5 17t24.5 5h104q14 0 24.5 -5t19.5 -17l459 -638q8 -11 8 -21zM386 270h414l-207 292zM688 901q30 -20 30 -64t-30 -64
t-88 -20h-16q-58 0 -87.5 20t-29.5 64t29.5 64t87.5 20h16q58 0 88 -20zM626.5 819.5q7.5 4.5 7.5 17.5t-7.5 17.5t-29.5 4.5h-9q-23 0 -30.5 -4.5t-7.5 -17.5t7.5 -17.5t30.5 -4.5h9q22 0 29.5 4.5z" />
    <glyph glyph-name="AE" unicode="&#xc6;" horiz-adv-x="1490" 
d="M677 554v-142h679q17 0 26 -9t9 -25v-65q0 -16 -9 -25t-26 -9h-679v-133h728q17 0 26 -9t9 -26v-76q0 -16 -9 -25.5t-26 -9.5h-846q-16 0 -25.5 9.5t-9.5 25.5v81h-252l-67 -94q-15 -22 -42 -22h-103q-14 0 -22 6t-8 15q0 8 8 21l455 636q15 22 44 22h868q17 0 26 -9
t9 -26v-76q0 -16 -9 -25.5t-26 -9.5h-728zM366 249h158v223z" />
    <glyph glyph-name="Ccedilla" unicode="&#xc7;" horiz-adv-x="1109" 
d="M1049 118q10 -19 10 -27q0 -12 -17 -24q-42 -28 -140.5 -51.5t-254.5 -27.5l-21 -30q76 -3 119 -28.5t43 -84.5q0 -77 -67 -103.5t-181 -26.5q-70 0 -103 8q-13 3 -13 17v73q0 14 16 14q72 -3 103 -3q65 0 88 8t23 24t-29.5 25t-120.5 9q-9 0 -14 4.5t-1 10.5l50 84
q-167 6 -274.5 44t-161 115.5t-53.5 201.5q0 131 60.5 210.5t181.5 115.5t310 36q175 0 283.5 -24.5t154.5 -54.5q17 -11 17 -24q0 -8 -9 -24l-33 -59q-7 -13 -22 -13q-8 0 -26 6q-61 21 -143.5 35.5t-216.5 14.5q-151 0 -238.5 -24t-124 -71.5t-36.5 -123.5q0 -74 35 -122
t117.5 -72.5t224.5 -24.5q146 0 234.5 14.5t149.5 35.5q13 5 24 5q17 0 24 -12q22 -37 32 -56z" />
    <glyph glyph-name="Egrave" unicode="&#xc8;" horiz-adv-x="1041" 
d="M84.5 9.5q-9.5 9.5 -9.5 25.5v630q0 17 9.5 26t25.5 9h846q17 0 26 -9t9 -26v-76q0 -16 -9 -25.5t-26 -9.5h-718q-10 0 -10 -10v-122q0 -10 10 -10h669q17 0 26 -9t9 -25v-65q0 -16 -9 -25t-26 -9h-669q-10 0 -10 -10v-113q0 -10 10 -10h718q17 0 26 -9t9 -26v-76
q0 -16 -9 -25.5t-26 -9.5h-846q-16 0 -25.5 9.5zM528 879l83 -87q8 -8 8 -17q0 -6 -5.5 -10t-15.5 -4h-110q-18 0 -31 13l-92 87q-9 9 -9 17q0 6 5.5 10t14.5 4h121q19 0 31 -13z" />
    <glyph glyph-name="Eacute" unicode="&#xc9;" horiz-adv-x="1041" 
d="M84.5 9.5q-9.5 9.5 -9.5 25.5v630q0 17 9.5 26t25.5 9h846q17 0 26 -9t9 -26v-76q0 -16 -9 -25.5t-26 -9.5h-718q-10 0 -10 -10v-122q0 -10 10 -10h669q17 0 26 -9t9 -25v-65q0 -16 -9 -25t-26 -9h-669q-10 0 -10 -10v-113q0 -10 10 -10h718q17 0 26 -9t9 -26v-76
q0 -16 -9 -25.5t-26 -9.5h-846q-16 0 -25.5 9.5zM734.5 888q5.5 -4 5.5 -10q0 -8 -9 -17l-92 -87q-13 -13 -31 -13h-110q-10 0 -15.5 4t-5.5 10q0 9 8 17l83 87q12 13 31 13h121q9 0 14.5 -4z" />
    <glyph glyph-name="Ecircumflex" unicode="&#xca;" horiz-adv-x="1041" 
d="M84.5 9.5q-9.5 9.5 -9.5 25.5v630q0 17 9.5 26t25.5 9h846q17 0 26 -9t9 -26v-76q0 -16 -9 -25.5t-26 -9.5h-718q-10 0 -10 -10v-122q0 -10 10 -10h669q17 0 26 -9t9 -25v-65q0 -16 -9 -25t-26 -9h-669q-10 0 -10 -10v-113q0 -10 10 -10h718q17 0 26 -9t9 -26v-76
q0 -16 -9 -25.5t-26 -9.5h-846q-16 0 -25.5 9.5zM646.5 887.5q9.5 -4.5 21.5 -18.5l59 -69q5 -7 5 -14t-5 -12t-16 -5h-65q-12 0 -21 3.5t-20 9.5l-62 45l-62 -45q-11 -6 -20 -9.5t-21 -3.5h-65q-11 0 -16 5t-5 12t5 14l59 69q12 14 21.5 18.5t22.5 4.5h162q13 0 22.5 -4.5z
" />
    <glyph glyph-name="Edieresis" unicode="&#xcb;" horiz-adv-x="1041" 
d="M84.5 9.5q-9.5 9.5 -9.5 25.5v630q0 17 9.5 26t25.5 9h846q17 0 26 -9t9 -26v-76q0 -16 -9 -25.5t-26 -9.5h-718q-10 0 -10 -10v-122q0 -10 10 -10h669q17 0 26 -9t9 -25v-65q0 -16 -9 -25t-26 -9h-669q-10 0 -10 -10v-113q0 -10 10 -10h718q17 0 26 -9t9 -26v-76
q0 -16 -9 -25.5t-26 -9.5h-846q-16 0 -25.5 9.5zM318.5 797q-18.5 10 -18.5 34v27q0 24 18.5 34t63.5 10q44 0 62 -10t18 -34v-27q0 -24 -18 -34t-62 -10q-45 0 -63.5 10zM642.5 797q-18.5 10 -18.5 34v27q0 24 18.5 34t63.5 10q44 0 62 -10t18 -34v-27q0 -24 -18 -34
t-62 -10q-45 0 -63.5 10z" />
    <glyph glyph-name="Igrave" unicode="&#xcc;" horiz-adv-x="303" 
d="M84.5 9.5q-9.5 9.5 -9.5 25.5v630q0 17 9.5 26t25.5 9h83q17 0 26 -9t9 -26v-630q0 -16 -9 -25.5t-26 -9.5h-83q-16 0 -25.5 9.5zM137 879l83 -87q8 -8 8 -17q0 -6 -5.5 -10t-15.5 -4h-110q-18 0 -31 13l-92 87q-9 9 -9 17q0 6 5.5 10t14.5 4h121q19 0 31 -13z" />
    <glyph glyph-name="Iacute" unicode="&#xcd;" horiz-adv-x="303" 
d="M84.5 9.5q-9.5 9.5 -9.5 25.5v630q0 17 9.5 26t25.5 9h83q17 0 26 -9t9 -26v-630q0 -16 -9 -25.5t-26 -9.5h-83q-16 0 -25.5 9.5zM343.5 888q5.5 -4 5.5 -10q0 -8 -9 -17l-92 -87q-13 -13 -31 -13h-110q-10 0 -15.5 4t-5.5 10q0 9 8 17l83 87q12 13 31 13h121
q9 0 14.5 -4z" />
    <glyph glyph-name="Icircumflex" unicode="&#xce;" horiz-adv-x="303" 
d="M84.5 9.5q-9.5 9.5 -9.5 25.5v630q0 17 9.5 26t25.5 9h83q17 0 26 -9t9 -26v-630q0 -16 -9 -25.5t-26 -9.5h-83q-16 0 -25.5 9.5zM255.5 887.5q9.5 -4.5 21.5 -18.5l59 -69q5 -7 5 -14t-5 -12t-16 -5h-65q-12 0 -21 3.5t-20 9.5l-62 45l-62 -45q-11 -6 -20 -9.5t-21 -3.5
h-65q-11 0 -16 5t-5 12t5 14l59 69q12 14 21.5 18.5t22.5 4.5h162q13 0 22.5 -4.5z" />
    <glyph glyph-name="Idieresis" unicode="&#xcf;" horiz-adv-x="303" 
d="M84.5 9.5q-9.5 9.5 -9.5 25.5v630q0 17 9.5 26t25.5 9h83q17 0 26 -9t9 -26v-630q0 -16 -9 -25.5t-26 -9.5h-83q-16 0 -25.5 9.5zM-72.5 797q-18.5 10 -18.5 34v27q0 24 18.5 34t63.5 10q44 0 62 -10t18 -34v-27q0 -24 -18 -34t-62 -10q-45 0 -63.5 10zM251.5 797
q-18.5 10 -18.5 34v27q0 24 18.5 34t63.5 10q44 0 62 -10t18 -34v-27q0 -24 -18 -34t-62 -10q-45 0 -63.5 10z" />
    <glyph glyph-name="Eth" unicode="&#xd0;" horiz-adv-x="1149" 
d="M893.5 664q106.5 -36 156 -112.5t49.5 -201.5q0 -126 -49 -202.5t-155.5 -112t-282.5 -35.5h-469q-16 0 -25.5 9.5t-9.5 25.5v245h-33q-16 0 -25.5 9.5t-9.5 25.5v76q0 17 9.5 26t25.5 9h33v239q0 17 9.5 26t25.5 9h469q175 0 281.5 -36zM815 171q75 23 101 65.5
t26 113.5t-26 113.5t-101 65.5t-221 23h-323q-10 0 -10 -10v-116h294q17 0 26 -9t9 -26v-76q0 -16 -9 -25.5t-26 -9.5h-294v-122q0 -10 10 -10h323q146 0 221 23z" />
    <glyph glyph-name="Ntilde" unicode="&#xd1;" horiz-adv-x="1136" 
d="M84.5 9.5q-9.5 9.5 -9.5 25.5v630q0 17 9.5 26t25.5 9h83q20 0 30.5 -3.5t24.5 -13.5l648 -495q2 -2 6 -2q2 0 4 2t2 6v471q0 17 9.5 26t25.5 9h83q17 0 26 -9t9 -26v-630q0 -16 -9 -25.5t-26 -9.5h-83q-20 0 -31.5 3.5t-23.5 13.5l-648 496q-2 2 -6 2q-2 0 -4 -2t-2 -6
v-472q0 -16 -9 -25.5t-26 -9.5h-83q-16 0 -25.5 9.5zM408 890q16 9 31.5 11.5t34.5 2.5q25 0 46 -4.5t54 -13.5q32 -9 54 -13.5t46 -4.5q36 0 58 10l8 2q10 0 10 -12v-71q0 -12 -10 -18q-16 -9 -31.5 -11.5t-34.5 -2.5q-24 0 -46 4.5t-54 13.5q-33 9 -54 13.5t-46 4.5
q-36 0 -58 -10l-8 -2q-10 0 -10 12v71q0 12 10 18z" />
    <glyph glyph-name="Ograve" unicode="&#xd2;" horiz-adv-x="1188" 
d="M179 74q-129 86 -129 276q0 189 129 275.5t377 86.5h75q248 0 377.5 -86.5t129.5 -275.5q0 -190 -129 -276t-378 -86h-75q-248 0 -377 86zM899 184.5q82 53.5 82 165.5q0 110 -82.5 164.5t-267.5 54.5h-75q-184 0 -266.5 -54.5t-82.5 -164.5q0 -112 82 -165.5t267 -53.5
h75q186 0 268 53.5zM579 879l83 -87q8 -8 8 -17q0 -6 -5.5 -10t-15.5 -4h-110q-18 0 -31 13l-92 87q-9 9 -9 17q0 6 5.5 10t14.5 4h121q19 0 31 -13z" />
    <glyph glyph-name="Oacute" unicode="&#xd3;" horiz-adv-x="1188" 
d="M179 74q-129 86 -129 276q0 189 129 275.5t377 86.5h75q248 0 377.5 -86.5t129.5 -275.5q0 -190 -129 -276t-378 -86h-75q-248 0 -377 86zM899 184.5q82 53.5 82 165.5q0 110 -82.5 164.5t-267.5 54.5h-75q-184 0 -266.5 -54.5t-82.5 -164.5q0 -112 82 -165.5t267 -53.5
h75q186 0 268 53.5zM785.5 888q5.5 -4 5.5 -10q0 -8 -9 -17l-92 -87q-13 -13 -31 -13h-110q-10 0 -15.5 4t-5.5 10q0 9 8 17l83 87q12 13 31 13h121q9 0 14.5 -4z" />
    <glyph glyph-name="Ocircumflex" unicode="&#xd4;" horiz-adv-x="1188" 
d="M179 74q-129 86 -129 276q0 189 129 275.5t377 86.5h75q248 0 377.5 -86.5t129.5 -275.5q0 -190 -129 -276t-378 -86h-75q-248 0 -377 86zM899 184.5q82 53.5 82 165.5q0 110 -82.5 164.5t-267.5 54.5h-75q-184 0 -266.5 -54.5t-82.5 -164.5q0 -112 82 -165.5t267 -53.5
h75q186 0 268 53.5zM697.5 887.5q9.5 -4.5 21.5 -18.5l59 -69q5 -7 5 -14t-5 -12t-16 -5h-65q-12 0 -21 3.5t-20 9.5l-62 45l-62 -45q-11 -6 -20 -9.5t-21 -3.5h-65q-11 0 -16 5t-5 12t5 14l59 69q12 14 21.5 18.5t22.5 4.5h162q13 0 22.5 -4.5z" />
    <glyph glyph-name="Otilde" unicode="&#xd5;" horiz-adv-x="1188" 
d="M179 74q-129 86 -129 276q0 189 129 275.5t377 86.5h75q248 0 377.5 -86.5t129.5 -275.5q0 -190 -129 -276t-378 -86h-75q-248 0 -377 86zM899 184.5q82 53.5 82 165.5q0 110 -82.5 164.5t-267.5 54.5h-75q-184 0 -266.5 -54.5t-82.5 -164.5q0 -112 82 -165.5t267 -53.5
h75q186 0 268 53.5zM434 890q16 9 31.5 11.5t34.5 2.5q25 0 46 -4.5t54 -13.5q32 -9 54 -13.5t46 -4.5q36 0 58 10l8 2q10 0 10 -12v-71q0 -12 -10 -18q-16 -9 -31.5 -11.5t-34.5 -2.5q-24 0 -46 4.5t-54 13.5q-33 9 -54 13.5t-46 4.5q-36 0 -58 -10l-8 -2q-10 0 -10 12v71
q0 12 10 18z" />
    <glyph glyph-name="Odieresis" unicode="&#xd6;" horiz-adv-x="1188" 
d="M179 74q-129 86 -129 276q0 189 129 275.5t377 86.5h75q248 0 377.5 -86.5t129.5 -275.5q0 -190 -129 -276t-378 -86h-75q-248 0 -377 86zM899 184.5q82 53.5 82 165.5q0 110 -82.5 164.5t-267.5 54.5h-75q-184 0 -266.5 -54.5t-82.5 -164.5q0 -112 82 -165.5t267 -53.5
h75q186 0 268 53.5zM369.5 797q-18.5 10 -18.5 34v27q0 24 18.5 34t63.5 10q44 0 62 -10t18 -34v-27q0 -24 -18 -34t-62 -10q-45 0 -63.5 10zM693.5 797q-18.5 10 -18.5 34v27q0 24 18.5 34t63.5 10q44 0 62 -10t18 -34v-27q0 -24 -18 -34t-62 -10q-45 0 -63.5 10z" />
    <glyph glyph-name="multiply" unicode="&#xd7;" horiz-adv-x="597" 
d="M534 116q13 -13 13 -28q0 -13 -11 -24l-53 -54q-13 -11 -24 -11q-13 0 -28 13l-132 132l-132 -132q-15 -13 -28 -13q-11 0 -24 11l-53 54q-11 11 -11 24q0 15 13 28l132 132l-132 132q-13 12 -13 27q0 14 11 24l54 54q11 11 24 11q14 0 27 -13l132 -132l132 132
q13 13 27 13q13 0 24 -11l54 -54q11 -10 11 -24q0 -15 -13 -27l-132 -132z" />
    <glyph glyph-name="Oslash" unicode="&#xd8;" horiz-adv-x="1188" 
d="M1077.5 559q60.5 -80 60.5 -209q0 -190 -129 -276t-378 -86h-75q-69 0 -129 6l-31 -44q-16 -22 -42 -22h-87q-15 0 -23 5.5t-8 15.5q0 8 8 21l38 54q-232 78 -232 326q0 189 129 275.5t377 86.5h75q66 0 123 -6l30 43q16 22 42 22h86q15 0 23 -5.5t8 -15.5q0 -8 -8 -21
l-36 -52q118 -38 178.5 -118zM246 223q39 -49 123 -72l290 418h-28h-75q-184 0 -266.5 -54.5t-82.5 -164.5q0 -78 39 -127zM899 184.5q82 53.5 82 165.5q0 78 -41 128t-129 72l-289 -419h34h75q186 0 268 53.5z" />
    <glyph glyph-name="Ugrave" unicode="&#xd9;" horiz-adv-x="1136" 
d="M1057 691q9 -9 9 -26v-315q0 -190 -121.5 -276t-360.5 -86h-32q-239 0 -360.5 86t-121.5 276v315q0 17 9.5 26t25.5 9h83q17 0 26 -9t9 -26v-315q0 -75 32.5 -122.5t104.5 -71t192 -23.5h32q122 0 194 23.5t103.5 70.5t31.5 123v315q0 17 9.5 26t25.5 9h83q17 0 26 -9z
M553 879l83 -87q8 -8 8 -17q0 -6 -5.5 -10t-15.5 -4h-110q-18 0 -31 13l-92 87q-9 9 -9 17q0 6 5.5 10t14.5 4h121q19 0 31 -13z" />
    <glyph glyph-name="Uacute" unicode="&#xda;" horiz-adv-x="1136" 
d="M1057 691q9 -9 9 -26v-315q0 -190 -121.5 -276t-360.5 -86h-32q-239 0 -360.5 86t-121.5 276v315q0 17 9.5 26t25.5 9h83q17 0 26 -9t9 -26v-315q0 -75 32.5 -122.5t104.5 -71t192 -23.5h32q122 0 194 23.5t103.5 70.5t31.5 123v315q0 17 9.5 26t25.5 9h83q17 0 26 -9z
M759.5 888q5.5 -4 5.5 -10q0 -8 -9 -17l-92 -87q-13 -13 -31 -13h-110q-10 0 -15.5 4t-5.5 10q0 9 8 17l83 87q12 13 31 13h121q9 0 14.5 -4z" />
    <glyph glyph-name="Ucircumflex" unicode="&#xdb;" horiz-adv-x="1136" 
d="M1057 691q9 -9 9 -26v-315q0 -190 -121.5 -276t-360.5 -86h-32q-239 0 -360.5 86t-121.5 276v315q0 17 9.5 26t25.5 9h83q17 0 26 -9t9 -26v-315q0 -75 32.5 -122.5t104.5 -71t192 -23.5h32q122 0 194 23.5t103.5 70.5t31.5 123v315q0 17 9.5 26t25.5 9h83q17 0 26 -9z
M671.5 887.5q9.5 -4.5 21.5 -18.5l59 -69q5 -7 5 -14t-5 -12t-16 -5h-65q-12 0 -21 3.5t-20 9.5l-62 45l-62 -45q-11 -6 -20 -9.5t-21 -3.5h-65q-11 0 -16 5t-5 12t5 14l59 69q12 14 21.5 18.5t22.5 4.5h162q13 0 22.5 -4.5z" />
    <glyph glyph-name="Udieresis" unicode="&#xdc;" horiz-adv-x="1136" 
d="M1057 691q9 -9 9 -26v-315q0 -190 -121.5 -276t-360.5 -86h-32q-239 0 -360.5 86t-121.5 276v315q0 17 9.5 26t25.5 9h83q17 0 26 -9t9 -26v-315q0 -75 32.5 -122.5t104.5 -71t192 -23.5h32q122 0 194 23.5t103.5 70.5t31.5 123v315q0 17 9.5 26t25.5 9h83q17 0 26 -9z
M343.5 797q-18.5 10 -18.5 34v27q0 24 18.5 34t63.5 10q44 0 62 -10t18 -34v-27q0 -24 -18 -34t-62 -10q-45 0 -63.5 10zM667.5 797q-18.5 10 -18.5 34v27q0 24 18.5 34t63.5 10q44 0 62 -10t18 -34v-27q0 -24 -18 -34t-62 -10q-45 0 -63.5 10z" />
    <glyph glyph-name="Yacute" unicode="&#xdd;" horiz-adv-x="1047" 
d="M1009 694.5q8 -5.5 8 -13.5q0 -11 -14 -24l-404 -363v-259q0 -16 -9 -25.5t-26 -9.5h-83q-16 0 -25.5 9.5t-9.5 25.5v260l-402 362q-14 14 -14 24q0 8 8 13.5t22 5.5h131q28 0 44 -16l282 -255q3 -3 7.5 -2.5t6.5 2.5l281 255q19 16 44 16h131q14 0 22 -5.5zM715.5 888
q5.5 -4 5.5 -10q0 -8 -9 -17l-92 -87q-13 -13 -31 -13h-110q-10 0 -15.5 4t-5.5 10q0 9 8 17l83 87q12 13 31 13h121q9 0 14.5 -4z" />
    <glyph glyph-name="Thorn" unicode="&#xde;" horiz-adv-x="1096" 
d="M926 554q65 -34 95 -88t30 -116t-30 -116t-95 -88t-166 -34h-532v-77q0 -16 -9 -25.5t-26 -9.5h-83q-16 0 -25.5 9.5t-9.5 25.5v628q0 14 11.5 25.5t25.5 11.5h79q14 0 25.5 -11.5t11.5 -25.5v-75h532q101 0 166 -34zM865.5 273q32.5 23 32.5 77t-32.5 77t-105.5 23h-532
v-200h532q73 0 105.5 23z" />
    <glyph glyph-name="germandbls" unicode="&#xdf;" horiz-adv-x="1171" 
d="M84.5 9.5q-9.5 9.5 -9.5 25.5v317q0 131 46.5 208.5t144 112.5t257.5 35h237q163 0 232 -54.5t69 -132.5q0 -41 -20 -78t-71 -61q151 -41 151 -184q0 -92 -65.5 -145t-201.5 -53h-350q-16 0 -25.5 9.5t-9.5 26.5v55q0 17 9.5 26t25.5 9h340q129 0 129 86q0 43 -35.5 62
t-93.5 19h-330q-16 0 -25.5 9.5t-9.5 25.5v52q0 17 9.5 26.5t25.5 9.5h303q96 0 96 74q0 42 -33 63t-107 21h-250q-125 0 -191.5 -24t-91 -73t-24.5 -134v-308q0 -16 -9 -25.5t-26 -9.5h-71q-16 0 -25.5 9.5z" />
    <glyph glyph-name="agrave" unicode="&#xe0;" horiz-adv-x="791" 
d="M108.5 32.5q-63.5 39.5 -63.5 121.5q0 83 62 117.5t172 34.5h262q10 0 10 10v5q0 43 -44.5 61t-144.5 18q-63 0 -106 -5.5t-89 -14.5l-36 -7q-14 -2 -24 4.5t-10 22.5v28q0 20 6.5 31t26.5 21q30 14 89 24.5t147 10.5q170 0 246.5 -44.5t76.5 -138.5v-193q0 -18 9.5 -27
t26.5 -9h16q25 0 25 -25v-17q0 -27 -23.5 -44t-62.5 -17h-10q-105 0 -117 91q-21 -55 -81 -76.5t-128 -21.5h-65q-107 0 -170.5 39.5zM460 111q43 4 67 18t24 44v24q0 10 -10 10h-255q-50 0 -77.5 -10t-27.5 -39q0 -30 27.5 -40.5t77.5 -10.5h50q81 0 124 4zM382 687l83 -87
q8 -8 8 -17q0 -6 -5.5 -10t-15.5 -4h-110q-18 0 -31 13l-92 87q-9 9 -9 17q0 6 5.5 10t14.5 4h121q19 0 31 -13z" />
    <glyph glyph-name="aacute" unicode="&#xe1;" horiz-adv-x="791" 
d="M108.5 32.5q-63.5 39.5 -63.5 121.5q0 83 62 117.5t172 34.5h262q10 0 10 10v5q0 43 -44.5 61t-144.5 18q-63 0 -106 -5.5t-89 -14.5l-36 -7q-14 -2 -24 4.5t-10 22.5v28q0 20 6.5 31t26.5 21q30 14 89 24.5t147 10.5q170 0 246.5 -44.5t76.5 -138.5v-193q0 -18 9.5 -27
t26.5 -9h16q25 0 25 -25v-17q0 -27 -23.5 -44t-62.5 -17h-10q-105 0 -117 91q-21 -55 -81 -76.5t-128 -21.5h-65q-107 0 -170.5 39.5zM460 111q43 4 67 18t24 44v24q0 10 -10 10h-255q-50 0 -77.5 -10t-27.5 -39q0 -30 27.5 -40.5t77.5 -10.5h50q81 0 124 4zM588.5 696
q5.5 -4 5.5 -10q0 -8 -9 -17l-92 -87q-13 -13 -31 -13h-110q-10 0 -15.5 4t-5.5 10q0 9 8 17l83 87q12 13 31 13h121q9 0 14.5 -4z" />
    <glyph glyph-name="acircumflex" unicode="&#xe2;" horiz-adv-x="791" 
d="M108.5 32.5q-63.5 39.5 -63.5 121.5q0 83 62 117.5t172 34.5h262q10 0 10 10v5q0 43 -44.5 61t-144.5 18q-63 0 -106 -5.5t-89 -14.5l-36 -7q-14 -2 -24 4.5t-10 22.5v28q0 20 6.5 31t26.5 21q30 14 89 24.5t147 10.5q170 0 246.5 -44.5t76.5 -138.5v-193q0 -18 9.5 -27
t26.5 -9h16q25 0 25 -25v-17q0 -27 -23.5 -44t-62.5 -17h-10q-105 0 -117 91q-21 -55 -81 -76.5t-128 -21.5h-65q-107 0 -170.5 39.5zM460 111q43 4 67 18t24 44v24q0 10 -10 10h-255q-50 0 -77.5 -10t-27.5 -39q0 -30 27.5 -40.5t77.5 -10.5h50q81 0 124 4zM500.5 695.5
q9.5 -4.5 21.5 -18.5l59 -69q5 -7 5 -14t-5 -12t-16 -5h-65q-12 0 -21 3.5t-20 9.5l-62 45l-62 -45q-11 -6 -20 -9.5t-21 -3.5h-65q-11 0 -16 5t-5 12t5 14l59 69q12 14 21.5 18.5t22.5 4.5h162q13 0 22.5 -4.5z" />
    <glyph glyph-name="atilde" unicode="&#xe3;" horiz-adv-x="791" 
d="M108.5 32.5q-63.5 39.5 -63.5 121.5q0 83 62 117.5t172 34.5h262q10 0 10 10v5q0 43 -44.5 61t-144.5 18q-63 0 -106 -5.5t-89 -14.5l-36 -7q-14 -2 -24 4.5t-10 22.5v28q0 20 6.5 31t26.5 21q30 14 89 24.5t147 10.5q170 0 246.5 -44.5t76.5 -138.5v-193q0 -18 9.5 -27
t26.5 -9h16q25 0 25 -25v-17q0 -27 -23.5 -44t-62.5 -17h-10q-105 0 -117 91q-21 -55 -81 -76.5t-128 -21.5h-65q-107 0 -170.5 39.5zM460 111q43 4 67 18t24 44v24q0 10 -10 10h-255q-50 0 -77.5 -10t-27.5 -39q0 -30 27.5 -40.5t77.5 -10.5h50q81 0 124 4zM237 698
q16 9 31.5 11.5t34.5 2.5q25 0 46 -4.5t54 -13.5q32 -9 54 -13.5t46 -4.5q36 0 58 10l8 2q10 0 10 -12v-71q0 -12 -10 -18q-16 -9 -31.5 -11.5t-34.5 -2.5q-24 0 -46 4.5t-54 13.5q-33 9 -54 13.5t-46 4.5q-36 0 -58 -10l-8 -2q-10 0 -10 12v71q0 12 10 18z" />
    <glyph glyph-name="adieresis" unicode="&#xe4;" horiz-adv-x="791" 
d="M108.5 32.5q-63.5 39.5 -63.5 121.5q0 83 62 117.5t172 34.5h262q10 0 10 10v5q0 43 -44.5 61t-144.5 18q-63 0 -106 -5.5t-89 -14.5l-36 -7q-14 -2 -24 4.5t-10 22.5v28q0 20 6.5 31t26.5 21q30 14 89 24.5t147 10.5q170 0 246.5 -44.5t76.5 -138.5v-193q0 -18 9.5 -27
t26.5 -9h16q25 0 25 -25v-17q0 -27 -23.5 -44t-62.5 -17h-10q-105 0 -117 91q-21 -55 -81 -76.5t-128 -21.5h-65q-107 0 -170.5 39.5zM460 111q43 4 67 18t24 44v24q0 10 -10 10h-255q-50 0 -77.5 -10t-27.5 -39q0 -30 27.5 -40.5t77.5 -10.5h50q81 0 124 4zM172.5 605
q-18.5 10 -18.5 34v27q0 24 18.5 34t63.5 10q44 0 62 -10t18 -34v-27q0 -24 -18 -34t-62 -10q-45 0 -63.5 10zM496.5 605q-18.5 10 -18.5 34v27q0 24 18.5 34t63.5 10q44 0 62 -10t18 -34v-27q0 -24 -18 -34t-62 -10q-45 0 -63.5 10z" />
    <glyph glyph-name="aring" unicode="&#xe5;" horiz-adv-x="791" 
d="M108.5 32.5q-63.5 39.5 -63.5 121.5q0 83 62 117.5t172 34.5h262q10 0 10 10v5q0 43 -44.5 61t-144.5 18q-63 0 -106 -5.5t-89 -14.5l-36 -7q-14 -2 -24 4.5t-10 22.5v28q0 20 6.5 31t26.5 21q30 14 89 24.5t147 10.5q170 0 246.5 -44.5t76.5 -138.5v-193q0 -18 9.5 -27
t26.5 -9h16q25 0 25 -25v-17q0 -27 -23.5 -44t-62.5 -17h-10q-105 0 -117 91q-21 -55 -81 -76.5t-128 -21.5h-65q-107 0 -170.5 39.5zM460 111q43 4 67 18t24 44v24q0 10 -10 10h-255q-50 0 -77.5 -10t-27.5 -39q0 -30 27.5 -40.5t77.5 -10.5h50q81 0 124 4zM493 709
q30 -20 30 -64t-30 -64t-88 -20h-16q-58 0 -87.5 20t-29.5 64t29.5 64t87.5 20h16q58 0 88 -20zM431.5 627.5q7.5 4.5 7.5 17.5t-7.5 17.5t-29.5 4.5h-9q-23 0 -30.5 -4.5t-7.5 -17.5t7.5 -17.5t30.5 -4.5h9q22 0 29.5 4.5z" />
    <glyph glyph-name="ae" unicode="&#xe6;" horiz-adv-x="1298" 
d="M1252.5 236q-5.5 -14 -20 -20t-43.5 -6h-489q16 -57 72 -79t155 -22q66 0 119.5 9t105.5 28q8 2 13 2q19 0 27 -14l14 -28q6 -14 6 -21q0 -17 -14 -25q-93 -67 -281 -67q-197 0 -288 77q-65 -76 -271 -76h-79q-107 0 -170.5 39t-63.5 121q0 83 62 117.5t172 34.5h275v15
q0 43 -49 61t-145 18q-62 0 -104.5 -5.5t-88.5 -14.5l-36 -7q-14 -2 -24 4.5t-10 22.5v28q0 20 6.5 31t26.5 21q30 14 89 24.5t145 10.5q104 0 167.5 -19t93.5 -57q86 77 281 77q184 0 268 -65t84 -174q0 -27 -5.5 -41zM756 375.5q-49 -22.5 -59 -75.5h427q-12 54 -61 76
t-153 22q-105 0 -154 -22.5zM461 111.5q43 3.5 68 17.5t25 44v34h-268q-50 0 -77.5 -10t-27.5 -39q0 -30 27.5 -40t77.5 -10h50q82 0 125 3.5z" />
    <glyph glyph-name="ccedilla" unicode="&#xe7;" horiz-adv-x="731" 
d="M684 110q11 -11 11 -21q0 -7 -7 -14q-77 -66 -225 -79l-26 -38q76 -3 119 -28.5t43 -84.5q0 -77 -67 -103.5t-181 -26.5q-70 0 -103 8q-13 3 -13 17v73q0 14 16 14q72 -3 103 -3q65 0 88 8t23 24t-29.5 25t-120.5 9q-9 0 -14 4.5t-1 10.5l53 89q-313 14 -313 261
q0 261 353 261q199 0 295 -82q7 -7 7 -14q0 -10 -11 -21l-31 -35q-12 -13 -28 -13q-9 0 -21 5q-50 23 -94.5 32.5t-103.5 9.5q-116 0 -169.5 -31.5t-53.5 -111.5t53.5 -112t169.5 -32q59 0 103.5 9.5t94.5 32.5q12 5 21 5q16 0 28 -13z" />
    <glyph glyph-name="egrave" unicode="&#xe8;" horiz-adv-x="787" 
d="M741.5 236q-5.5 -14 -20 -20t-43.5 -6h-489q16 -57 72 -79t155 -22q66 0 119.5 9t105.5 28q8 2 13 2q19 0 27 -14l14 -28q6 -14 6 -21q0 -17 -14 -25q-93 -67 -281 -67q-187 0 -276.5 67.5t-89.5 194.5t85.5 194t269.5 67t268 -65t84 -174q0 -27 -5.5 -41zM245 375.5
q-49 -22.5 -59 -75.5h427q-12 54 -61 76t-153 22q-105 0 -154 -22.5zM382 688l83 -87q8 -8 8 -17q0 -6 -5.5 -10t-15.5 -4h-110q-18 0 -31 13l-92 87q-9 9 -9 17q0 6 5.5 10t14.5 4h121q19 0 31 -13z" />
    <glyph glyph-name="eacute" unicode="&#xe9;" horiz-adv-x="787" 
d="M741.5 236q-5.5 -14 -20 -20t-43.5 -6h-489q16 -57 72 -79t155 -22q66 0 119.5 9t105.5 28q8 2 13 2q19 0 27 -14l14 -28q6 -14 6 -21q0 -17 -14 -25q-93 -67 -281 -67q-187 0 -276.5 67.5t-89.5 194.5t85.5 194t269.5 67t268 -65t84 -174q0 -27 -5.5 -41zM245 375.5
q-49 -22.5 -59 -75.5h427q-12 54 -61 76t-153 22q-105 0 -154 -22.5zM588.5 697q5.5 -4 5.5 -10q0 -8 -9 -17l-92 -87q-13 -13 -31 -13h-110q-10 0 -15.5 4t-5.5 10q0 9 8 17l83 87q12 13 31 13h121q9 0 14.5 -4z" />
    <glyph glyph-name="ecircumflex" unicode="&#xea;" horiz-adv-x="787" 
d="M741.5 236q-5.5 -14 -20 -20t-43.5 -6h-489q16 -57 72 -79t155 -22q66 0 119.5 9t105.5 28q8 2 13 2q19 0 27 -14l14 -28q6 -14 6 -21q0 -17 -14 -25q-93 -67 -281 -67q-187 0 -276.5 67.5t-89.5 194.5t85.5 194t269.5 67t268 -65t84 -174q0 -27 -5.5 -41zM245 375.5
q-49 -22.5 -59 -75.5h427q-12 54 -61 76t-153 22q-105 0 -154 -22.5zM501.5 696.5q9.5 -4.5 21.5 -18.5l59 -69q5 -7 5 -14t-5 -12t-16 -5h-65q-12 0 -21 3.5t-20 9.5l-62 45l-62 -45q-11 -6 -20 -9.5t-21 -3.5h-65q-11 0 -16 5t-5 12t5 14l59 69q12 14 21.5 18.5t22.5 4.5
h162q13 0 22.5 -4.5z" />
    <glyph glyph-name="edieresis" unicode="&#xeb;" horiz-adv-x="787" 
d="M741.5 236q-5.5 -14 -20 -20t-43.5 -6h-489q16 -57 72 -79t155 -22q66 0 119.5 9t105.5 28q8 2 13 2q19 0 27 -14l14 -28q6 -14 6 -21q0 -17 -14 -25q-93 -67 -281 -67q-187 0 -276.5 67.5t-89.5 194.5t85.5 194t269.5 67t268 -65t84 -174q0 -27 -5.5 -41zM245 375.5
q-49 -22.5 -59 -75.5h427q-12 54 -61 76t-153 22q-105 0 -154 -22.5zM173.5 606q-18.5 10 -18.5 34v27q0 24 18.5 34t63.5 10q44 0 62 -10t18 -34v-27q0 -24 -18 -34t-62 -10q-45 0 -63.5 10zM497.5 606q-18.5 10 -18.5 34v27q0 24 18.5 34t63.5 10q44 0 62 -10t18 -34v-27
q0 -24 -18 -34t-62 -10q-45 0 -63.5 10z" />
    <glyph glyph-name="igrave" unicode="&#xec;" horiz-adv-x="261" 
d="M201 483v-458q0 -25 -25 -25h-91q-25 0 -25 25v458q0 25 25 25h91q25 0 25 -25zM116 687l83 -87q8 -8 8 -17q0 -6 -5.5 -10t-15.5 -4h-110q-18 0 -31 13l-92 87q-9 9 -9 17q0 6 5.5 10t14.5 4h121q19 0 31 -13z" />
    <glyph glyph-name="iacute" unicode="&#xed;" horiz-adv-x="261" 
d="M201 483v-458q0 -25 -25 -25h-91q-25 0 -25 25v458q0 25 25 25h91q25 0 25 -25zM322.5 696q5.5 -4 5.5 -10q0 -8 -9 -17l-92 -87q-13 -13 -31 -13h-110q-10 0 -15.5 4t-5.5 10q0 9 8 17l83 87q12 13 31 13h121q9 0 14.5 -4z" />
    <glyph glyph-name="icircumflex" unicode="&#xee;" horiz-adv-x="261" 
d="M201 483v-458q0 -25 -25 -25h-91q-25 0 -25 25v458q0 25 25 25h91q25 0 25 -25zM234.5 695.5q9.5 -4.5 21.5 -18.5l59 -69q5 -7 5 -14t-5 -12t-16 -5h-65q-12 0 -21 3.5t-20 9.5l-62 45l-62 -45q-11 -6 -20 -9.5t-21 -3.5h-65q-11 0 -16 5t-5 12t5 14l59 69
q12 14 21.5 18.5t22.5 4.5h162q13 0 22.5 -4.5z" />
    <glyph glyph-name="idieresis" unicode="&#xef;" horiz-adv-x="261" 
d="M201 483v-458q0 -25 -25 -25h-91q-25 0 -25 25v458q0 25 25 25h91q25 0 25 -25zM-93.5 605q-18.5 10 -18.5 34v27q0 24 18.5 34t63.5 10q44 0 62 -10t18 -34v-27q0 -24 -18 -34t-62 -10q-45 0 -63.5 10zM230.5 605q-18.5 10 -18.5 34v27q0 24 18.5 34t63.5 10
q44 0 62 -10t18 -34v-27q0 -24 -18 -34t-62 -10q-45 0 -63.5 10z" />
    <glyph glyph-name="eth" unicode="&#xf0;" horiz-adv-x="829" 
d="M819 599v-23q0 -25 -25 -25h-30v-526q0 -25 -25 -25h-91q-25 0 -25 25v46q-26 -39 -84.5 -58.5t-161.5 -19.5q-128 0 -201.5 30t-104 87t-31.5 145q-1 87 30 144t105 87t202 30q102 0 160.5 -19t85.5 -57v111h-220q-25 0 -25 25v23q0 25 25 25h220v51q0 25 25 25h91
q25 0 25 -25v-51h30q25 0 25 -25zM536.5 123.5q47.5 12.5 71 44t23.5 87.5t-23.5 87t-71 43.5t-128.5 12.5t-129.5 -12.5t-72 -43.5t-23.5 -87t23.5 -87.5t72 -44t129.5 -12.5t128.5 12.5z" />
    <glyph glyph-name="ntilde" unicode="&#xf1;" 
d="M689 452.5q66 -62.5 66 -189.5v-238q0 -25 -25 -25h-92q-25 0 -25 25v238q0 75 -47.5 105t-156.5 30q-110 0 -159 -30.5t-49 -104.5v-238q0 -25 -25 -25h-91q-25 0 -25 25v458q0 25 25 25h91q25 0 25 -25v-66q0 -6 4 -7t7 3q25 47 87.5 74.5t168.5 27.5q155 0 221 -62.5z
M244 698q16 9 31.5 11.5t34.5 2.5q25 0 46 -4.5t54 -13.5q32 -9 54 -13.5t46 -4.5q36 0 58 10l8 2q10 0 10 -12v-71q0 -12 -10 -18q-16 -9 -31.5 -11.5t-34.5 -2.5q-24 0 -46 4.5t-54 13.5q-33 9 -54 13.5t-46 4.5q-36 0 -58 -10l-8 -2q-10 0 -10 12v71q0 12 10 18z" />
    <glyph glyph-name="ograve" unicode="&#xf2;" horiz-adv-x="801" 
d="M126 60q-86 67 -86 195q0 127 86 194t274 67q189 0 275.5 -67t85.5 -194q-1 -128 -86.5 -195t-274.5 -67q-188 0 -274 67zM567.5 143.5q50.5 32.5 50.5 111.5t-50.5 111t-167.5 32q-116 0 -166.5 -32t-50.5 -111t50.5 -111.5t166.5 -32.5q117 0 167.5 32.5zM385 688
l83 -87q8 -8 8 -17q0 -6 -5.5 -10t-15.5 -4h-110q-18 0 -31 13l-92 87q-9 9 -9 17q0 6 5.5 10t14.5 4h121q19 0 31 -13z" />
    <glyph glyph-name="oacute" unicode="&#xf3;" horiz-adv-x="801" 
d="M126 60q-86 67 -86 195q0 127 86 194t274 67q189 0 275.5 -67t85.5 -194q-1 -128 -86.5 -195t-274.5 -67q-188 0 -274 67zM567.5 143.5q50.5 32.5 50.5 111.5t-50.5 111t-167.5 32q-116 0 -166.5 -32t-50.5 -111t50.5 -111.5t166.5 -32.5q117 0 167.5 32.5zM591.5 697
q5.5 -4 5.5 -10q0 -8 -9 -17l-92 -87q-13 -13 -31 -13h-110q-10 0 -15.5 4t-5.5 10q0 9 8 17l83 87q12 13 31 13h121q9 0 14.5 -4z" />
    <glyph glyph-name="ocircumflex" unicode="&#xf4;" horiz-adv-x="801" 
d="M126 60q-86 67 -86 195q0 127 86 194t274 67q189 0 275.5 -67t85.5 -194q-1 -128 -86.5 -195t-274.5 -67q-188 0 -274 67zM567.5 143.5q50.5 32.5 50.5 111.5t-50.5 111t-167.5 32q-116 0 -166.5 -32t-50.5 -111t50.5 -111.5t166.5 -32.5q117 0 167.5 32.5zM503.5 696.5
q9.5 -4.5 21.5 -18.5l59 -69q5 -7 5 -14t-5 -12t-16 -5h-65q-12 0 -21 3.5t-20 9.5l-62 45l-62 -45q-11 -6 -20 -9.5t-21 -3.5h-65q-11 0 -16 5t-5 12t5 14l59 69q12 14 21.5 18.5t22.5 4.5h162q13 0 22.5 -4.5z" />
    <glyph glyph-name="otilde" unicode="&#xf5;" horiz-adv-x="801" 
d="M126 60q-86 67 -86 195q0 127 86 194t274 67q189 0 275.5 -67t85.5 -194q-1 -128 -86.5 -195t-274.5 -67q-188 0 -274 67zM567.5 143.5q50.5 32.5 50.5 111.5t-50.5 111t-167.5 32q-116 0 -166.5 -32t-50.5 -111t50.5 -111.5t166.5 -32.5q117 0 167.5 32.5zM240 699
q16 9 31.5 11.5t34.5 2.5q25 0 46 -4.5t54 -13.5q32 -9 54 -13.5t46 -4.5q36 0 58 10l8 2q10 0 10 -12v-71q0 -12 -10 -18q-16 -9 -31.5 -11.5t-34.5 -2.5q-24 0 -46 4.5t-54 13.5q-33 9 -54 13.5t-46 4.5q-36 0 -58 -10l-8 -2q-10 0 -10 12v71q0 12 10 18z" />
    <glyph glyph-name="odieresis" unicode="&#xf6;" horiz-adv-x="801" 
d="M126 60q-86 67 -86 195q0 127 86 194t274 67q189 0 275.5 -67t85.5 -194q-1 -128 -86.5 -195t-274.5 -67q-188 0 -274 67zM567.5 143.5q50.5 32.5 50.5 111.5t-50.5 111t-167.5 32q-116 0 -166.5 -32t-50.5 -111t50.5 -111.5t166.5 -32.5q117 0 167.5 32.5zM175.5 606
q-18.5 10 -18.5 34v27q0 24 18.5 34t63.5 10q44 0 62 -10t18 -34v-27q0 -24 -18 -34t-62 -10q-45 0 -63.5 10zM499.5 606q-18.5 10 -18.5 34v27q0 24 18.5 34t63.5 10q44 0 62 -10t18 -34v-27q0 -24 -18 -34t-62 -10q-45 0 -63.5 10z" />
    <glyph glyph-name="divide" unicode="&#xf7;" horiz-adv-x="696" 
d="M291 364q-20 12 -20 39v32q0 28 20 40t69 12q48 0 68 -12t20 -40v-32q0 -27 -20.5 -39t-67.5 -12q-49 0 -69 12zM60 317q10 9 28 9h519q18 0 28 -9t10 -26v-76q0 -17 -10 -26t-28 -9h-519q-18 0 -28 9t-10 26v76q0 17 10 26zM291 -4q-20 12 -20 39v32q0 28 20 40t69 12
q48 0 68 -12t20 -40v-32q0 -27 -20.5 -39t-67.5 -12q-49 0 -69 12z" />
    <glyph glyph-name="oslash" unicode="&#xf8;" horiz-adv-x="801" 
d="M761 259q0 -130 -85.5 -198t-275.5 -68q-44 0 -91 5l-51 -74q-15 -22 -42 -22h-93q-15 0 -23 5.5t-8 15.5q0 8 8 21l64 93q-124 61 -124 218q0 127 86 194t274 67q45 0 93 -5l51 74q16 22 42 22h92q15 0 23 -5.5t8 -15.5q0 -8 -8 -21l-64 -93q124 -61 124 -213zM196 186
q13 -28 41 -45l177 257h-14q-116 0 -166.5 -32t-50.5 -111q0 -41 13 -69zM567.5 143.5q50.5 32.5 50.5 111.5t-53 113l-178 -257h13q117 0 167.5 32.5z" />
    <glyph glyph-name="ugrave" unicode="&#xf9;" 
d="M121 55.5q-66 62.5 -66 189.5v238q0 25 25 25h91q25 0 25 -25v-238q0 -74 48 -104.5t157 -30.5q110 0 158.5 30.5t48.5 104.5v238q0 25 25 25h92q25 0 25 -25v-458q0 -25 -25 -25h-92q-25 0 -25 25v66q0 6 -3.5 7t-6.5 -3q-57 -102 -256 -102q-155 0 -221 62.5zM389 687
l83 -87q8 -8 8 -17q0 -6 -5.5 -10t-15.5 -4h-110q-18 0 -31 13l-92 87q-9 9 -9 17q0 6 5.5 10t14.5 4h121q19 0 31 -13z" />
    <glyph glyph-name="uacute" unicode="&#xfa;" 
d="M121 55.5q-66 62.5 -66 189.5v238q0 25 25 25h91q25 0 25 -25v-238q0 -74 48 -104.5t157 -30.5q110 0 158.5 30.5t48.5 104.5v238q0 25 25 25h92q25 0 25 -25v-458q0 -25 -25 -25h-92q-25 0 -25 25v66q0 6 -3.5 7t-6.5 -3q-57 -102 -256 -102q-155 0 -221 62.5z
M595.5 696q5.5 -4 5.5 -10q0 -8 -9 -17l-92 -87q-13 -13 -31 -13h-110q-10 0 -15.5 4t-5.5 10q0 9 8 17l83 87q12 13 31 13h121q9 0 14.5 -4z" />
    <glyph glyph-name="ucircumflex" unicode="&#xfb;" 
d="M121 55.5q-66 62.5 -66 189.5v238q0 25 25 25h91q25 0 25 -25v-238q0 -74 48 -104.5t157 -30.5q110 0 158.5 30.5t48.5 104.5v238q0 25 25 25h92q25 0 25 -25v-458q0 -25 -25 -25h-92q-25 0 -25 25v66q0 6 -3.5 7t-6.5 -3q-57 -102 -256 -102q-155 0 -221 62.5z
M508.5 695.5q9.5 -4.5 21.5 -18.5l59 -69q5 -7 5 -14t-5 -12t-16 -5h-65q-12 0 -21 3.5t-20 9.5l-62 45l-62 -45q-11 -6 -20 -9.5t-21 -3.5h-65q-11 0 -16 5t-5 12t5 14l59 69q12 14 21.5 18.5t22.5 4.5h162q13 0 22.5 -4.5z" />
    <glyph glyph-name="udieresis" unicode="&#xfc;" 
d="M121 55.5q-66 62.5 -66 189.5v238q0 25 25 25h91q25 0 25 -25v-238q0 -74 48 -104.5t157 -30.5q110 0 158.5 30.5t48.5 104.5v238q0 25 25 25h92q25 0 25 -25v-458q0 -25 -25 -25h-92q-25 0 -25 25v66q0 6 -3.5 7t-6.5 -3q-57 -102 -256 -102q-155 0 -221 62.5z
M180.5 605q-18.5 10 -18.5 34v27q0 24 18.5 34t63.5 10q44 0 62 -10t18 -34v-27q0 -24 -18 -34t-62 -10q-45 0 -63.5 10zM504.5 605q-18.5 10 -18.5 34v27q0 24 18.5 34t63.5 10q44 0 62 -10t18 -34v-27q0 -24 -18 -34t-62 -10q-45 0 -63.5 10z" />
    <glyph glyph-name="yacute" unicode="&#xfd;" horiz-adv-x="863" 
d="M837 492q0 -8 -5 -14l-324 -456q-6 -8 -10 -11l-132 -185q-12 -16 -30 -16h-97q-22 0 -22 14q0 7 6 16l130 185l-322 453q-5 6 -5 14q0 16 22 16h109q18 0 30 -17l237 -340q3 -4 7 -4t7 4l238 340q12 17 30 17h109q22 0 22 -16zM622.5 696q5.5 -4 5.5 -10q0 -8 -9 -17
l-92 -87q-13 -13 -31 -13h-110q-10 0 -15.5 4t-5.5 10q0 9 8 17l83 87q12 13 31 13h121q9 0 14.5 -4z" />
    <glyph glyph-name="thorn" unicode="&#xfe;" horiz-adv-x="824" 
d="M784 254q1 -87 -30 -144t-105 -87t-202 -30q-102 0 -160.5 19t-85.5 57v-235q0 -25 -25 -25h-91q-25 0 -25 25v841q0 25 25 25h91q25 0 25 -25v-235q27 38 85.5 57t160.5 19q128 0 202 -30t105 -87t30 -144v-1zM545.5 123.5q48.5 12.5 72 44t23.5 87.5t-23.5 87t-72 43.5
t-129.5 12.5t-129 -12.5t-71 -43.5t-23 -87t23 -87.5t71 -44t129 -12.5t129.5 12.5z" />
    <glyph glyph-name="ydieresis" unicode="&#xff;" horiz-adv-x="863" 
d="M837 492q0 -8 -5 -14l-324 -456q-6 -8 -10 -11l-132 -185q-12 -16 -30 -16h-97q-22 0 -22 14q0 7 6 16l130 185l-322 453q-5 6 -5 14q0 16 22 16h109q18 0 30 -17l237 -340q3 -4 7 -4t7 4l238 340q12 17 30 17h109q22 0 22 -16zM206.5 605q-18.5 10 -18.5 34v27
q0 24 18.5 34t63.5 10q44 0 62 -10t18 -34v-27q0 -24 -18 -34t-62 -10q-45 0 -63.5 10zM530.5 605q-18.5 10 -18.5 34v27q0 24 18.5 34t63.5 10q44 0 62 -10t18 -34v-27q0 -24 -18 -34t-62 -10q-45 0 -63.5 10z" />
    <glyph glyph-name="Amacron" unicode="&#x100;" horiz-adv-x="1186" 
d="M1156 21q0 -9 -8 -15t-22 -6h-109q-27 0 -42 22l-87 123h-590l-87 -123q-15 -22 -42 -22h-109q-14 0 -22 6t-8 15q0 10 8 21l459 638q9 12 19.5 17t24.5 5h104q14 0 24.5 -5t19.5 -17l459 -638q8 -11 8 -21zM386 270h414l-207 292zM382 892h421q25 0 25 -25v-39
q0 -25 -25 -25h-421q-25 0 -25 25v39q0 25 25 25z" />
    <glyph glyph-name="amacron" unicode="&#x101;" horiz-adv-x="791" 
d="M108.5 32.5q-63.5 39.5 -63.5 121.5q0 83 62 117.5t172 34.5h262q10 0 10 10v5q0 43 -44.5 61t-144.5 18q-63 0 -106 -5.5t-89 -14.5l-36 -7q-14 -2 -24 4.5t-10 22.5v28q0 20 6.5 31t26.5 21q30 14 89 24.5t147 10.5q170 0 246.5 -44.5t76.5 -138.5v-193q0 -18 9.5 -27
t26.5 -9h16q25 0 25 -25v-17q0 -27 -23.5 -44t-62.5 -17h-10q-105 0 -117 91q-21 -55 -81 -76.5t-128 -21.5h-65q-107 0 -170.5 39.5zM460 111q43 4 67 18t24 44v24q0 10 -10 10h-255q-50 0 -77.5 -10t-27.5 -39q0 -30 27.5 -40.5t77.5 -10.5h50q81 0 124 4zM186 700h421
q25 0 25 -25v-39q0 -25 -25 -25h-421q-25 0 -25 25v39q0 25 25 25z" />
    <glyph glyph-name="Abreve" unicode="&#x102;" horiz-adv-x="1186" 
d="M1156 21q0 -9 -8 -15t-22 -6h-109q-27 0 -42 22l-87 123h-590l-87 -123q-15 -22 -42 -22h-109q-14 0 -22 6t-8 15q0 10 8 21l459 638q9 12 19.5 17t24.5 5h104q14 0 24.5 -5t19.5 -17l459 -638q8 -11 8 -21zM386 270h414l-207 292zM767 867q-2 -57 -39.5 -85t-134.5 -28
t-135 28t-40 85q0 25 24 25h45q21 0 26 -24q5 -21 24 -29.5t56 -8.5t55.5 8.5t23.5 29.5q5 24 26 24h45q24 0 24 -25z" />
    <glyph glyph-name="abreve" unicode="&#x103;" horiz-adv-x="791" 
d="M108.5 32.5q-63.5 39.5 -63.5 121.5q0 83 62 117.5t172 34.5h262q10 0 10 10v5q0 43 -44.5 61t-144.5 18q-63 0 -106 -5.5t-89 -14.5l-36 -7q-14 -2 -24 4.5t-10 22.5v28q0 20 6.5 31t26.5 21q30 14 89 24.5t147 10.5q170 0 246.5 -44.5t76.5 -138.5v-193q0 -18 9.5 -27
t26.5 -9h16q25 0 25 -25v-17q0 -27 -23.5 -44t-62.5 -17h-10q-105 0 -117 91q-21 -55 -81 -76.5t-128 -21.5h-65q-107 0 -170.5 39.5zM460 111q43 4 67 18t24 44v24q0 10 -10 10h-255q-50 0 -77.5 -10t-27.5 -39q0 -30 27.5 -40.5t77.5 -10.5h50q81 0 124 4zM572 675
q-2 -57 -39.5 -85t-134.5 -28t-135 28t-40 85q0 25 24 25h45q21 0 26 -24q5 -21 24 -29.5t56 -8.5t55.5 8.5t23.5 29.5q5 24 26 24h45q24 0 24 -25z" />
    <glyph glyph-name="Aogonek" unicode="&#x104;" horiz-adv-x="1186" 
d="M1156 21q0 -9 -8 -15t-22 -6h-109q-72 0 -101 -11.5t-29 -32.5q0 -20 27 -30.5t95 -10.5q45 0 93 4h2q14 0 14 -14v-86q0 -14 -13 -17q-37 -9 -101 -9q-106 0 -185 31t-79 103q0 60 58.5 86t163.5 28l-74 104h-590l-87 -123q-15 -22 -42 -22h-109q-14 0 -22 6t-8 15
q0 10 8 21l459 638q9 12 19.5 17t24.5 5h104q14 0 24.5 -5t19.5 -17l459 -638q8 -11 8 -21zM386 270h414l-207 292z" />
    <glyph glyph-name="aogonek" unicode="&#x105;" horiz-adv-x="791" 
d="M767 -81q14 0 14 -14v-86q0 -14 -13 -17q-37 -9 -101 -9q-106 0 -185 31t-79 103q0 52 47 80q-47 -14 -106 -14h-65q-107 0 -170.5 39.5t-63.5 121.5q0 83 62 117.5t172 34.5h262q10 0 10 10v5q0 43 -44.5 61t-144.5 18q-63 0 -106 -5.5t-89 -14.5l-36 -7q-14 -2 -24 4.5
t-10 22.5v28q0 20 6.5 31t26.5 21q30 14 89 24.5t147 10.5q170 0 246.5 -44.5t76.5 -138.5v-193q0 -18 9.5 -27t26.5 -9h16q25 0 25 -25v-17q0 -27 -23.5 -44t-62.5 -17q-72 0 -101 -11.5t-29 -32.5q0 -20 27 -30.5t95 -10.5q45 0 93 4h2zM460 111q43 4 67 18t24 44v24
q0 10 -10 10h-255q-50 0 -77.5 -10t-27.5 -39q0 -30 27.5 -40.5t77.5 -10.5h50q81 0 124 4zM494 25q32 10 79 13q-15 20 -20 53q-15 -41 -59 -66z" />
    <glyph glyph-name="Cacute" unicode="&#x106;" horiz-adv-x="1109" 
d="M292 24q-121 36 -181.5 115.5t-60.5 210.5t60.5 210.5t181.5 115.5t310 36q175 0 283.5 -24.5t154.5 -54.5q17 -11 17 -24q0 -8 -9 -24l-33 -59q-7 -13 -22 -13q-8 0 -26 6q-61 21 -143.5 35.5t-216.5 14.5q-151 0 -238.5 -24t-124 -71.5t-36.5 -123.5q0 -74 35 -122
t117.5 -72.5t224.5 -24.5q146 0 234.5 14.5t149.5 35.5q13 5 24 5q17 0 24 -12q22 -37 32 -56t10 -27q0 -12 -17 -24q-46 -30 -155 -54.5t-285 -24.5q-189 0 -310 36zM788.5 888q5.5 -4 5.5 -10q0 -8 -9 -17l-92 -87q-13 -13 -31 -13h-110q-10 0 -15.5 4t-5.5 10q0 9 8 17
l83 87q12 13 31 13h121q9 0 14.5 -4z" />
    <glyph glyph-name="cacute" unicode="&#x107;" horiz-adv-x="731" 
d="M695 89q0 -7 -7 -14q-96 -82 -295 -82q-353 0 -353 262q0 261 353 261q199 0 295 -82q7 -7 7 -14q0 -10 -11 -21l-31 -35q-12 -13 -28 -13q-9 0 -21 5q-50 23 -94.5 32.5t-103.5 9.5q-116 0 -169.5 -31.5t-53.5 -111.5t53.5 -112t169.5 -32q59 0 103.5 9.5t94.5 32.5
q12 5 21 5q16 0 28 -13l31 -35q11 -11 11 -21zM581.5 697q5.5 -4 5.5 -10q0 -8 -9 -17l-92 -87q-13 -13 -31 -13h-110q-10 0 -15.5 4t-5.5 10q0 9 8 17l83 87q12 13 31 13h121q9 0 14.5 -4z" />
    <glyph glyph-name="Cdotaccent" unicode="&#x10a;" horiz-adv-x="1109" 
d="M292 24q-121 36 -181.5 115.5t-60.5 210.5t60.5 210.5t181.5 115.5t310 36q175 0 283.5 -24.5t154.5 -54.5q17 -11 17 -24q0 -8 -9 -24l-33 -59q-7 -13 -22 -13q-8 0 -26 6q-61 21 -143.5 35.5t-216.5 14.5q-151 0 -238.5 -24t-124 -71.5t-36.5 -123.5q0 -74 35 -122
t117.5 -72.5t224.5 -24.5q146 0 234.5 14.5t149.5 35.5q13 5 24 5q17 0 24 -12q22 -37 32 -56t10 -27q0 -12 -17 -24q-46 -30 -155 -54.5t-285 -24.5q-189 0 -310 36zM535.5 797q-18.5 10 -18.5 34v27q0 24 18.5 34t63.5 10q44 0 62 -10t18 -34v-27q0 -24 -18 -34t-62 -10
q-45 0 -63.5 10z" />
    <glyph glyph-name="cdotaccent" unicode="&#x10b;" horiz-adv-x="731" 
d="M695 89q0 -7 -7 -14q-96 -82 -295 -82q-353 0 -353 262q0 261 353 261q199 0 295 -82q7 -7 7 -14q0 -10 -11 -21l-31 -35q-12 -13 -28 -13q-9 0 -21 5q-50 23 -94.5 32.5t-103.5 9.5q-116 0 -169.5 -31.5t-53.5 -111.5t53.5 -112t169.5 -32q59 0 103.5 9.5t94.5 32.5
q12 5 21 5q16 0 28 -13l31 -35q11 -11 11 -21zM327.5 606q-18.5 10 -18.5 34v27q0 24 18.5 34t63.5 10q44 0 62 -10t18 -34v-27q0 -24 -18 -34t-62 -10q-45 0 -63.5 10z" />
    <glyph glyph-name="Ccaron" unicode="&#x10c;" horiz-adv-x="1109" 
d="M292 24q-121 36 -181.5 115.5t-60.5 210.5t60.5 210.5t181.5 115.5t310 36q175 0 283.5 -24.5t154.5 -54.5q17 -11 17 -24q0 -8 -9 -24l-33 -59q-7 -13 -22 -13q-8 0 -26 6q-61 21 -143.5 35.5t-216.5 14.5q-151 0 -238.5 -24t-124 -71.5t-36.5 -123.5q0 -74 35 -122
t117.5 -72.5t224.5 -24.5q146 0 234.5 14.5t149.5 35.5q13 5 24 5q17 0 24 -12q22 -37 32 -56t10 -27q0 -12 -17 -24q-46 -30 -155 -54.5t-285 -24.5q-189 0 -310 36zM493 769q-13 0 -22.5 4.5t-21.5 18.5l-59 69q-5 7 -5 14t5 12t16 5h65q12 0 21 -3.5t20 -9.5l62 -45
l62 45q11 6 20 9.5t21 3.5h65q11 0 16 -5t5 -12t-5 -14l-59 -69q-12 -14 -21.5 -18.5t-22.5 -4.5h-162z" />
    <glyph glyph-name="ccaron" unicode="&#x10d;" horiz-adv-x="731" 
d="M695 89q0 -7 -7 -14q-96 -82 -295 -82q-353 0 -353 262q0 261 353 261q199 0 295 -82q7 -7 7 -14q0 -10 -11 -21l-31 -35q-12 -13 -28 -13q-9 0 -21 5q-50 23 -94.5 32.5t-103.5 9.5q-116 0 -169.5 -31.5t-53.5 -111.5t53.5 -112t169.5 -32q59 0 103.5 9.5t94.5 32.5
q12 5 21 5q16 0 28 -13l31 -35q11 -11 11 -21zM285 578q-13 0 -22.5 4.5t-21.5 18.5l-59 69q-5 7 -5 14t5 12t16 5h65q12 0 21 -3.5t20 -9.5l62 -45l62 45q11 6 20 9.5t21 3.5h65q11 0 16 -5t5 -12t-5 -14l-59 -69q-12 -14 -21.5 -18.5t-22.5 -4.5h-162z" />
    <glyph glyph-name="Dcaron" unicode="&#x10e;" horiz-adv-x="1116" 
d="M84.5 9.5q-9.5 9.5 -9.5 25.5v630q0 17 9.5 26t25.5 9h469q175 0 281.5 -36t156 -112.5t49.5 -201.5q0 -126 -49 -202.5t-155.5 -112t-282.5 -35.5h-469q-16 0 -25.5 9.5zM782 171q75 23 101 65.5t26 113.5t-26 113.5t-101 65.5t-221 23h-323q-10 0 -10 -10v-384
q0 -10 10 -10h323q146 0 221 23zM438 769q-13 0 -22.5 4.5t-21.5 18.5l-59 69q-5 7 -5 14t5 12t16 5h65q12 0 21 -3.5t20 -9.5l62 -45l62 45q11 6 20 9.5t21 3.5h65q11 0 16 -5t5 -12t-5 -14l-59 -69q-12 -14 -21.5 -18.5t-22.5 -4.5h-162z" />
    <glyph glyph-name="dcaron" unicode="&#x10f;" horiz-adv-x="967" 
d="M764 675v-650q0 -25 -25 -25h-91q-25 0 -25 25v46q-26 -39 -84.5 -58.5t-161.5 -19.5q-128 0 -201.5 30t-104 87t-31.5 145q-1 87 30 144t105 87t202 30q102 0 160.5 -19t85.5 -57v235q0 25 25 25h91q25 0 25 -25zM536.5 123.5q47.5 12.5 71 44t23.5 87.5t-23.5 87
t-71 43.5t-128.5 12.5t-129.5 -12.5t-72 -43.5t-23.5 -87t23.5 -87.5t72 -44t129.5 -12.5t128.5 12.5zM846 479q-13 0 -21.5 9t-8.5 24v193q0 25 25 25h91q25 0 25 -25v-151q0 -15 -7.5 -25t-22.5 -17l-62 -29q-9 -4 -19 -4z" />
    <glyph glyph-name="Dcroat" unicode="&#x110;" horiz-adv-x="1149" 
d="M893.5 664q106.5 -36 156 -112.5t49.5 -201.5q0 -126 -49 -202.5t-155.5 -112t-282.5 -35.5h-469q-16 0 -25.5 9.5t-9.5 25.5v245h-33q-16 0 -25.5 9.5t-9.5 25.5v76q0 17 9.5 26t25.5 9h33v239q0 17 9.5 26t25.5 9h469q175 0 281.5 -36zM815 171q75 23 101 65.5
t26 113.5t-26 113.5t-101 65.5t-221 23h-323q-10 0 -10 -10v-116h294q17 0 26 -9t9 -26v-76q0 -16 -9 -25.5t-26 -9.5h-294v-122q0 -10 10 -10h323q146 0 221 23z" />
    <glyph glyph-name="dcroat" unicode="&#x111;" horiz-adv-x="829" 
d="M819 599v-23q0 -25 -25 -25h-30v-526q0 -25 -25 -25h-91q-25 0 -25 25v46q-26 -39 -84.5 -58.5t-161.5 -19.5q-128 0 -201.5 30t-104 87t-31.5 145q-1 87 30 144t105 87t202 30q102 0 160.5 -19t85.5 -57v111h-220q-25 0 -25 25v23q0 25 25 25h220v51q0 25 25 25h91
q25 0 25 -25v-51h30q25 0 25 -25zM536.5 123.5q47.5 12.5 71 44t23.5 87.5t-23.5 87t-71 43.5t-128.5 12.5t-129.5 -12.5t-72 -43.5t-23.5 -87t23.5 -87.5t72 -44t129.5 -12.5t128.5 12.5z" />
    <glyph glyph-name="Emacron" unicode="&#x112;" horiz-adv-x="1041" 
d="M84.5 9.5q-9.5 9.5 -9.5 25.5v630q0 17 9.5 26t25.5 9h846q17 0 26 -9t9 -26v-76q0 -16 -9 -25.5t-26 -9.5h-718q-10 0 -10 -10v-122q0 -10 10 -10h669q17 0 26 -9t9 -25v-65q0 -16 -9 -25t-26 -9h-669q-10 0 -10 -10v-113q0 -10 10 -10h718q17 0 26 -9t9 -26v-76
q0 -16 -9 -25.5t-26 -9.5h-846q-16 0 -25.5 9.5zM332 892h421q25 0 25 -25v-39q0 -25 -25 -25h-421q-25 0 -25 25v39q0 25 25 25z" />
    <glyph glyph-name="emacron" unicode="&#x113;" horiz-adv-x="787" 
d="M741.5 236q-5.5 -14 -20 -20t-43.5 -6h-489q16 -57 72 -79t155 -22q66 0 119.5 9t105.5 28q8 2 13 2q19 0 27 -14l14 -28q6 -14 6 -21q0 -17 -14 -25q-93 -67 -281 -67q-187 0 -276.5 67.5t-89.5 194.5t85.5 194t269.5 67t268 -65t84 -174q0 -27 -5.5 -41zM245 375.5
q-49 -22.5 -59 -75.5h427q-12 54 -61 76t-153 22q-105 0 -154 -22.5zM187 701h421q25 0 25 -25v-39q0 -25 -25 -25h-421q-25 0 -25 25v39q0 25 25 25z" />
    <glyph glyph-name="Edotaccent" unicode="&#x116;" horiz-adv-x="1041" 
d="M84.5 9.5q-9.5 9.5 -9.5 25.5v630q0 17 9.5 26t25.5 9h846q17 0 26 -9t9 -26v-76q0 -16 -9 -25.5t-26 -9.5h-718q-10 0 -10 -10v-122q0 -10 10 -10h669q17 0 26 -9t9 -25v-65q0 -16 -9 -25t-26 -9h-669q-10 0 -10 -10v-113q0 -10 10 -10h718q17 0 26 -9t9 -26v-76
q0 -16 -9 -25.5t-26 -9.5h-846q-16 0 -25.5 9.5zM480.5 797q-18.5 10 -18.5 34v27q0 24 18.5 34t63.5 10q44 0 62 -10t18 -34v-27q0 -24 -18 -34t-62 -10q-45 0 -63.5 10z" />
    <glyph glyph-name="edotaccent" unicode="&#x117;" horiz-adv-x="787" 
d="M741.5 236q-5.5 -14 -20 -20t-43.5 -6h-489q16 -57 72 -79t155 -22q66 0 119.5 9t105.5 28q8 2 13 2q19 0 27 -14l14 -28q6 -14 6 -21q0 -17 -14 -25q-93 -67 -281 -67q-187 0 -276.5 67.5t-89.5 194.5t85.5 194t269.5 67t268 -65t84 -174q0 -27 -5.5 -41zM245 375.5
q-49 -22.5 -59 -75.5h427q-12 54 -61 76t-153 22q-105 0 -154 -22.5zM335.5 606q-18.5 10 -18.5 34v27q0 24 18.5 34t63.5 10q44 0 62 -10t18 -34v-27q0 -24 -18 -34t-62 -10q-45 0 -63.5 10z" />
    <glyph glyph-name="Eogonek" unicode="&#x118;" horiz-adv-x="1041" 
d="M228 544v-122q0 -10 10 -10h669q17 0 26 -9t9 -25v-65q0 -16 -9 -25t-26 -9h-669q-10 0 -10 -10v-113q0 -10 10 -10h718q17 0 26 -9t9 -26v-76q0 -16 -9 -25.5t-26 -9.5h-69q-72 0 -101 -11.5t-29 -32.5q0 -20 27 -30.5t95 -10.5q45 0 93 4h2q14 0 14 -14v-86
q0 -14 -13 -17q-37 -9 -101 -9q-106 0 -185 31t-79 103q0 47 37 73h-537q-16 0 -25.5 9.5t-9.5 25.5v630q0 17 9.5 26t25.5 9h846q17 0 26 -9t9 -26v-76q0 -16 -9 -25.5t-26 -9.5h-718q-10 0 -10 -10z" />
    <glyph glyph-name="eogonek" unicode="&#x119;" horiz-adv-x="787" 
d="M741.5 236q-5.5 -14 -20 -20t-43.5 -6h-489q16 -57 72 -79t155 -22q66 0 119.5 9t105.5 28q8 2 13 2q19 0 27 -14l14 -28q6 -14 6 -21q0 -17 -14 -25q-93 -67 -281 -67q-72 0 -101 -11.5t-29 -32.5q0 -20 27 -30.5t95 -10.5q45 0 93 4h2q14 0 14 -14v-86q0 -14 -13 -17
q-37 -9 -101 -9q-106 0 -185 31t-79 103q0 71 89 97q-178 56 -178 238q0 127 85.5 194t269.5 67t268 -65t84 -174q0 -27 -5.5 -41zM245 375.5q-49 -22.5 -59 -75.5h427q-12 54 -61 76t-153 22q-105 0 -154 -22.5z" />
    <glyph glyph-name="Ecaron" unicode="&#x11a;" horiz-adv-x="1041" 
d="M84.5 9.5q-9.5 9.5 -9.5 25.5v630q0 17 9.5 26t25.5 9h846q17 0 26 -9t9 -26v-76q0 -16 -9 -25.5t-26 -9.5h-718q-10 0 -10 -10v-122q0 -10 10 -10h669q17 0 26 -9t9 -25v-65q0 -16 -9 -25t-26 -9h-669q-10 0 -10 -10v-113q0 -10 10 -10h718q17 0 26 -9t9 -26v-76
q0 -16 -9 -25.5t-26 -9.5h-846q-16 0 -25.5 9.5zM438 769q-13 0 -22.5 4.5t-21.5 18.5l-59 69q-5 7 -5 14t5 12t16 5h65q12 0 21 -3.5t20 -9.5l62 -45l62 45q11 6 20 9.5t21 3.5h65q11 0 16 -5t5 -12t-5 -14l-59 -69q-12 -14 -21.5 -18.5t-22.5 -4.5h-162z" />
    <glyph glyph-name="ecaron" unicode="&#x11b;" horiz-adv-x="787" 
d="M741.5 236q-5.5 -14 -20 -20t-43.5 -6h-489q16 -57 72 -79t155 -22q66 0 119.5 9t105.5 28q8 2 13 2q19 0 27 -14l14 -28q6 -14 6 -21q0 -17 -14 -25q-93 -67 -281 -67q-187 0 -276.5 67.5t-89.5 194.5t85.5 194t269.5 67t268 -65t84 -174q0 -27 -5.5 -41zM245 375.5
q-49 -22.5 -59 -75.5h427q-12 54 -61 76t-153 22q-105 0 -154 -22.5zM293 578q-13 0 -22.5 4.5t-21.5 18.5l-59 69q-5 7 -5 14t5 12t16 5h65q12 0 21 -3.5t20 -9.5l62 -45l62 45q11 6 20 9.5t21 3.5h65q11 0 16 -5t5 -12t-5 -14l-59 -69q-12 -14 -21.5 -18.5t-22.5 -4.5
h-162z" />
    <glyph glyph-name="Gbreve" unicode="&#x11e;" horiz-adv-x="1113" 
d="M1050 384q9 -9 9 -26v-267q0 -12 -17 -24q-46 -30 -155 -54.5t-285 -24.5q-189 0 -310 36t-181.5 115.5t-60.5 210.5t60.5 210.5t181.5 115.5t310 36q175 0 283.5 -24.5t154.5 -54.5q17 -11 17 -24q0 -8 -9 -24l-33 -59q-7 -13 -22 -13q-8 0 -26 6q-61 21 -143.5 35.5
t-216.5 14.5q-151 0 -238.5 -24t-124 -71.5t-36.5 -123.5q0 -74 35 -122t117.5 -72.5t224.5 -24.5q200 0 326 33v81q0 10 -10 10h-207q-16 0 -25.5 9.5t-9.5 25.5v68q0 17 9.5 26t25.5 9h330q17 0 26 -9zM754 867q-2 -57 -39.5 -85t-134.5 -28t-135 28t-40 85q0 25 24 25h45
q21 0 26 -24q5 -21 24 -29.5t56 -8.5t55.5 8.5t23.5 29.5q5 24 26 24h45q24 0 24 -25z" />
    <glyph glyph-name="gbreve" unicode="&#x11f;" horiz-adv-x="804" 
d="M744 483v-459q0 -115 -93 -172t-274 -57q-133 0 -221.5 31.5t-107.5 97.5q-1 3 -1 10q0 13 8.5 22t24.5 9h70q14 0 23 -4.5t19 -13.5q24 -22 68 -32.5t117 -10.5q103 0 164.5 25t61.5 100v86q-24 -40 -78 -60t-155 -20q-177 0 -253 60t-77 181q-1 120 75.5 180t254.5 60
q100 0 155 -18t78 -55v40q0 25 25 25h91q25 0 25 -25zM558 179.5q53 26.5 53 96.5t-52.5 96t-165.5 26q-74 0 -119 -10.5t-68 -37t-23 -74.5q0 -70 50 -96.5t160 -26.5q112 0 165 26.5zM559 675q-2 -57 -39.5 -85t-134.5 -28t-135 28t-40 85q0 25 24 25h45q21 0 26 -24
q5 -21 24 -29.5t56 -8.5t55.5 8.5t23.5 29.5q5 24 26 24h45q24 0 24 -25z" />
    <glyph glyph-name="Gdotaccent" unicode="&#x120;" horiz-adv-x="1113" 
d="M1050 384q9 -9 9 -26v-267q0 -12 -17 -24q-46 -30 -155 -54.5t-285 -24.5q-189 0 -310 36t-181.5 115.5t-60.5 210.5t60.5 210.5t181.5 115.5t310 36q175 0 283.5 -24.5t154.5 -54.5q17 -11 17 -24q0 -8 -9 -24l-33 -59q-7 -13 -22 -13q-8 0 -26 6q-61 21 -143.5 35.5
t-216.5 14.5q-151 0 -238.5 -24t-124 -71.5t-36.5 -123.5q0 -74 35 -122t117.5 -72.5t224.5 -24.5q200 0 326 33v81q0 10 -10 10h-207q-16 0 -25.5 9.5t-9.5 25.5v68q0 17 9.5 26t25.5 9h330q17 0 26 -9zM517.5 797q-18.5 10 -18.5 34v27q0 24 18.5 34t63.5 10q44 0 62 -10
t18 -34v-27q0 -24 -18 -34t-62 -10q-45 0 -63.5 10z" />
    <glyph glyph-name="gdotaccent" unicode="&#x121;" horiz-adv-x="804" 
d="M744 483v-459q0 -115 -93 -172t-274 -57q-133 0 -221.5 31.5t-107.5 97.5q-1 3 -1 10q0 13 8.5 22t24.5 9h70q14 0 23 -4.5t19 -13.5q24 -22 68 -32.5t117 -10.5q103 0 164.5 25t61.5 100v86q-24 -40 -78 -60t-155 -20q-177 0 -253 60t-77 181q-1 120 75.5 180t254.5 60
q100 0 155 -18t78 -55v40q0 25 25 25h91q25 0 25 -25zM558 179.5q53 26.5 53 96.5t-52.5 96t-165.5 26q-74 0 -119 -10.5t-68 -37t-23 -74.5q0 -70 50 -96.5t160 -26.5q112 0 165 26.5zM322.5 605q-18.5 10 -18.5 34v27q0 24 18.5 34t63.5 10q44 0 62 -10t18 -34v-27
q0 -24 -18 -34t-62 -10q-45 0 -63.5 10z" />
    <glyph glyph-name="uni0122" unicode="&#x122;" horiz-adv-x="1113" 
d="M1050 384q9 -9 9 -26v-267q0 -12 -17 -24q-46 -30 -155 -54.5t-285 -24.5q-189 0 -310 36t-181.5 115.5t-60.5 210.5t60.5 210.5t181.5 115.5t310 36q175 0 283.5 -24.5t154.5 -54.5q17 -11 17 -24q0 -8 -9 -24l-33 -59q-7 -13 -22 -13q-8 0 -26 6q-61 21 -143.5 35.5
t-216.5 14.5q-151 0 -238.5 -24t-124 -71.5t-36.5 -123.5q0 -74 35 -122t117.5 -72.5t224.5 -24.5q200 0 326 33v81q0 10 -10 10h-207q-16 0 -25.5 9.5t-9.5 25.5v68q0 17 9.5 26t25.5 9h330q17 0 26 -9zM566 -315q-11 0 -11 11v70q0 22 -19 29l-14 5q-19 7 -19 29v70
q0 25 25 25h95q25 0 25 -25v-142q0 -12 -12.5 -23.5t-37.5 -28.5q-7 -6 -21 -16q-5 -4 -11 -4z" />
    <glyph glyph-name="uni0123" unicode="&#x123;" horiz-adv-x="804" 
d="M744 483v-459q0 -115 -93 -172t-274 -57q-133 0 -221.5 31.5t-107.5 97.5q-1 3 -1 10q0 13 8.5 22t24.5 9h70q14 0 23 -4.5t19 -13.5q24 -22 68 -32.5t117 -10.5q103 0 164.5 25t61.5 100v86q-24 -40 -78 -60t-155 -20q-177 0 -253 60t-77 181q-1 120 75.5 180t254.5 60
q100 0 155 -18t78 -55v40q0 25 25 25h91q25 0 25 -25zM558 179.5q53 26.5 53 96.5t-52.5 96t-165.5 26q-74 0 -119 -10.5t-68 -37t-23 -74.5q0 -70 50 -96.5t160 -26.5q112 0 165 26.5zM401 579q-11 0 -11 11v70q0 22 -19 29l-14 5q-19 7 -19 29v70q0 25 25 25h95
q25 0 25 -25v-142q0 -12 -12.5 -23.5t-37.5 -28.5q-7 -6 -21 -16q-5 -4 -11 -4z" />
    <glyph glyph-name="Hbar" unicode="&#x126;" horiz-adv-x="1135" 
d="M1051 691q9 -9 9 -26v-630q0 -16 -9 -25.5t-26 -9.5h-83q-16 0 -25.5 9.5t-9.5 25.5v217q0 10 -10 10h-659q-10 0 -10 -10v-217q0 -16 -9 -25.5t-26 -9.5h-83q-16 0 -25.5 9.5t-9.5 25.5v630q0 17 9.5 26t25.5 9h83q17 0 26 -9t9 -26v-89h679v89q0 17 9.5 26t25.5 9h83
q17 0 26 -9zM907 416v44h-679v-44q0 -10 10 -10h659q10 0 10 10z" />
    <glyph glyph-name="hbar" unicode="&#x127;" horiz-adv-x="820" 
d="M699 452.5q66 -62.5 66 -189.5v-238q0 -25 -25 -25h-92q-25 0 -25 25v238q0 75 -47.5 105t-156.5 30q-110 0 -159 -30.5t-49 -104.5v-238q0 -25 -25 -25h-91q-25 0 -25 25v521h-35q-25 0 -25 25v42q0 25 25 25h35v37q0 25 25 25h91q25 0 25 -25v-37h223q25 0 25 -25v-42
q0 -25 -25 -25h-223v-129q0 -6 4 -7t7 3q25 47 87.5 74.5t168.5 27.5q155 0 221 -62.5z" />
    <glyph glyph-name="Imacron" unicode="&#x12a;" horiz-adv-x="303" 
d="M84.5 9.5q-9.5 9.5 -9.5 25.5v630q0 17 9.5 26t25.5 9h83q17 0 26 -9t9 -26v-630q0 -16 -9 -25.5t-26 -9.5h-83q-16 0 -25.5 9.5zM-59 892h421q25 0 25 -25v-39q0 -25 -25 -25h-421q-25 0 -25 25v39q0 25 25 25z" />
    <glyph glyph-name="imacron" unicode="&#x12b;" horiz-adv-x="261" 
d="M201 483v-458q0 -25 -25 -25h-91q-25 0 -25 25v458q0 25 25 25h91q25 0 25 -25zM-80 700h421q25 0 25 -25v-39q0 -25 -25 -25h-421q-25 0 -25 25v39q0 25 25 25z" />
    <glyph glyph-name="Iogonek" unicode="&#x12e;" horiz-adv-x="303" 
d="M236 -81q14 0 14 -14v-86q0 -14 -13 -17q-37 -9 -101 -9q-106 0 -185 31t-79 103q0 57 53.5 83.5t149.5 29.5v625q0 17 9.5 26t25.5 9h83q17 0 26 -9t9 -26v-630q0 -16 -9 -25.5t-26 -9.5h-44q-72 0 -101 -11.5t-29 -32.5q0 -20 27 -30.5t95 -10.5q45 0 93 4h2z" />
    <glyph glyph-name="iogonek" unicode="&#x12f;" horiz-adv-x="261" 
d="M69.5 605q-18.5 10 -18.5 34v27q0 24 18.5 34t63.5 10q44 0 62 -10t18 -34v-27q0 -24 -18 -34t-62 -10q-45 0 -63.5 10zM218 -81q14 0 14 -14v-86q0 -14 -13 -17q-37 -9 -101 -9q-106 0 -185 31t-79 103q0 57 54 83.5t152 29.5v443q0 25 25 25h91q25 0 25 -25v-458
q0 -25 -25 -25h-45q-72 0 -101 -11.5t-29 -32.5q0 -20 27 -30.5t95 -10.5q45 0 93 4h2z" />
    <glyph glyph-name="Idotaccent" unicode="&#x130;" horiz-adv-x="303" 
d="M84.5 9.5q-9.5 9.5 -9.5 25.5v630q0 17 9.5 26t25.5 9h83q17 0 26 -9t9 -26v-630q0 -16 -9 -25.5t-26 -9.5h-83q-16 0 -25.5 9.5zM89.5 797q-18.5 10 -18.5 34v27q0 24 18.5 34t63.5 10q44 0 62 -10t18 -34v-27q0 -24 -18 -34t-62 -10q-45 0 -63.5 10z" />
    <glyph glyph-name="dotlessi" unicode="&#x131;" horiz-adv-x="261" 
d="M201 483v-458q0 -25 -25 -25h-91q-25 0 -25 25v458q0 25 25 25h91q25 0 25 -25z" />
    <glyph glyph-name="IJ" unicode="&#x132;" horiz-adv-x="1327" 
d="M84.5 9.5q-9.5 9.5 -9.5 25.5v630q0 17 9.5 26t25.5 9h83q17 0 26 -9t9 -26v-630q0 -16 -9 -25.5t-26 -9.5h-83q-16 0 -25.5 9.5zM502.5 12.5q-97.5 24.5 -149.5 54.5q-20 13 -20 35q0 9 5 19l27 49q11 20 33 20q11 0 23 -5q121 -52 337 -52q125 0 200 20t110.5 66
t35.5 126v320q0 17 9.5 26t25.5 9h83q17 0 26 -9t9 -26v-320q0 -135 -56 -213t-163 -111t-273 -33q-165 0 -262.5 24.5z" />
    <glyph glyph-name="ij" unicode="&#x133;" horiz-adv-x="558" 
d="M69 599.5q-19 11.5 -19 35.5v29q0 24 18.5 35.5t62.5 11.5q43 0 61.5 -11.5t18.5 -35.5v-29q0 -24 -18.5 -35.5t-61.5 -11.5t-62 11.5zM60 25v458q0 25 25 25h91q25 0 25 -25v-458q0 -25 -25 -25h-91q-25 0 -25 25zM366 599.5q-19 11.5 -19 35.5v29q0 24 18.5 35.5
t62.5 11.5q43 0 61.5 -11.5t18.5 -35.5v-29q0 -24 -18.5 -35.5t-61.5 -11.5t-62 11.5zM198 -198.5q-7 6.5 -7 18.5v71q0 12 7 18.5t20 6.5q75 0 107 23t32 84v460q0 25 25 25h91q25 0 25 -25v-460q0 -80 -18 -127.5t-72.5 -74t-160.5 -26.5h-29q-13 0 -20 6.5z" />
    <glyph glyph-name="uni0136" unicode="&#x136;" horiz-adv-x="1068" 
d="M1018 17q0 -8 -8 -12.5t-22 -4.5h-128q-21 0 -43 14l-432 326l-157 -85v-220q0 -16 -9 -25.5t-26 -9.5h-83q-16 0 -25.5 9.5t-9.5 25.5v630q0 17 9.5 26t25.5 9h83q17 0 26 -9t9 -26v-255l521 280q19 10 46 10h168q14 0 22 -5t8 -13q0 -13 -20 -23l-459 -249l488 -369
q16 -12 16 -24zM520 -315q-11 0 -11 11v70q0 22 -19 29l-14 5q-19 7 -19 29v70q0 25 25 25h95q25 0 25 -25v-142q0 -12 -12.5 -23.5t-37.5 -28.5q-7 -6 -21 -16q-5 -4 -11 -4z" />
    <glyph glyph-name="uni0137" unicode="&#x137;" horiz-adv-x="792" 
d="M756 15q0 -15 -29 -15h-97q-14 0 -24.5 3t-18.5 11l-258 239l-128 -71v-157q0 -25 -25 -25h-91q-25 0 -25 25v650q0 25 25 25h91q25 0 25 -25v-363l331 186q19 10 45 10h132q15 0 22.5 -4.5t7.5 -12.5q0 -13 -20 -24l-278 -153l300 -273q15 -15 15 -26zM392 -315
q-11 0 -11 11v70q0 22 -19 29l-14 5q-19 7 -19 29v70q0 25 25 25h95q25 0 25 -25v-142q0 -12 -12.5 -23.5t-37.5 -28.5q-7 -6 -21 -16q-5 -4 -11 -4z" />
    <glyph glyph-name="Lacute" unicode="&#x139;" horiz-adv-x="985" 
d="M84.5 9.5q-9.5 9.5 -9.5 25.5v630q0 17 9.5 26t25.5 9h83q17 0 26 -9t9 -26v-509q0 -10 10 -10h692q17 0 26 -9t9 -26v-76q0 -16 -9 -25.5t-26 -9.5h-820q-16 0 -25.5 9.5zM338.5 874q5.5 -4 5.5 -10q0 -8 -9 -17l-92 -87q-13 -13 -31 -13h-110q-10 0 -15.5 4t-5.5 10
q0 9 8 17l83 87q12 13 31 13h121q9 0 14.5 -4z" />
    <glyph glyph-name="lacute" unicode="&#x13a;" horiz-adv-x="261" 
d="M60 25v650q0 25 25 25h91q25 0 25 -25v-650q0 -25 -25 -25h-91q-25 0 -25 25zM322.5 888q5.5 -4 5.5 -10q0 -8 -9 -17l-92 -87q-13 -13 -31 -13h-110q-10 0 -15.5 4t-5.5 10q0 9 8 17l83 87q12 13 31 13h121q9 0 14.5 -4z" />
    <glyph glyph-name="uni013B" unicode="&#x13b;" horiz-adv-x="1000" 
d="M84.5 9.5q-9.5 9.5 -9.5 25.5v630q0 17 9.5 26t25.5 9h83q17 0 26 -9t9 -26v-509q0 -10 10 -10h692q17 0 26 -9t9 -26v-76q0 -16 -9 -25.5t-26 -9.5h-820q-16 0 -25.5 9.5zM486 -315q-11 0 -11 11v70q0 22 -19 29l-14 5q-19 7 -19 29v70q0 25 25 25h95q25 0 25 -25v-142
q0 -12 -12.5 -23.5t-37.5 -28.5q-7 -6 -21 -16q-5 -4 -11 -4z" />
    <glyph glyph-name="uni013C" unicode="&#x13c;" horiz-adv-x="261" 
d="M60 25v650q0 25 25 25h91q25 0 25 -25v-650q0 -25 -25 -25h-91q-25 0 -25 25zM117 -315q-11 0 -11 11v70q0 22 -19 29l-14 5q-19 7 -19 29v70q0 25 25 25h95q25 0 25 -25v-142q0 -12 -12.5 -23.5t-37.5 -28.5q-7 -6 -21 -16q-5 -4 -11 -4z" />
    <glyph glyph-name="Lcaron" unicode="&#x13d;" horiz-adv-x="1000" 
d="M84.5 9.5q-9.5 9.5 -9.5 25.5v630q0 17 9.5 26t25.5 9h83q17 0 26 -9t9 -26v-509q0 -10 10 -10h692q17 0 26 -9t9 -26v-76q0 -16 -9 -25.5t-26 -9.5h-820q-16 0 -25.5 9.5zM409 431q-11 0 -11 11v70q0 22 -19 29l-14 5q-19 7 -19 29v70q0 25 25 25h95q25 0 25 -25v-142
q0 -12 -12.5 -23.5t-37.5 -28.5q-7 -6 -21 -16q-5 -4 -11 -4z" />
    <glyph glyph-name="lcaron" unicode="&#x13e;" horiz-adv-x="441" 
d="M60 25v650q0 25 25 25h91q25 0 25 -25v-650q0 -25 -25 -25h-91q-25 0 -25 25zM318 449q-13 0 -21.5 9t-8.5 24v193q0 25 25 25h91q25 0 25 -25v-151q0 -15 -7.5 -25t-22.5 -17l-62 -29q-9 -4 -19 -4z" />
    <glyph glyph-name="Ldot" unicode="&#x13f;" horiz-adv-x="1000" 
d="M84.5 9.5q-9.5 9.5 -9.5 25.5v630q0 17 9.5 26t25.5 9h83q17 0 26 -9t9 -26v-509q0 -10 10 -10h692q17 0 26 -9t9 -26v-76q0 -16 -9 -25.5t-26 -9.5h-820q-16 0 -25.5 9.5zM490.5 334.5q-20.5 12.5 -20.5 39.5v32q0 27 20.5 39t69.5 12q48 0 68 -12t20 -39v-32
q0 -27 -20.5 -39.5t-67.5 -12.5q-49 0 -69.5 12.5z" />
    <glyph glyph-name="ldot" unicode="&#x140;" horiz-adv-x="444" 
d="M311.5 277.5q-20.5 12.5 -20.5 39.5v32q0 27 20.5 39t69.5 12q48 0 68 -12t20 -39v-32q0 -27 -20.5 -39.5t-67.5 -12.5q-49 0 -69.5 12.5zM60 25v650q0 25 25 25h91q25 0 25 -25v-650q0 -25 -25 -25h-91q-25 0 -25 25z" />
    <glyph glyph-name="Lslash" unicode="&#x141;" horiz-adv-x="1036" 
d="M992 137q9 -9 9 -26v-76q0 -16 -9 -25.5t-26 -9.5h-820q-16 0 -25.5 9.5t-9.5 25.5v164l-45 -34q-7 -6 -15 -6q-7 0 -11.5 6t-4.5 16v76q0 19 15 31l61 46v331q0 17 9.5 26t25.5 9h83q17 0 26 -9t9 -26v-215l140 106q9 7 15 7t10 -6t4 -16l2 -76q0 -19 -15 -31l-156 -119
v-159q0 -10 10 -10h692q17 0 26 -9z" />
    <glyph glyph-name="lslash" unicode="&#x142;" horiz-adv-x="420" 
d="M410 465q0 -19 -15 -31l-114 -87v-322q0 -25 -25 -25h-91q-25 0 -25 25v215l-99 -75q-7 -6 -15 -6q-7 0 -11.5 6t-4.5 16v76q0 19 15 31l115 87v300q0 25 25 25h91q25 0 25 -25v-193l98 74q9 7 15 7t10 -6t4 -16z" />
    <glyph glyph-name="Nacute" unicode="&#x143;" horiz-adv-x="1136" 
d="M84.5 9.5q-9.5 9.5 -9.5 25.5v630q0 17 9.5 26t25.5 9h83q20 0 30.5 -3.5t24.5 -13.5l648 -495q2 -2 6 -2q2 0 4 2t2 6v471q0 17 9.5 26t25.5 9h83q17 0 26 -9t9 -26v-630q0 -16 -9 -25.5t-26 -9.5h-83q-20 0 -31.5 3.5t-23.5 13.5l-648 496q-2 2 -6 2q-2 0 -4 -2t-2 -6
v-472q0 -16 -9 -25.5t-26 -9.5h-83q-16 0 -25.5 9.5zM759.5 888q5.5 -4 5.5 -10q0 -8 -9 -17l-92 -87q-13 -13 -31 -13h-110q-10 0 -15.5 4t-5.5 10q0 9 8 17l83 87q12 13 31 13h121q9 0 14.5 -4z" />
    <glyph glyph-name="nacute" unicode="&#x144;" 
d="M689 452.5q66 -62.5 66 -189.5v-238q0 -25 -25 -25h-92q-25 0 -25 25v238q0 75 -47.5 105t-156.5 30q-110 0 -159 -30.5t-49 -104.5v-238q0 -25 -25 -25h-91q-25 0 -25 25v458q0 25 25 25h91q25 0 25 -25v-66q0 -6 4 -7t7 3q25 47 87.5 74.5t168.5 27.5q155 0 221 -62.5z
M594.5 696q5.5 -4 5.5 -10q0 -8 -9 -17l-92 -87q-13 -13 -31 -13h-110q-10 0 -15.5 4t-5.5 10q0 9 8 17l83 87q12 13 31 13h121q9 0 14.5 -4z" />
    <glyph glyph-name="uni0145" unicode="&#x145;" horiz-adv-x="1136" 
d="M84.5 9.5q-9.5 9.5 -9.5 25.5v630q0 17 9.5 26t25.5 9h83q20 0 30.5 -3.5t24.5 -13.5l648 -495q2 -2 6 -2q2 0 4 2t2 6v471q0 17 9.5 26t25.5 9h83q17 0 26 -9t9 -26v-630q0 -16 -9 -25.5t-26 -9.5h-83q-20 0 -31.5 3.5t-23.5 13.5l-648 496q-2 2 -6 2q-2 0 -4 -2t-2 -6
v-472q0 -16 -9 -25.5t-26 -9.5h-83q-16 0 -25.5 9.5zM554 -315q-11 0 -11 11v70q0 22 -19 29l-14 5q-19 7 -19 29v70q0 25 25 25h95q25 0 25 -25v-142q0 -12 -12.5 -23.5t-37.5 -28.5q-7 -6 -21 -16q-5 -4 -11 -4z" />
    <glyph glyph-name="uni0146" unicode="&#x146;" 
d="M689 452.5q66 -62.5 66 -189.5v-238q0 -25 -25 -25h-92q-25 0 -25 25v238q0 75 -47.5 105t-156.5 30q-110 0 -159 -30.5t-49 -104.5v-238q0 -25 -25 -25h-91q-25 0 -25 25v458q0 25 25 25h91q25 0 25 -25v-66q0 -6 4 -7t7 3q25 47 87.5 74.5t168.5 27.5q155 0 221 -62.5z
M390 -315q-11 0 -11 11v70q0 22 -19 29l-14 5q-19 7 -19 29v70q0 25 25 25h95q25 0 25 -25v-142q0 -12 -12.5 -23.5t-37.5 -28.5q-7 -6 -21 -16q-5 -4 -11 -4z" />
    <glyph glyph-name="Ncaron" unicode="&#x147;" horiz-adv-x="1136" 
d="M84.5 9.5q-9.5 9.5 -9.5 25.5v630q0 17 9.5 26t25.5 9h83q20 0 30.5 -3.5t24.5 -13.5l648 -495q2 -2 6 -2q2 0 4 2t2 6v471q0 17 9.5 26t25.5 9h83q17 0 26 -9t9 -26v-630q0 -16 -9 -25.5t-26 -9.5h-83q-20 0 -31.5 3.5t-23.5 13.5l-648 496q-2 2 -6 2q-2 0 -4 -2t-2 -6
v-472q0 -16 -9 -25.5t-26 -9.5h-83q-16 0 -25.5 9.5zM463 769q-13 0 -22.5 4.5t-21.5 18.5l-59 69q-5 7 -5 14t5 12t16 5h65q12 0 21 -3.5t20 -9.5l62 -45l62 45q11 6 20 9.5t21 3.5h65q11 0 16 -5t5 -12t-5 -14l-59 -69q-12 -14 -21.5 -18.5t-22.5 -4.5h-162z" />
    <glyph glyph-name="ncaron" unicode="&#x148;" 
d="M689 452.5q66 -62.5 66 -189.5v-238q0 -25 -25 -25h-92q-25 0 -25 25v238q0 75 -47.5 105t-156.5 30q-110 0 -159 -30.5t-49 -104.5v-238q0 -25 -25 -25h-91q-25 0 -25 25v458q0 25 25 25h91q25 0 25 -25v-66q0 -6 4 -7t7 3q25 47 87.5 74.5t168.5 27.5q155 0 221 -62.5z
M299 577q-13 0 -22.5 4.5t-21.5 18.5l-59 69q-5 7 -5 14t5 12t16 5h65q12 0 21 -3.5t20 -9.5l62 -45l62 45q11 6 20 9.5t21 3.5h65q11 0 16 -5t5 -12t-5 -14l-59 -69q-12 -14 -21.5 -18.5t-22.5 -4.5h-162z" />
    <glyph glyph-name="Eng" unicode="&#x14a;" horiz-adv-x="1131" 
d="M1052 691q9 -9 9 -26v-630v-1q0 -134 -56.5 -211.5t-164 -110t-272.5 -32.5t-262 24.5t-149 54.5q-20 13 -20 34q0 10 5 20l26 49q11 20 34 20q10 0 22 -5q47 -20 128.5 -36t208.5 -16q117 0 190 17.5t111 56.5t45 106q-9 4 -19 12l-648 496q-2 2 -6 2q-2 0 -4 -2t-2 -6
v-472q0 -16 -9 -25.5t-26 -9.5h-83q-16 0 -25.5 9.5t-9.5 25.5v630q0 17 9.5 26t25.5 9h83q20 0 30.5 -3.5t24.5 -13.5l648 -495q2 -2 6 -2q2 0 4 2t2 6v471q0 17 9.5 26t25.5 9h83q17 0 26 -9z" />
    <glyph glyph-name="eng" unicode="&#x14b;" 
d="M689 452.5q66 -62.5 66 -189.5v-263q0 -76 -26 -125t-87 -75t-166 -28q-26 0 -26 25v56q0 25 26 25q52 4 80.5 14.5t42.5 36t14 71.5v263q0 75 -47.5 105t-156.5 30q-110 0 -159 -30.5t-49 -104.5v-238q0 -25 -25 -25h-91q-25 0 -25 25v458q0 25 25 25h91q25 0 25 -25
v-66q0 -6 4 -7t7 3q25 47 87.5 74.5t168.5 27.5q155 0 221 -62.5z" />
    <glyph glyph-name="Omacron" unicode="&#x14c;" horiz-adv-x="1188" 
d="M179 74q-129 86 -129 276q0 189 129 275.5t377 86.5h75q248 0 377.5 -86.5t129.5 -275.5q0 -190 -129 -276t-378 -86h-75q-248 0 -377 86zM899 184.5q82 53.5 82 165.5q0 110 -82.5 164.5t-267.5 54.5h-75q-184 0 -266.5 -54.5t-82.5 -164.5q0 -112 82 -165.5t267 -53.5
h75q186 0 268 53.5zM383 892h421q25 0 25 -25v-39q0 -25 -25 -25h-421q-25 0 -25 25v39q0 25 25 25z" />
    <glyph glyph-name="omacron" unicode="&#x14d;" horiz-adv-x="801" 
d="M126 60q-86 67 -86 195q0 127 86 194t274 67q189 0 275.5 -67t85.5 -194q-1 -128 -86.5 -195t-274.5 -67q-188 0 -274 67zM567.5 143.5q50.5 32.5 50.5 111.5t-50.5 111t-167.5 32q-116 0 -166.5 -32t-50.5 -111t50.5 -111.5t166.5 -32.5q117 0 167.5 32.5zM189 701h421
q25 0 25 -25v-39q0 -25 -25 -25h-421q-25 0 -25 25v39q0 25 25 25z" />
    <glyph glyph-name="Ohungarumlaut" unicode="&#x150;" horiz-adv-x="1188" 
d="M179 74q-129 86 -129 276q0 189 129 275.5t377 86.5h75q248 0 377.5 -86.5t129.5 -275.5q0 -190 -129 -276t-378 -86h-75q-248 0 -377 86zM899 184.5q82 53.5 82 165.5q0 110 -82.5 164.5t-267.5 54.5h-75q-184 0 -266.5 -54.5t-82.5 -164.5q0 -112 82 -165.5t267 -53.5
h75q186 0 268 53.5zM901.5 888q5.5 -4 5.5 -10q0 -8 -9 -17l-92 -87q-13 -13 -31 -13h-110q-10 0 -15.5 4t-5.5 10q0 9 8 17l83 87q12 13 31 13h121q9 0 14.5 -4zM692.5 888q5.5 -4 5.5 -10q0 -8 -9 -17l-92 -87q-13 -13 -31 -13h-110q-10 0 -15.5 4t-5.5 10q0 9 8 17l83 87
q12 13 31 13h121q9 0 14.5 -4z" />
    <glyph glyph-name="ohungarumlaut" unicode="&#x151;" horiz-adv-x="801" 
d="M126 60q-86 67 -86 195q0 127 86 194t274 67q189 0 275.5 -67t85.5 -194q-1 -128 -86.5 -195t-274.5 -67q-188 0 -274 67zM567.5 143.5q50.5 32.5 50.5 111.5t-50.5 111t-167.5 32q-116 0 -166.5 -32t-50.5 -111t50.5 -111.5t166.5 -32.5q117 0 167.5 32.5zM707.5 697
q5.5 -4 5.5 -10q0 -8 -9 -17l-92 -87q-13 -13 -31 -13h-110q-10 0 -15.5 4t-5.5 10q0 9 8 17l83 87q12 13 31 13h121q9 0 14.5 -4zM498.5 697q5.5 -4 5.5 -10q0 -8 -9 -17l-92 -87q-13 -13 -31 -13h-110q-10 0 -15.5 4t-5.5 10q0 9 8 17l83 87q12 13 31 13h121q9 0 14.5 -4z
" />
    <glyph glyph-name="OE" unicode="&#x152;" horiz-adv-x="1946" 
d="M1133 544v-122q0 -10 10 -10h669q17 0 26 -9t9 -25v-65q0 -16 -9 -25t-26 -9h-669q-10 0 -10 -10v-113q0 -10 10 -10h718q17 0 26 -9t9 -26v-76q0 -16 -9 -25.5t-26 -9.5h-846q-16 0 -25.5 9.5t-9.5 25.5v21q-123 -68 -349 -68h-75q-248 0 -377 86t-129 276
q0 189 129 275.5t377 86.5h75q227 0 349 -69v22q0 17 9.5 26t25.5 9h846q17 0 26 -9t9 -26v-76q0 -16 -9 -25.5t-26 -9.5h-718q-10 0 -10 -10zM889 178.5q83 47.5 91 146.5v49q-8 98 -91.5 146.5t-257.5 48.5h-75q-184 0 -266.5 -54.5t-82.5 -164.5q0 -112 82 -165.5
t267 -53.5h75q175 0 258 47.5z" />
    <glyph glyph-name="oe" unicode="&#x153;" horiz-adv-x="1365" 
d="M1319.5 236q-5.5 -14 -20 -20t-43.5 -6h-489q16 -57 72 -79t155 -22q66 0 119.5 9t105.5 28q8 2 13 2q19 0 27 -14l14 -28q6 -14 6 -21q0 -17 -14 -25q-93 -67 -281 -67q-201 0 -293 81q-89 -81 -291 -81q-188 0 -274 67t-86 195q0 127 86 194t274 67q200 0 290 -79
q87 79 283 79q184 0 268 -65t84 -174q0 -27 -5.5 -41zM567.5 143.5q50.5 32.5 50.5 111.5t-50.5 111t-167.5 32q-116 0 -166.5 -32t-50.5 -111t50.5 -111.5t166.5 -32.5q117 0 167.5 32.5zM823 375.5q-49 -22.5 -59 -75.5h427q-12 54 -61 76t-153 22q-105 0 -154 -22.5z" />
    <glyph glyph-name="Racute" unicode="&#x154;" horiz-adv-x="1093" 
d="M1037 18q0 -8 -8 -13t-22 -5h-102q-16 0 -28.5 5t-27.5 17l-237 202h-374q-10 0 -10 -10v-179q0 -16 -9 -25.5t-26 -9.5h-83q-16 0 -25.5 9.5t-9.5 25.5v630q0 17 9.5 26t25.5 9h650q101 0 166.5 -34t95 -88t29.5 -116q0 -57 -25 -107.5t-80 -85.5t-140 -43l216 -183
q15 -13 15 -25zM238 370h514q76 0 110 20t34 72t-34 72t-110 20h-514q-10 0 -10 -10v-164q0 -10 10 -10zM737.5 888q5.5 -4 5.5 -10q0 -8 -9 -17l-92 -87q-13 -13 -31 -13h-110q-10 0 -15.5 4t-5.5 10q0 9 8 17l83 87q12 13 31 13h121q9 0 14.5 -4z" />
    <glyph glyph-name="racute" unicode="&#x155;" horiz-adv-x="686" 
d="M60 25v458q0 25 25 25h91q25 0 25 -25v-50q0 -6 3 -9.5t8 -3.5q8 0 17 10q34 42 83.5 63.5t137.5 21.5q94 0 148 -28q21 -10 27 -23t6 -34v-35q0 -27 -23 -27q-12 0 -24 4q-43 14 -77 20.5t-87 6.5q-102 0 -160.5 -32t-58.5 -104v-238q0 -25 -25 -25h-91q-25 0 -25 25z
M546.5 696q5.5 -4 5.5 -10q0 -8 -9 -17l-92 -87q-13 -13 -31 -13h-110q-10 0 -15.5 4t-5.5 10q0 9 8 17l83 87q12 13 31 13h121q9 0 14.5 -4z" />
    <glyph glyph-name="uni0156" unicode="&#x156;" horiz-adv-x="1093" 
d="M1037 18q0 -8 -8 -13t-22 -5h-102q-16 0 -28.5 5t-27.5 17l-237 202h-374q-10 0 -10 -10v-179q0 -16 -9 -25.5t-26 -9.5h-83q-16 0 -25.5 9.5t-9.5 25.5v630q0 17 9.5 26t25.5 9h650q101 0 166.5 -34t95 -88t29.5 -116q0 -57 -25 -107.5t-80 -85.5t-140 -43l216 -183
q15 -13 15 -25zM238 370h514q76 0 110 20t34 72t-34 72t-110 20h-514q-10 0 -10 -10v-164q0 -10 10 -10zM532 -315q-11 0 -11 11v70q0 22 -19 29l-14 5q-19 7 -19 29v70q0 25 25 25h95q25 0 25 -25v-142q0 -12 -12.5 -23.5t-37.5 -28.5q-7 -6 -21 -16q-5 -4 -11 -4z" />
    <glyph glyph-name="uni0157" unicode="&#x157;" horiz-adv-x="686" 
d="M60 25v458q0 25 25 25h91q25 0 25 -25v-50q0 -6 3 -9.5t8 -3.5q8 0 17 10q34 42 83.5 63.5t137.5 21.5q94 0 148 -28q21 -10 27 -23t6 -34v-35q0 -27 -23 -27q-12 0 -24 4q-43 14 -77 20.5t-87 6.5q-102 0 -160.5 -32t-58.5 -104v-238q0 -25 -25 -25h-91q-25 0 -25 25z
M112 -315q-11 0 -11 11v70q0 22 -19 29l-14 5q-19 7 -19 29v70q0 25 25 25h95q25 0 25 -25v-142q0 -12 -12.5 -23.5t-37.5 -28.5q-7 -6 -21 -16q-5 -4 -11 -4z" />
    <glyph glyph-name="Rcaron" unicode="&#x158;" horiz-adv-x="1093" 
d="M1037 18q0 -8 -8 -13t-22 -5h-102q-16 0 -28.5 5t-27.5 17l-237 202h-374q-10 0 -10 -10v-179q0 -16 -9 -25.5t-26 -9.5h-83q-16 0 -25.5 9.5t-9.5 25.5v630q0 17 9.5 26t25.5 9h650q101 0 166.5 -34t95 -88t29.5 -116q0 -57 -25 -107.5t-80 -85.5t-140 -43l216 -183
q15 -13 15 -25zM238 370h514q76 0 110 20t34 72t-34 72t-110 20h-514q-10 0 -10 -10v-164q0 -10 10 -10zM441 769q-13 0 -22.5 4.5t-21.5 18.5l-59 69q-5 7 -5 14t5 12t16 5h65q12 0 21 -3.5t20 -9.5l62 -45l62 45q11 6 20 9.5t21 3.5h65q11 0 16 -5t5 -12t-5 -14l-59 -69
q-12 -14 -21.5 -18.5t-22.5 -4.5h-162z" />
    <glyph glyph-name="rcaron" unicode="&#x159;" horiz-adv-x="686" 
d="M60 25v458q0 25 25 25h91q25 0 25 -25v-50q0 -6 3 -9.5t8 -3.5q8 0 17 10q34 42 83.5 63.5t137.5 21.5q94 0 148 -28q21 -10 27 -23t6 -34v-35q0 -27 -23 -27q-12 0 -24 4q-43 14 -77 20.5t-87 6.5q-102 0 -160.5 -32t-58.5 -104v-238q0 -25 -25 -25h-91q-25 0 -25 25z
M250 577q-13 0 -22.5 4.5t-21.5 18.5l-59 69q-5 7 -5 14t5 12t16 5h65q12 0 21 -3.5t20 -9.5l62 -45l62 45q11 6 20 9.5t21 3.5h65q11 0 16 -5t5 -12t-5 -14l-59 -69q-12 -14 -21.5 -18.5t-22.5 -4.5h-162z" />
    <glyph glyph-name="Sacute" unicode="&#x15a;" horiz-adv-x="1076" 
d="M237 12.5q-116 24.5 -165 54.5q-17 11 -17 30q0 13 7 24l28 48q10 16 29 16q10 0 22 -5q40 -17 154 -33t251 -16h12q159 0 230.5 20.5t71.5 51.5q0 24 -38.5 38.5t-99.5 22.5t-191 20q-167 16 -265 36.5t-154 63.5t-56 119q0 109 110.5 159t327.5 50h25q169 0 280 -26
t162 -56q17 -10 17 -26q0 -12 -9 -27l-30 -55q-8 -14 -24 -14q-11 0 -25 6q-57 21 -149 39t-221 18h-25q-281 0 -281 -66q0 -24 36.5 -38.5t99.5 -23.5t188 -22l38 -4q144 -14 232.5 -31t150.5 -60t62 -122q0 -216 -469 -216h-12q-187 0 -303 24.5zM723.5 888
q5.5 -4 5.5 -10q0 -8 -9 -17l-92 -87q-13 -13 -31 -13h-110q-10 0 -15.5 4t-5.5 10q0 9 8 17l83 87q12 13 31 13h121q9 0 14.5 -4z" />
    <glyph glyph-name="sacute" unicode="&#x15b;" horiz-adv-x="698" 
d="M202.5 344q15.5 -8 54.5 -16t91 -17l39 -6q89 -14 143.5 -28t93.5 -46t39 -87q0 -82 -86.5 -116.5t-221.5 -34.5q-107 0 -188.5 16t-113.5 36q-10 6 -10 19q0 11 5 19l26 51q4 8 15 8q7 0 21 -4q43 -13 105 -24t136 -11q69 0 117.5 8.5t48.5 34.5q0 21 -39 32.5
t-140 28.5l-36 6q-84 13 -135.5 26t-86.5 43t-35 83q0 79 77.5 115t211.5 36q99 0 174 -15.5t108 -32.5q17 -10 17 -21q0 -7 -5 -20l-20 -46q-5 -13 -23 -13q-9 0 -17 3q-37 12 -101.5 23.5t-134.5 11.5q-145 0 -145 -42q0 -12 15.5 -20zM539.5 697q5.5 -4 5.5 -10
q0 -8 -9 -17l-92 -87q-13 -13 -31 -13h-110q-10 0 -15.5 4t-5.5 10q0 9 8 17l83 87q12 13 31 13h121q9 0 14.5 -4z" />
    <glyph glyph-name="Scedilla" unicode="&#x15e;" horiz-adv-x="1076" 
d="M582 -12l-21 -30q76 -3 119 -28.5t43 -84.5q0 -77 -67 -103.5t-181 -26.5q-70 0 -103 8q-13 3 -13 17v73q0 14 16 14q72 -3 103 -3q65 0 88 8t23 24t-29.5 25t-120.5 9q-9 0 -14 4.5t-1 10.5l50 84q-158 5 -257.5 28t-144.5 50q-17 11 -17 30q0 13 7 24l28 48
q10 16 29 16q10 0 22 -5q40 -17 154 -33t251 -16h12q159 0 230.5 20.5t71.5 51.5q0 24 -38.5 38.5t-99.5 22.5t-191 20q-167 16 -265 36.5t-154 63.5t-56 119q0 109 110.5 159t327.5 50h25q169 0 280 -26t162 -56q17 -10 17 -26q0 -12 -9 -27l-30 -55q-8 -14 -24 -14
q-11 0 -25 6q-57 21 -149 39t-221 18h-25q-281 0 -281 -66q0 -24 36.5 -38.5t99.5 -23.5t188 -22l38 -4q144 -14 232.5 -31t150.5 -60t62 -122q0 -209 -439 -216z" />
    <glyph glyph-name="scedilla" unicode="&#x15f;" horiz-adv-x="698" 
d="M591 34q-72 -35 -188 -40l-26 -37q76 -3 119 -28.5t43 -84.5q0 -77 -67 -103.5t-181 -26.5q-70 0 -103 8q-13 3 -13 17v73q0 14 16 14q72 -3 103 -3q65 0 88 8t23 24t-29.5 25t-120.5 9q-9 0 -14 4.5t-1 10.5l54 91q-85 4 -149.5 19t-91.5 31q-10 6 -10 19q0 11 5 19
l26 51q4 8 15 8q7 0 21 -4q43 -13 105 -24t136 -11q69 0 117.5 8.5t48.5 34.5q0 21 -39 32.5t-140 28.5l-36 6q-84 13 -135.5 26t-86.5 43t-35 83q0 79 77.5 115t211.5 36q99 0 174 -15.5t108 -32.5q17 -10 17 -21q0 -7 -5 -20l-20 -46q-5 -13 -23 -13q-9 0 -17 3
q-37 12 -101.5 23.5t-134.5 11.5q-145 0 -145 -42q0 -12 15.5 -20t54.5 -16t91 -17l39 -6q89 -14 143.5 -28t93.5 -46t39 -87q0 -75 -72 -110z" />
    <glyph glyph-name="Scaron" unicode="&#x160;" horiz-adv-x="1076" 
d="M237 12.5q-116 24.5 -165 54.5q-17 11 -17 30q0 13 7 24l28 48q10 16 29 16q10 0 22 -5q40 -17 154 -33t251 -16h12q159 0 230.5 20.5t71.5 51.5q0 24 -38.5 38.5t-99.5 22.5t-191 20q-167 16 -265 36.5t-154 63.5t-56 119q0 109 110.5 159t327.5 50h25q169 0 280 -26
t162 -56q17 -10 17 -26q0 -12 -9 -27l-30 -55q-8 -14 -24 -14q-11 0 -25 6q-57 21 -149 39t-221 18h-25q-281 0 -281 -66q0 -24 36.5 -38.5t99.5 -23.5t188 -22l38 -4q144 -14 232.5 -31t150.5 -60t62 -122q0 -216 -469 -216h-12q-187 0 -303 24.5zM428 769q-13 0 -22.5 4.5
t-21.5 18.5l-59 69q-5 7 -5 14t5 12t16 5h65q12 0 21 -3.5t20 -9.5l62 -45l62 45q11 6 20 9.5t21 3.5h65q11 0 16 -5t5 -12t-5 -14l-59 -69q-12 -14 -21.5 -18.5t-22.5 -4.5h-162z" />
    <glyph glyph-name="scaron" unicode="&#x161;" horiz-adv-x="698" 
d="M202.5 344q15.5 -8 54.5 -16t91 -17l39 -6q89 -14 143.5 -28t93.5 -46t39 -87q0 -82 -86.5 -116.5t-221.5 -34.5q-107 0 -188.5 16t-113.5 36q-10 6 -10 19q0 11 5 19l26 51q4 8 15 8q7 0 21 -4q43 -13 105 -24t136 -11q69 0 117.5 8.5t48.5 34.5q0 21 -39 32.5
t-140 28.5l-36 6q-84 13 -135.5 26t-86.5 43t-35 83q0 79 77.5 115t211.5 36q99 0 174 -15.5t108 -32.5q17 -10 17 -21q0 -7 -5 -20l-20 -46q-5 -13 -23 -13q-9 0 -17 3q-37 12 -101.5 23.5t-134.5 11.5q-145 0 -145 -42q0 -12 15.5 -20zM244 578q-13 0 -22.5 4.5
t-21.5 18.5l-59 69q-5 7 -5 14t5 12t16 5h65q12 0 21 -3.5t20 -9.5l62 -45l62 45q11 6 20 9.5t21 3.5h65q11 0 16 -5t5 -12t-5 -14l-59 -69q-12 -14 -21.5 -18.5t-22.5 -4.5h-162z" />
    <glyph glyph-name="uni0162" unicode="&#x162;" horiz-adv-x="1089" 
d="M1040 691q9 -9 9 -26v-76q0 -16 -9 -25.5t-26 -9.5h-383q-10 0 -10 -10v-509q0 -13 -6 -22l-38 -71q66 -13 103.5 -45t37.5 -91q0 -91 -80 -127t-203 -36h-23q-26 0 -49.5 3t-42.5 6q-13 3 -13 17v86q0 16 16 14q48 -4 93 -4h20q79 0 107 10.5t28 30.5q0 46 -140 46
q-16 0 -16 15v73q0 5 3.5 11t4.5 8l45 77v508q0 10 -10 10h-383q-16 0 -25.5 9.5t-9.5 25.5v76q0 17 9.5 26t25.5 9h939q17 0 26 -9z" />
    <glyph glyph-name="uni0163" unicode="&#x163;" horiz-adv-x="538" 
d="M459 -59.5q43 -24.5 43 -84.5q0 -77 -67.5 -104t-180.5 -27q-71 0 -103 9q-13 3 -13 17v73q0 14 16 14q72 -3 102 -3q65 0 88.5 8t23.5 23q0 17 -29.5 26t-120.5 9q-9 0 -14.5 4.5t-1.5 10.5l55 91q-77 28 -77 132v243q0 10 -10 10h-110q-25 0 -25 25v66q0 25 25 25h110
q10 0 10 10v157q0 25 25 25h91q25 0 25 -25v-157q0 -10 10 -10h134q25 0 25 -25v-66q0 -25 -25 -25h-134q-10 0 -10 -10v-221q0 -48 46 -48q62 0 84 7q8 2 11 2q16 0 21 -17l16 -55q1 -3 1 -10q0 -17 -15 -22q-49 -19 -128 -23l-19 -27q78 -3 121 -27.5z" />
    <glyph glyph-name="Tcaron" unicode="&#x164;" horiz-adv-x="1089" 
d="M477.5 9.5q-9.5 9.5 -9.5 25.5v509q0 10 -10 10h-383q-16 0 -25.5 9.5t-9.5 25.5v76q0 17 9.5 26t25.5 9h939q17 0 26 -9t9 -26v-76q0 -16 -9 -25.5t-26 -9.5h-383q-10 0 -10 -10v-509q0 -16 -9 -25.5t-26 -9.5h-83q-16 0 -25.5 9.5zM440 769q-13 0 -22.5 4.5t-21.5 18.5
l-59 69q-5 7 -5 14t5 12t16 5h65q12 0 21 -3.5t20 -9.5l62 -45l62 45q11 6 20 9.5t21 3.5h65q11 0 16 -5t5 -12t-5 -14l-59 -69q-12 -14 -21.5 -18.5t-22.5 -4.5h-162z" />
    <glyph glyph-name="tcaron" unicode="&#x165;" horiz-adv-x="538" 
d="M394 607q-12 0 -19.5 8t-7.5 22v167q0 22 22 22h80q10 0 15.5 -6t5.5 -16v-131q0 -25 -26 -37l-54 -25q-12 -4 -16 -4zM220 28q-40 33 -40 111v243q0 10 -10 10h-110q-25 0 -25 25v66q0 25 25 25h110q10 0 10 10v157q0 25 25 25h91q25 0 25 -25v-157q0 -10 10 -10h134
q25 0 25 -25v-66q0 -25 -25 -25h-134q-10 0 -10 -10v-221q0 -48 46 -48q62 0 84 7q8 2 11 2q16 0 21 -17l16 -55q1 -3 1 -10q0 -17 -15 -22q-30 -11 -72 -17t-76 -6q-77 0 -117 33z" />
    <glyph glyph-name="Tbar" unicode="&#x166;" horiz-adv-x="1089" 
d="M1040 691q9 -9 9 -26v-76q0 -16 -9 -25.5t-26 -9.5h-383q-10 0 -10 -10v-54h136q25 0 25 -25v-39q0 -25 -25 -25h-136v-366q0 -16 -9 -25.5t-26 -9.5h-83q-16 0 -25.5 9.5t-9.5 25.5v366h-132q-25 0 -25 25v39q0 25 25 25h132v54q0 10 -10 10h-383q-16 0 -25.5 9.5
t-9.5 25.5v76q0 17 9.5 26t25.5 9h939q17 0 26 -9z" />
    <glyph glyph-name="tbar" unicode="&#x167;" horiz-adv-x="538" 
d="M500 40q0 -17 -15 -22q-30 -11 -72 -17t-76 -6q-77 0 -117 33t-40 111v85h-120q-25 0 -25 25v66q0 25 25 25h120v42q0 10 -10 10h-110q-25 0 -25 25v66q0 25 25 25h110q10 0 10 10v157q0 25 25 25h91q25 0 25 -25v-157q0 -10 10 -10h134q25 0 25 -25v-66q0 -25 -25 -25
h-134q-10 0 -10 -10v-42h144q25 0 25 -25v-66q0 -25 -25 -25h-144v-63q0 -48 46 -48q62 0 84 7q8 2 11 2q16 0 21 -17l16 -55q1 -3 1 -10z" />
    <glyph glyph-name="Umacron" unicode="&#x16a;" horiz-adv-x="1136" 
d="M1057 691q9 -9 9 -26v-315q0 -190 -121.5 -276t-360.5 -86h-32q-239 0 -360.5 86t-121.5 276v315q0 17 9.5 26t25.5 9h83q17 0 26 -9t9 -26v-315q0 -75 32.5 -122.5t104.5 -71t192 -23.5h32q122 0 194 23.5t103.5 70.5t31.5 123v315q0 17 9.5 26t25.5 9h83q17 0 26 -9z
M357 892h421q25 0 25 -25v-39q0 -25 -25 -25h-421q-25 0 -25 25v39q0 25 25 25z" />
    <glyph glyph-name="umacron" unicode="&#x16b;" 
d="M121 55.5q-66 62.5 -66 189.5v238q0 25 25 25h91q25 0 25 -25v-238q0 -74 48 -104.5t157 -30.5q110 0 158.5 30.5t48.5 104.5v238q0 25 25 25h92q25 0 25 -25v-458q0 -25 -25 -25h-92q-25 0 -25 25v66q0 6 -3.5 7t-6.5 -3q-57 -102 -256 -102q-155 0 -221 62.5zM194 700
h421q25 0 25 -25v-39q0 -25 -25 -25h-421q-25 0 -25 25v39q0 25 25 25z" />
    <glyph glyph-name="Ubreve" unicode="&#x16c;" horiz-adv-x="1136" 
d="M1057 691q9 -9 9 -26v-315q0 -190 -121.5 -276t-360.5 -86h-32q-239 0 -360.5 86t-121.5 276v315q0 17 9.5 26t25.5 9h83q17 0 26 -9t9 -26v-315q0 -75 32.5 -122.5t104.5 -71t192 -23.5h32q122 0 194 23.5t103.5 70.5t31.5 123v315q0 17 9.5 26t25.5 9h83q17 0 26 -9z
M742 867q-2 -57 -39.5 -85t-134.5 -28t-135 28t-40 85q0 25 24 25h45q21 0 26 -24q5 -21 24 -29.5t56 -8.5t55.5 8.5t23.5 29.5q5 24 26 24h45q24 0 24 -25z" />
    <glyph glyph-name="ubreve" unicode="&#x16d;" 
d="M121 55.5q-66 62.5 -66 189.5v238q0 25 25 25h91q25 0 25 -25v-238q0 -74 48 -104.5t157 -30.5q110 0 158.5 30.5t48.5 104.5v238q0 25 25 25h92q25 0 25 -25v-458q0 -25 -25 -25h-92q-25 0 -25 25v66q0 6 -3.5 7t-6.5 -3q-57 -102 -256 -102q-155 0 -221 62.5zM579 675
q-2 -57 -39.5 -85t-134.5 -28t-135 28t-40 85q0 25 24 25h45q21 0 26 -24q5 -21 24 -29.5t56 -8.5t55.5 8.5t23.5 29.5q5 24 26 24h45q24 0 24 -25z" />
    <glyph glyph-name="Uring" unicode="&#x16e;" horiz-adv-x="1136" 
d="M1057 691q9 -9 9 -26v-315q0 -190 -121.5 -276t-360.5 -86h-32q-239 0 -360.5 86t-121.5 276v315q0 17 9.5 26t25.5 9h83q17 0 26 -9t9 -26v-315q0 -75 32.5 -122.5t104.5 -71t192 -23.5h32q122 0 194 23.5t103.5 70.5t31.5 123v315q0 17 9.5 26t25.5 9h83q17 0 26 -9z
M663 901q30 -20 30 -64t-30 -64t-88 -20h-16q-58 0 -87.5 20t-29.5 64t29.5 64t87.5 20h16q58 0 88 -20zM601.5 819.5q7.5 4.5 7.5 17.5t-7.5 17.5t-29.5 4.5h-9q-23 0 -30.5 -4.5t-7.5 -17.5t7.5 -17.5t30.5 -4.5h9q22 0 29.5 4.5z" />
    <glyph glyph-name="uring" unicode="&#x16f;" 
d="M121 55.5q-66 62.5 -66 189.5v238q0 25 25 25h91q25 0 25 -25v-238q0 -74 48 -104.5t157 -30.5q110 0 158.5 30.5t48.5 104.5v238q0 25 25 25h92q25 0 25 -25v-458q0 -25 -25 -25h-92q-25 0 -25 25v66q0 6 -3.5 7t-6.5 -3q-57 -102 -256 -102q-155 0 -221 62.5zM500 709
q30 -20 30 -64t-30 -64t-88 -20h-16q-58 0 -87.5 20t-29.5 64t29.5 64t87.5 20h16q58 0 88 -20zM438.5 627.5q7.5 4.5 7.5 17.5t-7.5 17.5t-29.5 4.5h-9q-23 0 -30.5 -4.5t-7.5 -17.5t7.5 -17.5t30.5 -4.5h9q22 0 29.5 4.5z" />
    <glyph glyph-name="Uhungarumlaut" unicode="&#x170;" horiz-adv-x="1136" 
d="M1057 691q9 -9 9 -26v-315q0 -190 -121.5 -276t-360.5 -86h-32q-239 0 -360.5 86t-121.5 276v315q0 17 9.5 26t25.5 9h83q17 0 26 -9t9 -26v-315q0 -75 32.5 -122.5t104.5 -71t192 -23.5h32q122 0 194 23.5t103.5 70.5t31.5 123v315q0 17 9.5 26t25.5 9h83q17 0 26 -9z
M875.5 888q5.5 -4 5.5 -10q0 -8 -9 -17l-92 -87q-13 -13 -31 -13h-110q-10 0 -15.5 4t-5.5 10q0 9 8 17l83 87q12 13 31 13h121q9 0 14.5 -4zM666.5 888q5.5 -4 5.5 -10q0 -8 -9 -17l-92 -87q-13 -13 -31 -13h-110q-10 0 -15.5 4t-5.5 10q0 9 8 17l83 87q12 13 31 13h121
q9 0 14.5 -4z" />
    <glyph glyph-name="uhungarumlaut" unicode="&#x171;" 
d="M121 55.5q-66 62.5 -66 189.5v238q0 25 25 25h91q25 0 25 -25v-238q0 -74 48 -104.5t157 -30.5q110 0 158.5 30.5t48.5 104.5v238q0 25 25 25h92q25 0 25 -25v-458q0 -25 -25 -25h-92q-25 0 -25 25v66q0 6 -3.5 7t-6.5 -3q-57 -102 -256 -102q-155 0 -221 62.5z
M712.5 696q5.5 -4 5.5 -10q0 -8 -9 -17l-92 -87q-13 -13 -31 -13h-110q-10 0 -15.5 4t-5.5 10q0 9 8 17l83 87q12 13 31 13h121q9 0 14.5 -4zM503.5 696q5.5 -4 5.5 -10q0 -8 -9 -17l-92 -87q-13 -13 -31 -13h-110q-10 0 -15.5 4t-5.5 10q0 9 8 17l83 87q12 13 31 13h121
q9 0 14.5 -4z" />
    <glyph glyph-name="Uogonek" unicode="&#x172;" horiz-adv-x="1136" 
d="M1057 691q9 -9 9 -26v-315q0 -190 -121.5 -276t-360.5 -86q-72 0 -101 -11.5t-29 -32.5q0 -20 27 -30.5t95 -10.5q45 0 93 4h2q14 0 14 -14v-86q0 -14 -13 -17q-38 -9 -101 -9q-106 0 -185 31t-79 103q0 61 63 88q-149 28 -224.5 113t-75.5 234v315q0 17 9.5 26t25.5 9
h83q17 0 26 -9t9 -26v-315q0 -75 32.5 -122.5t104.5 -71t192 -23.5h32q122 0 194 23.5t103.5 70.5t31.5 123v315q0 17 9.5 26t25.5 9h83q17 0 26 -9z" />
    <glyph glyph-name="uogonek" unicode="&#x173;" 
d="M808 -81q14 0 14 -14v-86q0 -14 -13 -17q-38 -9 -101 -9q-106 0 -185 31t-79 103q0 51 42.5 77.5t121.5 33.5v53q0 6 -3.5 7t-6.5 -3q-57 -102 -256 -102q-155 0 -221 62.5t-66 189.5v238q0 25 25 25h91q25 0 25 -25v-238q0 -74 48 -104.5t157 -30.5q110 0 158.5 30.5
t48.5 104.5v238q0 25 25 25h92q25 0 25 -25v-458q0 -25 -25 -25h-4q-72 0 -101 -11.5t-29 -32.5q0 -20 27 -30.5t95 -10.5q45 0 93 4h2z" />
    <glyph glyph-name="Wcircumflex" unicode="&#x174;" horiz-adv-x="1642" 
d="M1604 694q8 -6 8 -15q0 -8 -8 -21l-445 -638q-15 -22 -44 -22h-76q-29 0 -44 22l-173 247l-176 -247q-15 -22 -44 -22h-75q-29 0 -44 22l-445 638q-8 13 -8 21q0 9 8 15t22 6h113q27 0 42 -22l351 -509l164 231l-181 258q-8 13 -8 21q0 9 8 15t22 6h113q28 0 42 -22
l351 -508l350 508q15 22 42 22h113q14 0 22 -6zM907.5 887.5q9.5 -4.5 21.5 -18.5l59 -69q5 -7 5 -14t-5 -12t-16 -5h-65q-12 0 -21 3.5t-20 9.5l-62 45l-62 -45q-11 -6 -20 -9.5t-21 -3.5h-65q-11 0 -16 5t-5 12t5 14l59 69q12 14 21.5 18.5t22.5 4.5h162q13 0 22.5 -4.5z
" />
    <glyph glyph-name="wcircumflex" unicode="&#x175;" horiz-adv-x="1222" 
d="M1196 492q0 -8 -5 -14l-324 -456q-15 -22 -44 -22h-65q-14 0 -24 5t-20 17l-105 148l-101 -148q-15 -22 -44 -22h-65q-14 0 -24 5t-20 17l-324 456q-5 6 -5 14q0 16 22 16h108q18 0 30 -17l238 -340q3 -4 7 -4t7 4l91 131l-139 196q-5 6 -5 14q0 16 22 16h109
q18 0 30 -17l238 -340q3 -4 7 -4t7 4l237 340q12 17 30 17h109q22 0 22 -16zM714.5 695.5q9.5 -4.5 21.5 -18.5l59 -69q5 -7 5 -14t-5 -12t-16 -5h-65q-12 0 -21 3.5t-20 9.5l-62 45l-62 -45q-11 -6 -20 -9.5t-21 -3.5h-65q-11 0 -16 5t-5 12t5 14l59 69q12 14 21.5 18.5
t22.5 4.5h162q13 0 22.5 -4.5z" />
    <glyph glyph-name="Ycircumflex" unicode="&#x176;" horiz-adv-x="1047" 
d="M1009 694.5q8 -5.5 8 -13.5q0 -11 -14 -24l-404 -363v-259q0 -16 -9 -25.5t-26 -9.5h-83q-16 0 -25.5 9.5t-9.5 25.5v260l-402 362q-14 14 -14 24q0 8 8 13.5t22 5.5h131q28 0 44 -16l282 -255q3 -3 7.5 -2.5t6.5 2.5l281 255q19 16 44 16h131q14 0 22 -5.5zM627.5 887.5
q9.5 -4.5 21.5 -18.5l59 -69q5 -7 5 -14t-5 -12t-16 -5h-65q-12 0 -21 3.5t-20 9.5l-62 45l-62 -45q-11 -6 -20 -9.5t-21 -3.5h-65q-11 0 -16 5t-5 12t5 14l59 69q12 14 21.5 18.5t22.5 4.5h162q13 0 22.5 -4.5z" />
    <glyph glyph-name="ycircumflex" unicode="&#x177;" horiz-adv-x="863" 
d="M837 492q0 -8 -5 -14l-324 -456q-6 -8 -10 -11l-132 -185q-12 -16 -30 -16h-97q-22 0 -22 14q0 7 6 16l130 185l-322 453q-5 6 -5 14q0 16 22 16h109q18 0 30 -17l237 -340q3 -4 7 -4t7 4l238 340q12 17 30 17h109q22 0 22 -16zM534.5 695.5q9.5 -4.5 21.5 -18.5l59 -69
q5 -7 5 -14t-5 -12t-16 -5h-65q-12 0 -21 3.5t-20 9.5l-62 45l-62 -45q-11 -6 -20 -9.5t-21 -3.5h-65q-11 0 -16 5t-5 12t5 14l59 69q12 14 21.5 18.5t22.5 4.5h162q13 0 22.5 -4.5z" />
    <glyph glyph-name="Ydieresis" unicode="&#x178;" horiz-adv-x="1047" 
d="M1009 694.5q8 -5.5 8 -13.5q0 -11 -14 -24l-404 -363v-259q0 -16 -9 -25.5t-26 -9.5h-83q-16 0 -25.5 9.5t-9.5 25.5v260l-402 362q-14 14 -14 24q0 8 8 13.5t22 5.5h131q28 0 44 -16l282 -255q3 -3 7.5 -2.5t6.5 2.5l281 255q19 16 44 16h131q14 0 22 -5.5zM299.5 797
q-18.5 10 -18.5 34v27q0 24 18.5 34t63.5 10q44 0 62 -10t18 -34v-27q0 -24 -18 -34t-62 -10q-45 0 -63.5 10zM623.5 797q-18.5 10 -18.5 34v27q0 24 18.5 34t63.5 10q44 0 62 -10t18 -34v-27q0 -24 -18 -34t-62 -10q-45 0 -63.5 10z" />
    <glyph glyph-name="Zacute" unicode="&#x179;" horiz-adv-x="1008" 
d="M59.5 9.5q-9.5 9.5 -9.5 25.5v82q0 14 5.5 24t18.5 19l623 397h-612q-16 0 -25.5 9.5t-9.5 25.5v73q0 17 9.5 26t25.5 9h833q17 0 26 -9t9 -26v-82q0 -14 -5.5 -24t-18.5 -19l-623 -397h617q17 0 26 -9t9 -26v-73q0 -16 -9 -25.5t-26 -9.5h-838q-16 0 -25.5 9.5z
M695.5 888q5.5 -4 5.5 -10q0 -8 -9 -17l-92 -87q-13 -13 -31 -13h-110q-10 0 -15.5 4t-5.5 10q0 9 8 17l83 87q12 13 31 13h121q9 0 14.5 -4z" />
    <glyph glyph-name="zacute" unicode="&#x17a;" horiz-adv-x="753" 
d="M40 25v70q0 11 3.5 18.5t12.5 13.5l426 253q5 3 5 6q0 2 -2.5 4t-6.5 2h-411q-25 0 -25 25v66q0 25 25 25h615q25 0 25 -25v-70q0 -11 -3.5 -18.5t-12.5 -13.5l-426 -253q-5 -3 -5 -6q0 -2 2.5 -4t6.5 -2h419q25 0 25 -25v-66q0 -25 -25 -25h-623q-25 0 -25 25z
M567.5 696q5.5 -4 5.5 -10q0 -8 -9 -17l-92 -87q-13 -13 -31 -13h-110q-10 0 -15.5 4t-5.5 10q0 9 8 17l83 87q12 13 31 13h121q9 0 14.5 -4z" />
    <glyph glyph-name="Zdotaccent" unicode="&#x17b;" horiz-adv-x="1008" 
d="M59.5 9.5q-9.5 9.5 -9.5 25.5v82q0 14 5.5 24t18.5 19l623 397h-612q-16 0 -25.5 9.5t-9.5 25.5v73q0 17 9.5 26t25.5 9h833q17 0 26 -9t9 -26v-82q0 -14 -5.5 -24t-18.5 -19l-623 -397h617q17 0 26 -9t9 -26v-73q0 -16 -9 -25.5t-26 -9.5h-838q-16 0 -25.5 9.5z
M442.5 797q-18.5 10 -18.5 34v27q0 24 18.5 34t63.5 10q44 0 62 -10t18 -34v-27q0 -24 -18 -34t-62 -10q-45 0 -63.5 10z" />
    <glyph glyph-name="zdotaccent" unicode="&#x17c;" horiz-adv-x="753" 
d="M40 25v70q0 11 3.5 18.5t12.5 13.5l426 253q5 3 5 6q0 2 -2.5 4t-6.5 2h-411q-25 0 -25 25v66q0 25 25 25h615q25 0 25 -25v-70q0 -11 -3.5 -18.5t-12.5 -13.5l-426 -253q-5 -3 -5 -6q0 -2 2.5 -4t6.5 -2h419q25 0 25 -25v-66q0 -25 -25 -25h-623q-25 0 -25 25z
M314.5 605q-18.5 10 -18.5 34v27q0 24 18.5 34t63.5 10q44 0 62 -10t18 -34v-27q0 -24 -18 -34t-62 -10q-45 0 -63.5 10z" />
    <glyph glyph-name="Zcaron" unicode="&#x17d;" horiz-adv-x="1008" 
d="M59.5 9.5q-9.5 9.5 -9.5 25.5v82q0 14 5.5 24t18.5 19l623 397h-612q-16 0 -25.5 9.5t-9.5 25.5v73q0 17 9.5 26t25.5 9h833q17 0 26 -9t9 -26v-82q0 -14 -5.5 -24t-18.5 -19l-623 -397h617q17 0 26 -9t9 -26v-73q0 -16 -9 -25.5t-26 -9.5h-838q-16 0 -25.5 9.5zM400 769
q-13 0 -22.5 4.5t-21.5 18.5l-59 69q-5 7 -5 14t5 12t16 5h65q12 0 21 -3.5t20 -9.5l62 -45l62 45q11 6 20 9.5t21 3.5h65q11 0 16 -5t5 -12t-5 -14l-59 -69q-12 -14 -21.5 -18.5t-22.5 -4.5h-162z" />
    <glyph glyph-name="zcaron" unicode="&#x17e;" horiz-adv-x="753" 
d="M40 25v70q0 11 3.5 18.5t12.5 13.5l426 253q5 3 5 6q0 2 -2.5 4t-6.5 2h-411q-25 0 -25 25v66q0 25 25 25h615q25 0 25 -25v-70q0 -11 -3.5 -18.5t-12.5 -13.5l-426 -253q-5 -3 -5 -6q0 -2 2.5 -4t6.5 -2h419q25 0 25 -25v-66q0 -25 -25 -25h-623q-25 0 -25 25zM271 577
q-13 0 -22.5 4.5t-21.5 18.5l-59 69q-5 7 -5 14t5 12t16 5h65q12 0 21 -3.5t20 -9.5l62 -45l62 45q11 6 20 9.5t21 3.5h65q11 0 16 -5t5 -12t-5 -14l-59 -69q-12 -14 -21.5 -18.5t-22.5 -4.5h-162z" />
    <glyph glyph-name="florin" unicode="&#x192;" horiz-adv-x="1143" 
d="M1115 681q0 -14 -18 -29l-42 -35q-9 -8 -22 -8q-12 0 -30 8q-31 13 -65 19.5t-86 6.5q-106 0 -156.5 -28.5t-50.5 -96.5v-10h270q25 0 25 -25v-66q0 -25 -25 -25h-270v-340q0 -119 -87 -180.5t-275 -61.5q-72 0 -137.5 15.5t-99.5 43.5q-12 10 -12 20q0 14 18 29l42 35
q9 8 22 8q12 0 30 -8q31 -13 65 -19.5t85 -6.5q106 0 157 28.5t51 96.5v340h-211q-25 0 -25 25v66q0 25 25 25h211v10q0 119 87 180.5t275 61.5q72 0 137 -15.5t100 -43.5q12 -10 12 -20z" />
    <glyph glyph-name="uni01CD" unicode="&#x1cd;" horiz-adv-x="1186" 
d="M1156 21q0 -9 -8 -15t-22 -6h-109q-27 0 -42 22l-87 123h-590l-87 -123q-15 -22 -42 -22h-109q-14 0 -22 6t-8 15q0 10 8 21l459 638q9 12 19.5 17t24.5 5h104q14 0 24.5 -5t19.5 -17l459 -638q8 -11 8 -21zM386 270h414l-207 292zM488 769q-13 0 -22.5 4.5t-21.5 18.5
l-59 69q-5 7 -5 14t5 12t16 5h65q12 0 21 -3.5t20 -9.5l62 -45l62 45q11 6 20 9.5t21 3.5h65q11 0 16 -5t5 -12t-5 -14l-59 -69q-12 -14 -21.5 -18.5t-22.5 -4.5h-162z" />
    <glyph glyph-name="uni01CE" unicode="&#x1ce;" horiz-adv-x="791" 
d="M108.5 32.5q-63.5 39.5 -63.5 121.5q0 83 62 117.5t172 34.5h262q10 0 10 10v5q0 43 -44.5 61t-144.5 18q-63 0 -106 -5.5t-89 -14.5l-36 -7q-14 -2 -24 4.5t-10 22.5v28q0 20 6.5 31t26.5 21q30 14 89 24.5t147 10.5q170 0 246.5 -44.5t76.5 -138.5v-193q0 -18 9.5 -27
t26.5 -9h16q25 0 25 -25v-17q0 -27 -23.5 -44t-62.5 -17h-10q-105 0 -117 91q-21 -55 -81 -76.5t-128 -21.5h-65q-107 0 -170.5 39.5zM460 111q43 4 67 18t24 44v24q0 10 -10 10h-255q-50 0 -77.5 -10t-27.5 -39q0 -30 27.5 -40.5t77.5 -10.5h50q81 0 124 4zM292 577
q-13 0 -22.5 4.5t-21.5 18.5l-59 69q-5 7 -5 14t5 12t16 5h65q12 0 21 -3.5t20 -9.5l62 -45l62 45q11 6 20 9.5t21 3.5h65q11 0 16 -5t5 -12t-5 -14l-59 -69q-12 -14 -21.5 -18.5t-22.5 -4.5h-162z" />
    <glyph glyph-name="uni01CF" unicode="&#x1cf;" horiz-adv-x="303" 
d="M84.5 9.5q-9.5 9.5 -9.5 25.5v630q0 17 9.5 26t25.5 9h83q17 0 26 -9t9 -26v-630q0 -16 -9 -25.5t-26 -9.5h-83q-16 0 -25.5 9.5zM47 769q-13 0 -22.5 4.5t-21.5 18.5l-59 69q-5 7 -5 14t5 12t16 5h65q12 0 21 -3.5t20 -9.5l62 -45l62 45q11 6 20 9.5t21 3.5h65
q11 0 16 -5t5 -12t-5 -14l-59 -69q-12 -14 -21.5 -18.5t-22.5 -4.5h-162z" />
    <glyph glyph-name="uni01D0" unicode="&#x1d0;" horiz-adv-x="261" 
d="M201 483v-458q0 -25 -25 -25h-91q-25 0 -25 25v458q0 25 25 25h91q25 0 25 -25zM26 577q-13 0 -22.5 4.5t-21.5 18.5l-59 69q-5 7 -5 14t5 12t16 5h65q12 0 21 -3.5t20 -9.5l62 -45l62 45q11 6 20 9.5t21 3.5h65q11 0 16 -5t5 -12t-5 -14l-59 -69q-12 -14 -21.5 -18.5
t-22.5 -4.5h-162z" />
    <glyph glyph-name="uni01D1" unicode="&#x1d1;" horiz-adv-x="1188" 
d="M179 74q-129 86 -129 276q0 189 129 275.5t377 86.5h75q248 0 377.5 -86.5t129.5 -275.5q0 -190 -129 -276t-378 -86h-75q-248 0 -377 86zM899 184.5q82 53.5 82 165.5q0 110 -82.5 164.5t-267.5 54.5h-75q-184 0 -266.5 -54.5t-82.5 -164.5q0 -112 82 -165.5t267 -53.5
h75q186 0 268 53.5zM489 769q-13 0 -22.5 4.5t-21.5 18.5l-59 69q-5 7 -5 14t5 12t16 5h65q12 0 21 -3.5t20 -9.5l62 -45l62 45q11 6 20 9.5t21 3.5h65q11 0 16 -5t5 -12t-5 -14l-59 -69q-12 -14 -21.5 -18.5t-22.5 -4.5h-162z" />
    <glyph glyph-name="uni01D2" unicode="&#x1d2;" horiz-adv-x="801" 
d="M126 60q-86 67 -86 195q0 127 86 194t274 67q189 0 275.5 -67t85.5 -194q-1 -128 -86.5 -195t-274.5 -67q-188 0 -274 67zM567.5 143.5q50.5 32.5 50.5 111.5t-50.5 111t-167.5 32q-116 0 -166.5 -32t-50.5 -111t50.5 -111.5t166.5 -32.5q117 0 167.5 32.5zM295 578
q-13 0 -22.5 4.5t-21.5 18.5l-59 69q-5 7 -5 14t5 12t16 5h65q12 0 21 -3.5t20 -9.5l62 -45l62 45q11 6 20 9.5t21 3.5h65q11 0 16 -5t5 -12t-5 -14l-59 -69q-12 -14 -21.5 -18.5t-22.5 -4.5h-162z" />
    <glyph glyph-name="uni01D3" unicode="&#x1d3;" horiz-adv-x="1136" 
d="M1057 691q9 -9 9 -26v-315q0 -190 -121.5 -276t-360.5 -86h-32q-239 0 -360.5 86t-121.5 276v315q0 17 9.5 26t25.5 9h83q17 0 26 -9t9 -26v-315q0 -75 32.5 -122.5t104.5 -71t192 -23.5h32q122 0 194 23.5t103.5 70.5t31.5 123v315q0 17 9.5 26t25.5 9h83q17 0 26 -9z
M463 769q-13 0 -22.5 4.5t-21.5 18.5l-59 69q-5 7 -5 14t5 12t16 5h65q12 0 21 -3.5t20 -9.5l62 -45l62 45q11 6 20 9.5t21 3.5h65q11 0 16 -5t5 -12t-5 -14l-59 -69q-12 -14 -21.5 -18.5t-22.5 -4.5h-162z" />
    <glyph glyph-name="uni01D4" unicode="&#x1d4;" 
d="M121 55.5q-66 62.5 -66 189.5v238q0 25 25 25h91q25 0 25 -25v-238q0 -74 48 -104.5t157 -30.5q110 0 158.5 30.5t48.5 104.5v238q0 25 25 25h92q25 0 25 -25v-458q0 -25 -25 -25h-92q-25 0 -25 25v66q0 6 -3.5 7t-6.5 -3q-57 -102 -256 -102q-155 0 -221 62.5zM300 577
q-13 0 -22.5 4.5t-21.5 18.5l-59 69q-5 7 -5 14t5 12t16 5h65q12 0 21 -3.5t20 -9.5l62 -45l62 45q11 6 20 9.5t21 3.5h65q11 0 16 -5t5 -12t-5 -14l-59 -69q-12 -14 -21.5 -18.5t-22.5 -4.5h-162z" />
    <glyph glyph-name="uni01EA" unicode="&#x1ea;" horiz-adv-x="1188" 
d="M621 -49q0 -19 27 -29.5t95 -10.5q45 0 93 4h2q14 0 14 -14v-86q0 -14 -13 -17q-42 -10 -101 -10q-106 0 -185 31t-79 104q0 41 28 66q-222 9 -337 95.5t-115 265.5q0 189 129 275.5t377 86.5h75q248 0 377.5 -86.5t129.5 -275.5q0 -184 -120.5 -270.5t-353.5 -91.5
q-43 -11 -43 -37zM289 184.5q82 -53.5 267 -53.5h75q186 0 268 53.5t82 165.5q0 110 -82.5 164.5t-267.5 54.5h-75q-184 0 -266.5 -54.5t-82.5 -164.5q0 -112 82 -165.5z" />
    <glyph glyph-name="uni01EB" unicode="&#x1eb;" horiz-adv-x="801" 
d="M675.5 449q86.5 -67 85.5 -194q-1 -128 -86.5 -195t-274.5 -67q-72 0 -101 -11.5t-29 -32.5q0 -20 27 -30.5t95 -10.5q45 0 93 4h2q14 0 14 -14v-86q0 -14 -13 -17q-37 -9 -101 -9q-106 0 -185 31t-79 103q0 71 89 97q-172 55 -172 238q0 127 86 194t274 67
q189 0 275.5 -67zM567.5 143.5q50.5 32.5 50.5 111.5t-50.5 111t-167.5 32q-116 0 -166.5 -32t-50.5 -111t50.5 -111.5t166.5 -32.5q117 0 167.5 32.5z" />
    <glyph glyph-name="uni0218" unicode="&#x218;" horiz-adv-x="1076" 
d="M237 12.5q-116 24.5 -165 54.5q-17 11 -17 30q0 13 7 24l28 48q10 16 29 16q10 0 22 -5q40 -17 154 -33t251 -16h12q159 0 230.5 20.5t71.5 51.5q0 24 -38.5 38.5t-99.5 22.5t-191 20q-167 16 -265 36.5t-154 63.5t-56 119q0 109 110.5 159t327.5 50h25q169 0 280 -26
t162 -56q17 -10 17 -26q0 -12 -9 -27l-30 -55q-8 -14 -24 -14q-11 0 -25 6q-57 21 -149 39t-221 18h-25q-281 0 -281 -66q0 -24 36.5 -38.5t99.5 -23.5t188 -22l38 -4q144 -14 232.5 -31t150.5 -60t62 -122q0 -216 -469 -216h-12q-187 0 -303 24.5zM519 -315q-11 0 -11 11
v70q0 22 -19 29l-14 5q-19 7 -19 29v70q0 25 25 25h95q25 0 25 -25v-142q0 -12 -12.5 -23.5t-37.5 -28.5q-7 -6 -21 -16q-5 -4 -11 -4z" />
    <glyph glyph-name="uni0219" unicode="&#x219;" horiz-adv-x="698" 
d="M202.5 344q15.5 -8 54.5 -16t91 -17l39 -6q89 -14 143.5 -28t93.5 -46t39 -87q0 -82 -86.5 -116.5t-221.5 -34.5q-107 0 -188.5 16t-113.5 36q-10 6 -10 19q0 11 5 19l26 51q4 8 15 8q7 0 21 -4q43 -13 105 -24t136 -11q69 0 117.5 8.5t48.5 34.5q0 21 -39 32.5
t-140 28.5l-36 6q-84 13 -135.5 26t-86.5 43t-35 83q0 79 77.5 115t211.5 36q99 0 174 -15.5t108 -32.5q17 -10 17 -21q0 -7 -5 -20l-20 -46q-5 -13 -23 -13q-9 0 -17 3q-37 12 -101.5 23.5t-134.5 11.5q-145 0 -145 -42q0 -12 15.5 -20zM335 -316q-11 0 -11 11v70
q0 22 -19 29l-14 5q-19 7 -19 29v70q0 25 25 25h95q25 0 25 -25v-142q0 -12 -12.5 -23.5t-37.5 -28.5q-7 -6 -21 -16q-5 -4 -11 -4z" />
    <glyph glyph-name="uni021A" unicode="&#x21a;" horiz-adv-x="1089" 
d="M477.5 9.5q-9.5 9.5 -9.5 25.5v509q0 10 -10 10h-383q-16 0 -25.5 9.5t-9.5 25.5v76q0 17 9.5 26t25.5 9h939q17 0 26 -9t9 -26v-76q0 -16 -9 -25.5t-26 -9.5h-383q-10 0 -10 -10v-509q0 -16 -9 -25.5t-26 -9.5h-83q-16 0 -25.5 9.5zM531 -315q-11 0 -11 11v70
q0 22 -19 29l-14 5q-19 7 -19 29v70q0 25 25 25h95q25 0 25 -25v-142q0 -12 -12.5 -23.5t-37.5 -28.5q-7 -6 -21 -16q-5 -4 -11 -4z" />
    <glyph glyph-name="uni021B" unicode="&#x21b;" horiz-adv-x="538" 
d="M220 28q-40 33 -40 111v243q0 10 -10 10h-110q-25 0 -25 25v66q0 25 25 25h110q10 0 10 10v157q0 25 25 25h91q25 0 25 -25v-157q0 -10 10 -10h134q25 0 25 -25v-66q0 -25 -25 -25h-134q-10 0 -10 -10v-221q0 -48 46 -48q62 0 84 7q8 2 11 2q16 0 21 -17l16 -55
q1 -3 1 -10q0 -17 -15 -22q-30 -11 -72 -17t-76 -6q-77 0 -117 33zM315 -315q-11 0 -11 11v70q0 22 -19 29l-14 5q-19 7 -19 29v70q0 25 25 25h95q25 0 25 -25v-142q0 -12 -12.5 -23.5t-37.5 -28.5q-7 -6 -21 -16q-5 -4 -11 -4z" />
    <glyph glyph-name="uni0237" unicode="&#x237;" horiz-adv-x="382" 
d="M32 -198.5q-7 6.5 -7 18.5v71q0 12 7 18.5t20 6.5q75 0 107 23t32 84v460q0 25 25 25h91q25 0 25 -25v-460q0 -80 -18 -127.5t-72.5 -74t-160.5 -26.5h-29q-13 0 -20 6.5z" />
    <glyph glyph-name="circumflex" unicode="&#x2c6;" horiz-adv-x="378" 
d="M292.5 695.5q9.5 -4.5 21.5 -18.5l59 -69q5 -7 5 -14t-5 -12t-16 -5h-65q-12 0 -21 3.5t-20 9.5l-62 45l-62 -45q-11 -6 -20 -9.5t-21 -3.5h-65q-11 0 -16 5t-5 12t5 14l59 69q12 14 21.5 18.5t22.5 4.5h162q13 0 22.5 -4.5z" />
    <glyph glyph-name="caron" unicode="&#x2c7;" horiz-adv-x="426" 
d="M108 577q-13 0 -22.5 4.5t-21.5 18.5l-59 69q-5 7 -5 14t5 12t16 5h65q12 0 21 -3.5t20 -9.5l62 -45l62 45q11 6 20 9.5t21 3.5h65q11 0 16 -5t5 -12t-5 -14l-59 -69q-12 -14 -21.5 -18.5t-22.5 -4.5h-162z" />
    <glyph glyph-name="breve" unicode="&#x2d8;" horiz-adv-x="349" 
d="M349 675q-2 -57 -39.5 -85t-134.5 -28t-135 28t-40 85q0 25 24 25h45q21 0 26 -24q5 -21 24 -29.5t56 -8.5t55.5 8.5t23.5 29.5q5 24 26 24h45q24 0 24 -25z" />
    <glyph glyph-name="dotaccent" unicode="&#x2d9;" horiz-adv-x="162" 
d="M18.5 605q-18.5 10 -18.5 34v27q0 24 18.5 34t63.5 10q44 0 62 -10t18 -34v-27q0 -24 -18 -34t-62 -10q-45 0 -63.5 10z" />
    <glyph glyph-name="ring" unicode="&#x2da;" horiz-adv-x="251" 
d="M221 709q30 -20 30 -64t-30 -64t-88 -20h-16q-58 0 -87.5 20t-29.5 64t29.5 64t87.5 20h16q58 0 88 -20zM159.5 627.5q7.5 4.5 7.5 17.5t-7.5 17.5t-29.5 4.5h-9q-23 0 -30.5 -4.5t-7.5 -17.5t7.5 -17.5t30.5 -4.5h9q22 0 29.5 4.5z" />
    <glyph glyph-name="ogonek" unicode="&#x2db;" horiz-adv-x="378" 
d="M79 -176q-79 31 -79 103q0 63 63.5 88.5t177.5 25.5h36v-41q-72 0 -101 -11.5t-29 -32.5q0 -20 27 -30.5t95 -10.5q45 0 93 4h2q14 0 14 -14v-86q0 -14 -13 -17q-37 -9 -101 -9q-106 0 -185 31z" />
    <glyph glyph-name="tilde" unicode="&#x2dc;" horiz-adv-x="352" 
d="M10 698q16 9 31.5 11.5t34.5 2.5q25 0 46 -4.5t54 -13.5q32 -9 54 -13.5t46 -4.5q36 0 58 10l8 2q10 0 10 -12v-71q0 -12 -10 -18q-16 -9 -31.5 -11.5t-34.5 -2.5q-24 0 -46 4.5t-54 13.5q-33 9 -54 13.5t-46 4.5q-36 0 -58 -10l-8 -2q-10 0 -10 12v71q0 12 10 18z" />
    <glyph glyph-name="hungarumlaut" unicode="&#x2dd;" horiz-adv-x="454" 
d="M466.5 696q5.5 -4 5.5 -10q0 -8 -9 -17l-92 -87q-13 -13 -31 -13h-110q-10 0 -15.5 4t-5.5 10q0 9 8 17l83 87q12 13 31 13h121q9 0 14.5 -4zM257.5 696q5.5 -4 5.5 -10q0 -8 -9 -17l-92 -87q-13 -13 -31 -13h-110q-10 0 -15.5 4t-5.5 10q0 9 8 17l83 87q12 13 31 13h121
q9 0 14.5 -4z" />
    <glyph glyph-name="acutecomb" unicode="&#x301;" horiz-adv-x="0" 
d="M-5.5 696q5.5 -4 5.5 -10q0 -8 -9 -17l-92 -87q-13 -13 -31 -13h-110q-10 0 -15.5 4t-5.5 10q0 9 8 17l83 87q12 13 31 13h121q9 0 14.5 -4z" />
    <glyph glyph-name="uni0326" unicode="&#x326;" horiz-adv-x="0" 
d="M-90 -315q-11 0 -11 11v70q0 22 -19 29l-14 5q-19 7 -19 29v70q0 25 25 25h95q25 0 25 -25v-142q0 -12 -12.5 -23.5t-37.5 -28.5q-7 -6 -21 -16q-5 -4 -11 -4z" />
    <glyph glyph-name="uni0394" unicode="&#x394;" horiz-adv-x="1170" 
d="M1140 21q0 -9 -8 -15t-22 -6h-1050q-14 0 -22 6t-8 15q0 10 8 21l470 638q9 12 19.5 17t24.5 5h66q14 0 24.5 -5t19.5 -17l470 -638q8 -11 8 -21zM585 538l-298 -410h596z" />
    <glyph glyph-name="uni03A9" unicode="&#x3a9;" horiz-adv-x="1245" 
d="M1186 137q9 -9 9 -26v-76q0 -16 -9 -25.5t-26 -9.5h-306q-16 0 -25.5 9.5t-9.5 25.5v85q0 30 30 40q83 27 115.5 70.5t32.5 119.5q0 74 -34.5 120.5t-112 69.5t-205.5 23h-45q-128 0 -205.5 -23t-112 -69.5t-34.5 -120.5q0 -76 32.5 -119.5t115.5 -70.5q30 -10 30 -40
v-85q0 -16 -9 -25.5t-26 -9.5h-306q-16 0 -25.5 9.5t-9.5 25.5v76q0 17 9.5 26t25.5 9h88q-33 31 -58 83t-25 121q0 189 129 273.5t381 84.5h45q252 0 381 -84.5t129 -273.5q0 -69 -25 -121t-58 -83h88q17 0 26 -9z" />
    <glyph glyph-name="uni03BC" unicode="&#x3bc;" 
d="M750 483v-458q0 -25 -25 -25h-92q-25 0 -25 25v66q0 6 -3.5 7t-6.5 -3q-57 -102 -256 -102q-86 0 -146 20v-168q0 -17 -9 -26t-26 -9h-71q-16 0 -25.5 9t-9.5 26v638q0 25 25 25h91q25 0 25 -25v-238q0 -74 48 -104.5t157 -30.5q110 0 158.5 30.5t48.5 104.5v238
q0 25 25 25h92q25 0 25 -25z" />
    <glyph glyph-name="pi" unicode="&#x3c0;" horiz-adv-x="1198" 
d="M1114 499q9 -9 9 -26v-76q0 -16 -9 -25.5t-26 -9.5h-119v-327q0 -16 -9 -25.5t-26 -9.5h-83q-16 0 -25.5 9.5t-9.5 25.5v327h-434v-327q0 -16 -9 -25.5t-26 -9.5h-83q-16 0 -25.5 9.5t-9.5 25.5v327h-119q-16 0 -25.5 9.5t-9.5 25.5v76q0 17 9.5 26t25.5 9h978
q17 0 26 -9z" />
    <glyph glyph-name="uni0401" unicode="&#x401;" horiz-adv-x="1041" 
d="M84.5 9.5q-9.5 9.5 -9.5 25.5v630q0 17 9.5 26t25.5 9h846q17 0 26 -9t9 -26v-76q0 -16 -9 -25.5t-26 -9.5h-718q-10 0 -10 -10v-122q0 -10 10 -10h669q17 0 26 -9t9 -25v-65q0 -16 -9 -25t-26 -9h-669q-10 0 -10 -10v-113q0 -10 10 -10h718q17 0 26 -9t9 -26v-76
q0 -16 -9 -25.5t-26 -9.5h-846q-16 0 -25.5 9.5zM318.5 797q-18.5 10 -18.5 34v27q0 24 18.5 34t63.5 10q44 0 62 -10t18 -34v-27q0 -24 -18 -34t-62 -10q-45 0 -63.5 10zM642.5 797q-18.5 10 -18.5 34v27q0 24 18.5 34t63.5 10q44 0 62 -10t18 -34v-27q0 -24 -18 -34
t-62 -10q-45 0 -63.5 10z" />
    <glyph glyph-name="uni0403" unicode="&#x403;" horiz-adv-x="1005" 
d="M84.5 9.5q-9.5 9.5 -9.5 25.5v630q0 17 9.5 26t25.5 9h820q17 0 26 -9t9 -26v-76q0 -16 -9 -25.5t-26 -9.5h-702v-519q0 -16 -9 -25.5t-26 -9.5h-83q-16 0 -25.5 9.5zM694.5 888q5.5 -4 5.5 -10q0 -8 -9 -17l-92 -87q-13 -13 -31 -13h-110q-10 0 -15.5 4t-5.5 10
q0 9 8 17l83 87q12 13 31 13h121q9 0 14.5 -4z" />
    <glyph glyph-name="uni0404" unicode="&#x404;" horiz-adv-x="1109" 
d="M1049 118q10 -19 10 -27q0 -12 -17 -24q-46 -30 -155 -54.5t-285 -24.5q-189 0 -310 36t-181.5 115.5t-60.5 210.5t60.5 210.5t181.5 115.5t310 36q175 0 283.5 -24.5t154.5 -54.5q17 -11 17 -24q0 -8 -9 -24l-33 -59q-7 -13 -22 -13q-8 0 -26 6q-61 21 -143.5 35.5
t-216.5 14.5q-189 0 -279.5 -37.5t-111.5 -116.5h335q17 0 26 -9t9 -26v-60q0 -16 -9 -25.5t-26 -9.5h-335q21 -80 112 -118t279 -36q230 4 362 50q13 5 24 5q17 0 24 -12q22 -37 32 -56z" />
    <glyph glyph-name="uni0406" unicode="&#x406;" horiz-adv-x="303" 
d="M84.5 9.5q-9.5 9.5 -9.5 25.5v630q0 17 9.5 26t25.5 9h83q17 0 26 -9t9 -26v-630q0 -16 -9 -25.5t-26 -9.5h-83q-16 0 -25.5 9.5z" />
    <glyph glyph-name="uni0407" unicode="&#x407;" horiz-adv-x="303" 
d="M84.5 9.5q-9.5 9.5 -9.5 25.5v630q0 17 9.5 26t25.5 9h83q17 0 26 -9t9 -26v-630q0 -16 -9 -25.5t-26 -9.5h-83q-16 0 -25.5 9.5zM-72.5 797q-18.5 10 -18.5 34v27q0 24 18.5 34t63.5 10q44 0 62 -10t18 -34v-27q0 -24 -18 -34t-62 -10q-45 0 -63.5 10zM251.5 797
q-18.5 10 -18.5 34v27q0 24 18.5 34t63.5 10q44 0 62 -10t18 -34v-27q0 -24 -18 -34t-62 -10q-45 0 -63.5 10z" />
    <glyph glyph-name="uni0410" unicode="&#x410;" horiz-adv-x="1186" 
d="M1156 21q0 -9 -8 -15t-22 -6h-109q-27 0 -42 22l-87 123h-590l-87 -123q-15 -22 -42 -22h-109q-14 0 -22 6t-8 15q0 10 8 21l459 638q9 12 19.5 17t24.5 5h104q14 0 24.5 -5t19.5 -17l459 -638q8 -11 8 -21zM386 270h414l-207 292z" />
    <glyph glyph-name="uni0411" unicode="&#x411;" horiz-adv-x="1101" 
d="M926.5 442q65.5 -34 95 -88t29.5 -116t-29.5 -116t-95 -88t-166.5 -34h-650q-16 0 -25.5 9.5t-9.5 25.5v630q0 17 9.5 26t25.5 9h751q17 0 26 -9t9 -26v-63q0 -16 -9 -25.5t-26 -9.5h-633v-81q0 -10 10 -10h522q101 0 166.5 -34zM862 166q34 20 34 72t-34 72t-110 20
h-514q-10 0 -10 -10v-164q0 -10 10 -10h514q76 0 110 20z" />
    <glyph glyph-name="uni0412" unicode="&#x412;" horiz-adv-x="1116" 
d="M84.5 9.5q-9.5 9.5 -9.5 25.5v630q0 17 9.5 26t25.5 9h616q103 0 165 -28t87 -69t25 -86q0 -46 -24 -82t-74 -58q84 -21 122.5 -68t38.5 -113q0 -90 -72 -143t-231 -53h-653q-16 0 -25.5 9.5zM820 428.5q33 18.5 33 58.5q0 39 -32.5 55.5t-106.5 16.5h-476q-10 0 -10 -10
v-129q0 -10 10 -10h476q73 0 106 18.5zM874.5 158q38.5 17 38.5 61q0 45 -39.5 62.5t-119.5 17.5h-516q-10 0 -10 -10v-138q0 -10 10 -10h516q82 0 120.5 17z" />
    <glyph glyph-name="uni0413" unicode="&#x413;" horiz-adv-x="1005" 
d="M84.5 9.5q-9.5 9.5 -9.5 25.5v630q0 17 9.5 26t25.5 9h820q17 0 26 -9t9 -26v-76q0 -16 -9 -25.5t-26 -9.5h-702v-519q0 -16 -9 -25.5t-26 -9.5h-83q-16 0 -25.5 9.5z" />
    <glyph glyph-name="uni0414" unicode="&#x414;" horiz-adv-x="1312" 
d="M1278 137q9 -9 9 -26v-145q0 -17 -9 -26t-26 -9h-79q-16 0 -25.5 9t-9.5 26v34h-960v-48q0 -25 -25 -25h-103q-25 0 -25 25v157q0 17 9.5 26t25.5 9h6q50 0 72 19.5t22 56.5v445q0 17 9.5 26t25.5 9h908q17 0 26 -9t9 -26v-519h114q17 0 26 -9zM313 200q0 -25 -8 -54h680
v408h-672v-354z" />
    <glyph glyph-name="uni0415" unicode="&#x415;" horiz-adv-x="1041" 
d="M84.5 9.5q-9.5 9.5 -9.5 25.5v630q0 17 9.5 26t25.5 9h846q17 0 26 -9t9 -26v-76q0 -16 -9 -25.5t-26 -9.5h-718q-10 0 -10 -10v-122q0 -10 10 -10h669q17 0 26 -9t9 -25v-65q0 -16 -9 -25t-26 -9h-669q-10 0 -10 -10v-113q0 -10 10 -10h718q17 0 26 -9t9 -26v-76
q0 -16 -9 -25.5t-26 -9.5h-846q-16 0 -25.5 9.5z" />
    <glyph glyph-name="uni0416" unicode="&#x416;" horiz-adv-x="1833" 
d="M1783 17q0 -8 -8 -12.5t-22 -4.5h-128q-21 0 -43 14l-432 326l-157 -85v-220q0 -16 -9 -25.5t-26 -9.5h-83q-16 0 -25.5 9.5t-9.5 25.5v220l-157 85l-432 -326q-22 -14 -43 -14h-128q-14 0 -22 4.5t-8 12.5q0 12 16 24l488 369l-459 249q-20 10 -20 23q0 8 8 13t22 5h168
q27 0 46 -10l521 -280v255q0 17 9.5 26t25.5 9h83q17 0 26 -9t9 -26v-255l521 280q19 10 46 10h168q14 0 22 -5t8 -13q0 -13 -20 -23l-459 -249l488 -369q16 -12 16 -24z" />
    <glyph glyph-name="uni0417" unicode="&#x417;" horiz-adv-x="1093" 
d="M916.5 40.5q-122.5 -48.5 -360.5 -48.5h-13q-178 0 -301.5 24.5t-169.5 52.5q-17 10 -17 26q0 13 11 24l53 53q13 13 27 13q8 0 21 -5q41 -17 143.5 -33t232.5 -16h13q179 0 252 17.5t72 54.5q-1 35 -104.5 55.5t-251.5 25.5q-28 -1 -73 1v122q46 2 75 1q144 4 240 24
t97 56q2 78 -307 78q-130 0 -232.5 -16t-143.5 -33q-13 -5 -21 -5q-14 0 -27 13l-55 51q-10 12 -10 22q0 16 18 28q45 30 168.5 54.5t302.5 24.5q227 0 346.5 -49.5t118.5 -167.5q0 -44 -34.5 -79t-95.5 -61q147 -55 147 -145q1 -114 -121.5 -162.5z" />
    <glyph glyph-name="uni0418" unicode="&#x418;" horiz-adv-x="1136" 
d="M943 0q-16 0 -25.5 9.5t-9.5 25.5v472q0 6 -3.5 8t-8.5 -2l-648 -496q-12 -10 -23.5 -13.5t-31.5 -3.5h-83q-16 0 -25.5 9.5t-9.5 25.5v630q0 17 9.5 26t25.5 9h83q17 0 26 -9t9 -26v-471q0 -6 3.5 -8t8.5 2l648 495q14 10 24.5 13.5t30.5 3.5h83q17 0 26 -9t9 -26v-630
q0 -16 -9 -25.5t-26 -9.5h-83z" />
    <glyph glyph-name="uni0419" unicode="&#x419;" horiz-adv-x="1136" 
d="M761 855q-2 -57 -40 -85t-135 -28t-135 28t-40 85q0 25 24 25h45q21 0 27 -24q4 -21 23 -29.5t56 -8.5t56 8.5t23 29.5q6 24 27 24h45q24 0 24 -25zM943 0q-16 0 -25.5 9.5t-9.5 25.5v472q0 6 -3.5 8t-8.5 -2l-648 -496q-12 -10 -23.5 -13.5t-31.5 -3.5h-83
q-16 0 -25.5 9.5t-9.5 25.5v630q0 17 9.5 26t25.5 9h83q17 0 26 -9t9 -26v-471q0 -6 3.5 -8t8.5 2l648 495q14 10 24.5 13.5t30.5 3.5h83q17 0 26 -9t9 -26v-630q0 -16 -9 -25.5t-26 -9.5h-83z" />
    <glyph glyph-name="uni041A" unicode="&#x41a;" horiz-adv-x="1068" 
d="M1018 17q0 -8 -8 -12.5t-22 -4.5h-128q-21 0 -43 14l-432 326l-157 -85v-220q0 -16 -9 -25.5t-26 -9.5h-83q-16 0 -25.5 9.5t-9.5 25.5v630q0 17 9.5 26t25.5 9h83q17 0 26 -9t9 -26v-255l521 280q19 10 46 10h168q14 0 22 -5t8 -13q0 -13 -20 -23l-459 -249l488 -369
q16 -12 16 -24z" />
    <glyph glyph-name="uni041B" unicode="&#x41b;" horiz-adv-x="1183" 
d="M1099 691q9 -9 9 -26v-630q0 -16 -9 -25.5t-26 -9.5h-83q-16 0 -25.5 9.5t-9.5 25.5v519h-672v-430q0 -56 -39 -90t-96 -34h-88q-16 0 -25.5 9.5t-9.5 25.5v66q0 17 9.5 26t25.5 9h6q38 0 51 9t13 37v483q0 17 9.5 26t25.5 9h908q17 0 26 -9z" />
    <glyph glyph-name="uni041C" unicode="&#x41c;" horiz-adv-x="1270" 
d="M84.5 9.5q-9.5 9.5 -9.5 25.5v630q0 17 9.5 26t25.5 9h83q22 0 33.5 -3t22.5 -14l379 -393q3 -3 7 -3t7 3l379 393q11 11 22.5 14t33.5 3h83q17 0 26 -9t9 -26v-630q0 -16 -9 -25.5t-26 -9.5h-83q-16 0 -25.5 9.5t-9.5 25.5v451q0 9 -5 9q-3 0 -7 -4l-347 -353
q-10 -10 -21 -12.5t-27 -2.5t-27 2.5t-21 12.5l-347 353q-4 4 -7 4q-5 0 -5 -9v-451q0 -16 -9 -25.5t-26 -9.5h-83q-16 0 -25.5 9.5z" />
    <glyph glyph-name="uni041D" unicode="&#x41d;" horiz-adv-x="1135" 
d="M84.5 9.5q-9.5 9.5 -9.5 25.5v630q0 17 9.5 26t25.5 9h83q17 0 26 -9t9 -26v-249q0 -10 10 -10h659q10 0 10 10v249q0 17 9.5 26t25.5 9h83q17 0 26 -9t9 -26v-630q0 -16 -9 -25.5t-26 -9.5h-83q-16 0 -25.5 9.5t-9.5 25.5v217q0 10 -10 10h-659q-10 0 -10 -10v-217
q0 -16 -9 -25.5t-26 -9.5h-83q-16 0 -25.5 9.5z" />
    <glyph glyph-name="uni041E" unicode="&#x41e;" horiz-adv-x="1188" 
d="M179 74q-129 86 -129 276q0 189 129 275.5t377 86.5h75q248 0 377.5 -86.5t129.5 -275.5q0 -190 -129 -276t-378 -86h-75q-248 0 -377 86zM899 184.5q82 53.5 82 165.5q0 110 -82.5 164.5t-267.5 54.5h-75q-184 0 -266.5 -54.5t-82.5 -164.5q0 -112 82 -165.5t267 -53.5
h75q186 0 268 53.5z" />
    <glyph glyph-name="uni041F" unicode="&#x41f;" horiz-adv-x="1128" 
d="M1044 691q9 -9 9 -26v-630q0 -16 -9 -25.5t-26 -9.5h-83q-16 0 -25.5 9.5t-9.5 25.5v519h-672v-519q0 -16 -9 -25.5t-26 -9.5h-83q-16 0 -25.5 9.5t-9.5 25.5v630q0 17 9.5 26t25.5 9h908q17 0 26 -9z" />
    <glyph glyph-name="uni0420" unicode="&#x420;" horiz-adv-x="1096" 
d="M84.5 9.5q-9.5 9.5 -9.5 25.5v630q0 17 9.5 26t25.5 9h650q101 0 166.5 -34t95 -88t29.5 -116t-29.5 -116t-95 -88t-166.5 -34h-522q-10 0 -10 -10v-179q0 -16 -9 -25.5t-26 -9.5h-83q-16 0 -25.5 9.5zM862 390q34 20 34 72t-34 72t-110 20h-514q-10 0 -10 -10v-164
q0 -10 10 -10h514q76 0 110 20z" />
    <glyph glyph-name="uni0421" unicode="&#x421;" horiz-adv-x="1109" 
d="M292 24q-121 36 -181.5 115.5t-60.5 210.5t60.5 210.5t181.5 115.5t310 36q175 0 283.5 -24.5t154.5 -54.5q17 -11 17 -24q0 -8 -9 -24l-33 -59q-7 -13 -22 -13q-8 0 -26 6q-61 21 -143.5 35.5t-216.5 14.5q-151 0 -238.5 -24t-124 -71.5t-36.5 -123.5q0 -74 35 -122
t117.5 -72.5t224.5 -24.5q146 0 234.5 14.5t149.5 35.5q13 5 24 5q17 0 24 -12q22 -37 32 -56t10 -27q0 -12 -17 -24q-46 -30 -155 -54.5t-285 -24.5q-189 0 -310 36z" />
    <glyph glyph-name="uni0422" unicode="&#x422;" horiz-adv-x="1089" 
d="M477.5 9.5q-9.5 9.5 -9.5 25.5v509q0 10 -10 10h-383q-16 0 -25.5 9.5t-9.5 25.5v76q0 17 9.5 26t25.5 9h939q17 0 26 -9t9 -26v-76q0 -16 -9 -25.5t-26 -9.5h-383q-10 0 -10 -10v-509q0 -16 -9 -25.5t-26 -9.5h-83q-16 0 -25.5 9.5z" />
    <glyph glyph-name="uni0423" unicode="&#x423;" horiz-adv-x="1193" 
d="M1156 694.5q8 -5.5 8 -13.5q0 -12 -14 -24l-536 -478l-182 -162q-18 -17 -44 -17h-130q-14 0 -22 5.5t-8 13.5q0 12 14 24l249 222l-447 392q-14 14 -14 24q0 8 8 13.5t22 5.5h129q24 0 44 -16l369 -320l358 320q20 16 44 16h130q14 0 22 -5.5z" />
    <glyph glyph-name="uni0424" unicode="&#x424;" horiz-adv-x="1515" 
d="M1340 554q65 -34 95 -88t30 -116t-30 -116t-95 -88t-166 -34h-344v-77q0 -16 -9 -25.5t-26 -9.5h-83q-16 0 -25.5 9.5t-9.5 25.5v77h-346q-101 0 -166 34t-95 88t-30 116t30 116t95 88t166 34h346v75q0 14 11.5 25.5t25.5 11.5h79q14 0 25.5 -11.5t11.5 -25.5v-75h344
q101 0 166 -34zM677 250v200h-346q-73 0 -105.5 -23t-32.5 -77t32.5 -77t105.5 -23h346zM1279.5 273q32.5 23 32.5 77t-32.5 77t-105.5 23h-344v-200h344q73 0 105.5 23z" />
    <glyph glyph-name="uni0425" unicode="&#x425;" horiz-adv-x="1103" 
d="M1078 20q0 -8 -8.5 -14t-22.5 -6h-134q-23 0 -44 16l-317 250l-318 -250q-21 -16 -44 -16h-134q-14 0 -22.5 6t-8.5 14q0 11 15 23l398 312l-384 302q-14 11 -14 23q0 9 8.5 14.5t22.5 5.5h132q23 0 44 -16l305 -239l304 239q21 16 44 16h132q15 0 23.5 -5.5t8.5 -14.5
q0 -11 -15 -23l-384 -302l398 -312q15 -12 15 -23z" />
    <glyph glyph-name="uni0426" unicode="&#x426;" horiz-adv-x="1284" 
d="M1250 137q9 -9 9 -26v-145q0 -17 -9 -26t-26 -9h-79q-16 0 -25.5 9t-9.5 26v34h-1000q-16 0 -25.5 9.5t-9.5 25.5v630q0 17 9.5 26t25.5 9h83q17 0 26 -9t9 -26v-519h672v519q0 17 9.5 26t25.5 9h83q17 0 26 -9t9 -26v-519h171q17 0 26 -9z" />
    <glyph glyph-name="uni0427" unicode="&#x427;" horiz-adv-x="1079" 
d="M995 691q9 -9 9 -26v-630q0 -16 -9 -25.5t-26 -9.5h-83q-16 0 -25.5 9.5t-9.5 25.5v207q-114 -64 -329 -64q-240 0 -361 84.5t-121 273.5v129q0 17 9.5 26t25.5 9h83q17 0 26 -9t9 -26v-129q0 -75 32.5 -121t104.5 -68.5t192 -22.5q123 0 195 22t103 68.5t31 121.5v129
q0 17 9.5 26t25.5 9h83q17 0 26 -9z" />
    <glyph glyph-name="uni0428" unicode="&#x428;" horiz-adv-x="1593" 
d="M1509 691q9 -9 9 -26v-630q0 -16 -9 -25.5t-26 -9.5h-1373q-16 0 -25.5 9.5t-9.5 25.5v630q0 17 9.5 26t25.5 9h83q17 0 26 -9t9 -26v-519h492v519q0 17 9.5 26t25.5 9h83q17 0 26 -9t9 -26v-519h492v519q0 17 9.5 26t25.5 9h83q17 0 26 -9z" />
    <glyph glyph-name="uni0429" unicode="&#x429;" horiz-adv-x="1749" 
d="M1715 137q9 -9 9 -26v-145q0 -17 -9 -26t-26 -9h-79q-16 0 -25.5 9t-9.5 26v34h-1465q-16 0 -25.5 9.5t-9.5 25.5v630q0 17 9.5 26t25.5 9h83q17 0 26 -9t9 -26v-519h492v519q0 17 9.5 26t25.5 9h83q17 0 26 -9t9 -26v-519h492v519q0 17 9.5 26t25.5 9h83q17 0 26 -9
t9 -26v-519h171q17 0 26 -9z" />
    <glyph glyph-name="uni042A" unicode="&#x42a;" horiz-adv-x="1286" 
d="M1111.5 442q65.5 -34 95 -88t29.5 -116t-29.5 -116t-95 -88t-166.5 -34h-650q-16 0 -25.5 9.5t-9.5 25.5v519h-185q-16 0 -25.5 9.5t-9.5 25.5v76q0 17 9.5 26t25.5 9h303q17 0 26 -9t9 -26v-179q0 -10 10 -10h522q101 0 166.5 -34zM1047 166q34 20 34 72t-34 72t-110 20
h-514q-10 0 -10 -10v-164q0 -10 10 -10h514q76 0 110 20z" />
    <glyph glyph-name="uni042B" unicode="&#x42b;" horiz-adv-x="1374" 
d="M219 691q9 -9 9 -26v-179q0 -10 10 -10h522q101 0 166.5 -34t95 -88t29.5 -116t-29.5 -116t-95 -88t-166.5 -34h-650q-16 0 -25.5 9.5t-9.5 25.5v630q0 17 9.5 26t25.5 9h83q17 0 26 -9zM1299 675v-650q0 -25 -25 -25h-91q-25 0 -25 25v650q0 25 25 25h91q25 0 25 -25z
M228 320v-164q0 -10 10 -10h514q76 0 110 20t34 72t-34 72t-110 20h-514q-10 0 -10 -10z" />
    <glyph glyph-name="uni042C" unicode="&#x42c;" horiz-adv-x="1096" 
d="M193 700q17 0 26 -9t9 -26v-179q0 -10 10 -10h522q101 0 166.5 -34t95 -88t29.5 -116t-29.5 -116t-95 -88t-166.5 -34h-650q-16 0 -25.5 9.5t-9.5 25.5v630q0 17 9.5 26t25.5 9h83zM228 320v-164q0 -10 10 -10h514q76 0 110 20t34 72t-34 72t-110 20h-514q-10 0 -10 -10z
" />
    <glyph glyph-name="uni042D" unicode="&#x42d;" horiz-adv-x="1109" 
d="M817 676q121 -36 181.5 -115.5t60.5 -210.5t-60.5 -210.5t-181.5 -115.5t-310 -36q-176 0 -285 24.5t-155 54.5q-17 12 -17 24q0 8 10 27t32 56q7 12 24 12q11 0 24 -5q132 -46 362 -50q188 -2 279 36t112 118h-335q-16 0 -25.5 9.5t-9.5 25.5v60q0 17 9.5 26t25.5 9h335
q-21 79 -111.5 116.5t-279.5 37.5q-134 0 -216.5 -14.5t-143.5 -35.5q-18 -6 -26 -6q-15 0 -22 13l-33 59q-9 16 -9 24q0 13 17 24q46 30 154.5 54.5t283.5 24.5q189 0 310 -36z" />
    <glyph glyph-name="uni042E" unicode="&#x42e;" horiz-adv-x="1505" 
d="M1326 625.5q129 -86.5 129 -275.5q0 -190 -129 -276t-377 -86h-76q-219 0 -345.5 67.5t-152.5 213.5h-147v-234q0 -16 -9 -25.5t-26 -9.5h-83q-16 0 -25.5 9.5t-9.5 25.5v630q0 17 9.5 26t25.5 9h83q17 0 26 -9t9 -26v-265h143q17 162 144.5 237t357.5 75h76
q248 0 377 -86.5zM1216.5 184.5q82.5 53.5 82.5 165.5q0 110 -83 164.5t-267 54.5h-76q-183 0 -266 -54.5t-83 -164.5q0 -112 82.5 -165.5t266.5 -53.5h76q185 0 267.5 53.5z" />
    <glyph glyph-name="uni042F" unicode="&#x42f;" horiz-adv-x="1093" 
d="M1009 691q9 -9 9 -26v-630q0 -16 -9 -25.5t-26 -9.5h-83q-16 0 -25.5 9.5t-9.5 25.5v179q0 10 -10 10h-374l-237 -202q-15 -12 -27.5 -17t-28.5 -5h-102q-14 0 -22 5t-8 13q0 12 15 25l216 183q-85 8 -140 43t-80 85.5t-25 107.5q0 62 29.5 116t95 88t166.5 34h650
q17 0 26 -9zM865 544q0 10 -10 10h-514q-76 0 -110 -20t-34 -72t34 -72t110 -20h514q10 0 10 10v164z" />
    <glyph glyph-name="uni0430" unicode="&#x430;" horiz-adv-x="791" 
d="M108.5 32.5q-63.5 39.5 -63.5 121.5q0 83 62 117.5t172 34.5h262q10 0 10 10v5q0 43 -44.5 61t-144.5 18q-63 0 -106 -5.5t-89 -14.5l-36 -7q-14 -2 -24 4.5t-10 22.5v28q0 20 6.5 31t26.5 21q30 14 89 24.5t147 10.5q170 0 246.5 -44.5t76.5 -138.5v-193q0 -18 9.5 -27
t26.5 -9h16q25 0 25 -25v-17q0 -27 -23.5 -44t-62.5 -17h-10q-105 0 -117 91q-21 -55 -81 -76.5t-128 -21.5h-65q-107 0 -170.5 39.5zM460 111q43 4 67 18t24 44v24q0 10 -10 10h-255q-50 0 -77.5 -10t-27.5 -39q0 -30 27.5 -40.5t77.5 -10.5h50q81 0 124 4z" />
    <glyph glyph-name="uni0431" unicode="&#x431;" horiz-adv-x="824" 
d="M699 450q86 -65 85 -195q-1 -131 -86 -196t-281 -65q-151 0 -216 48v-17q0 -25 -25 -25h-91q-25 0 -25 25v451q0 90 34 139t96.5 67t160.5 18h224q17 0 26 -9t9 -26v-46q0 -16 -9 -25.5t-26 -9.5h-229q-62 0 -93 -13t-41 -36.5t-11 -66.5q65 47 216 47q196 0 282 -65z
M548 123.5q48 11.5 70.5 42.5t22.5 89q0 57 -22.5 88t-70.5 42.5t-131 11.5q-81 0 -129.5 -12.5t-71.5 -43t-23 -86.5t23 -87t71.5 -43.5t129.5 -12.5q83 0 131 11.5z" />
    <glyph glyph-name="uni0432" unicode="&#x432;" horiz-adv-x="831" 
d="M69.5 9.5q-9.5 9.5 -9.5 25.5v438q0 17 9.5 26t25.5 9h399q117 0 175.5 -36t58.5 -102q0 -30 -19 -53t-49 -37q69 -18 100 -53t31 -80q0 -73 -66 -110t-205 -37h-425q-16 0 -25.5 9.5zM570 317.5q18 10.5 18 32.5q0 24 -22 33.5t-72 9.5h-293v-86h308q43 0 61 10.5z
M618 124.5q32 9.5 32 38.5q0 28 -27 37t-77 9h-345v-94h313q72 0 104 9.5z" />
    <glyph glyph-name="uni0433" unicode="&#x433;" horiz-adv-x="747" 
d="M75 25v448q0 17 9.5 26t25.5 9h592q25 0 25 -25v-68q0 -25 -25 -25h-486v-365q0 -25 -25 -25h-91q-25 0 -25 25z" />
    <glyph glyph-name="uni0434" unicode="&#x434;" horiz-adv-x="1018" 
d="M984 109q9 -9 9 -26v-117q0 -17 -9 -26t-26 -9h-71q-16 0 -25.5 9t-9.5 26v34h-686v-48q0 -25 -25 -25h-91q-25 0 -25 25v129q0 17 9.5 26t25.5 9h6q50 0 72 19.5t22 56.5v281q0 17 9.5 26t25.5 9h622q17 0 26 -9t9 -26v-355h106q17 0 26 -9zM301 172q0 -28 -9 -54h419
v272h-410v-218z" />
    <glyph glyph-name="uni0435" unicode="&#x435;" horiz-adv-x="787" 
d="M741.5 236q-5.5 -14 -20 -20t-43.5 -6h-489q16 -57 72 -79t155 -22q66 0 119.5 9t105.5 28q8 2 13 2q19 0 27 -14l14 -28q6 -14 6 -21q0 -17 -14 -25q-93 -67 -281 -67q-187 0 -276.5 67.5t-89.5 194.5t85.5 194t269.5 67t268 -65t84 -174q0 -27 -5.5 -41zM245 375.5
q-49 -22.5 -59 -75.5h427q-12 54 -61 76t-153 22q-105 0 -154 -22.5z" />
    <glyph glyph-name="uni0436" unicode="&#x436;" horiz-adv-x="1271" 
d="M1236 18q0 -8 -8 -13t-23 -5h-135q-20 0 -45 10l-319 154v-139q0 -25 -25 -25h-91q-25 0 -25 25v139l-319 -154q-25 -10 -45 -10h-135q-15 0 -23 5t-8 13q0 13 21 23l451 214l-446 212q-21 11 -21 23q0 8 8 13t23 5h135q24 0 45 -10l314 -152v135q0 25 25 25h91
q25 0 25 -25v-135l314 152q21 10 45 10h135q15 0 23 -5t8 -13q0 -12 -21 -23l-446 -212l451 -214q21 -10 21 -23z" />
    <glyph glyph-name="uni0437" unicode="&#x437;" horiz-adv-x="800" 
d="M385 -8q-108 0 -202.5 19t-129.5 39q-12 7 -12 19q0 10 7 18l45 49q10 10 20 10q8 0 16 -4q76 -35 256 -35q126 0 179 10.5t53 40.5t-56.5 41t-172.5 11h-30q-25 0 -25 25v50q0 25 25 25h29q107 0 160 11t53 35q0 26 -51.5 35t-160.5 9q-80 0 -144.5 -7t-99.5 -17
q-9 -3 -16 -3q-12 0 -22 10l-47 49q-7 7 -7 14q0 11 15 20q30 19 120 34t201 15q168 0 261.5 -31.5t93.5 -108.5q0 -40 -33 -66.5t-89 -44.5q67 -20 103 -45.5t36 -70.5q0 -156 -375 -156z" />
    <glyph glyph-name="uni0438" unicode="&#x438;" 
d="M182 499q9 -9 9 -26v-313l408 331q13 10 24 13.5t31 3.5h71q17 0 26 -9t9 -26v-438q0 -16 -9 -25.5t-26 -9.5h-71q-16 0 -25.5 9.5t-9.5 25.5v314l-408 -332q-12 -10 -23 -13.5t-32 -3.5h-71q-16 0 -25.5 9.5t-9.5 25.5v438q0 17 9.5 26t25.5 9h71q17 0 26 -9z" />
    <glyph glyph-name="uni0439" unicode="&#x439;" 
d="M182 499q9 -9 9 -26v-313l408 331q13 10 24 13.5t31 3.5h71q17 0 26 -9t9 -26v-438q0 -16 -9 -25.5t-26 -9.5h-71q-16 0 -25.5 9.5t-9.5 25.5v314l-408 -332q-12 -10 -23 -13.5t-32 -3.5h-71q-16 0 -25.5 9.5t-9.5 25.5v438q0 17 9.5 26t25.5 9h71q17 0 26 -9zM580 675
q-2 -57 -39.5 -85t-134.5 -28t-135 28t-40 85q0 25 24 25h45q21 0 26 -24q5 -21 24 -29.5t56 -8.5t55.5 8.5t23.5 29.5q5 24 26 24h45q24 0 24 -25z" />
    <glyph glyph-name="uni043A" unicode="&#x43a;" horiz-adv-x="756" 
d="M721 18q0 -8 -8 -13t-23 -5h-135q-20 0 -45 10l-319 154v-139q0 -25 -25 -25h-91q-25 0 -25 25v456q0 25 25 25h91q25 0 25 -25v-135l314 152q21 10 45 10h135q15 0 23 -5t8 -13q0 -12 -21 -23l-446 -212l451 -214q21 -10 21 -23z" />
    <glyph glyph-name="uni043B" unicode="&#x43b;" horiz-adv-x="857" 
d="M798 499q9 -9 9 -26v-438q0 -16 -9 -25.5t-26 -9.5h-71q-16 0 -25.5 9.5t-9.5 25.5v355h-405v-266q0 -56 -38.5 -90t-95.5 -34h-67q-16 0 -25.5 9.5t-9.5 25.5v38q0 17 9.5 26t25.5 9h6q31 0 42.5 9.5t11.5 36.5v319q0 17 9.5 26t25.5 9h617q17 0 26 -9z" />
    <glyph glyph-name="uni043C" unicode="&#x43c;" horiz-adv-x="1040" 
d="M981 499q9 -9 9 -26v-438q0 -16 -9 -25.5t-26 -9.5h-71q-16 0 -25.5 9.5t-9.5 25.5v294l-281 -313q-9 -10 -20.5 -13t-27.5 -3q-34 0 -48 16l-281 313v-294q0 -16 -9 -25.5t-26 -9.5h-71q-16 0 -25.5 9.5t-9.5 25.5v438q0 17 9.5 26t25.5 9h74q22 0 34 -3.5t22 -14.5
l305 -338l305 338q10 11 22 14.5t34 3.5h74q17 0 26 -9z" />
    <glyph glyph-name="uni043D" unicode="&#x43d;" horiz-adv-x="862" 
d="M803 499q9 -9 9 -26v-438q0 -16 -9 -25.5t-26 -9.5h-71q-16 0 -25.5 9.5t-9.5 25.5v154h-480v-154q0 -16 -9 -25.5t-26 -9.5h-71q-16 0 -25.5 9.5t-9.5 25.5v438q0 17 9.5 26t25.5 9h71q17 0 26 -9t9 -26v-168h480v168q0 17 9.5 26t25.5 9h71q17 0 26 -9z" />
    <glyph glyph-name="uni043E" unicode="&#x43e;" horiz-adv-x="801" 
d="M126 60q-86 67 -86 195q0 127 86 194t274 67q189 0 275.5 -67t85.5 -194q-1 -128 -86.5 -195t-274.5 -67q-188 0 -274 67zM567.5 143.5q50.5 32.5 50.5 111.5t-50.5 111t-167.5 32q-116 0 -166.5 -32t-50.5 -111t50.5 -111.5t166.5 -32.5q117 0 167.5 32.5z" />
    <glyph glyph-name="uni043F" unicode="&#x43f;" horiz-adv-x="813" 
d="M754 499q9 -9 9 -26v-438q0 -16 -9 -25.5t-26 -9.5h-71q-16 0 -25.5 9.5t-9.5 25.5v355h-431v-355q0 -16 -9 -25.5t-26 -9.5h-71q-16 0 -25.5 9.5t-9.5 25.5v438q0 17 9.5 26t25.5 9h643q17 0 26 -9z" />
    <glyph glyph-name="uni0440" unicode="&#x440;" horiz-adv-x="824" 
d="M754 110q-31 -57 -105 -87t-202 -30q-102 0 -160.5 19t-85.5 57v-235q0 -25 -25 -25h-91q-25 0 -25 25v650q0 25 25 25h91q25 0 25 -25v-46q27 39 85 58.5t161 19.5q128 0 201.5 -30t104 -87t31.5 -145q1 -87 -30 -144zM545.5 123.5q48.5 12.5 72 43.5t23.5 87
t-23.5 87.5t-72 44t-129.5 12.5t-129 -12.5t-71 -44t-23 -87.5t23 -87t71 -43.5t129 -12.5t129.5 12.5z" />
    <glyph glyph-name="uni0441" unicode="&#x441;" horiz-adv-x="731" 
d="M695 89q0 -7 -7 -14q-96 -82 -295 -82q-353 0 -353 262q0 261 353 261q199 0 295 -82q7 -7 7 -14q0 -10 -11 -21l-31 -35q-12 -13 -28 -13q-9 0 -21 5q-50 23 -94.5 32.5t-103.5 9.5q-116 0 -169.5 -31.5t-53.5 -111.5t53.5 -112t169.5 -32q59 0 103.5 9.5t94.5 32.5
q12 5 21 5q16 0 28 -13l31 -35q11 -11 11 -21z" />
    <glyph glyph-name="uni0442" unicode="&#x442;" horiz-adv-x="835" 
d="M796 499q9 -9 9 -26v-48q0 -16 -9 -25.5t-26 -9.5h-282v-355q0 -16 -9 -25.5t-26 -9.5h-71q-16 0 -25.5 9.5t-9.5 25.5v355h-282q-16 0 -25.5 9.5t-9.5 25.5v48q0 17 9.5 26t25.5 9h705q17 0 26 -9z" />
    <glyph glyph-name="uni0443" unicode="&#x443;" horiz-adv-x="863" 
d="M837 492q0 -8 -5 -14l-324 -456q-6 -8 -10 -11l-132 -185q-12 -16 -30 -16h-97q-22 0 -22 14q0 7 6 16l130 185l-322 453q-5 6 -5 14q0 16 22 16h109q18 0 30 -17l237 -340q3 -4 7 -4t7 4l238 340q12 17 30 17h109q22 0 22 -16z" />
    <glyph glyph-name="uni0444" unicode="&#x444;" horiz-adv-x="1191" 
d="M1083 438.5q68 -69.5 68 -184.5t-68 -184.5t-223 -69.5h-193v-77q0 -17 -9 -26t-26 -9h-71q-16 0 -25.5 9t-9.5 26v77h-195q-155 0 -223 69.5t-68 184.5t68 184.5t223 69.5h195v75q0 14 11 25.5t25 11.5h68q14 0 25.5 -11.5t11.5 -25.5v-75h193q155 0 223 -69.5zM526 116
v276h-195q-78 0 -114 -33.5t-36 -104.5t36 -104.5t114 -33.5h195zM1010 254q0 138 -134 138h-209v-276h209q134 0 134 138z" />
    <glyph glyph-name="uni0445" unicode="&#x445;" horiz-adv-x="753" 
d="M30 13q0 10 11 18l242 219q4 3 4 7.5t-4 6.5l-235 213q-10 10 -10 18q0 13 22 13h117q20 0 31 -12l162 -154q7 -7 14 0l161 154q13 12 31 12h116q10 0 16 -4t6 -10q0 -8 -10 -17l-234 -213q-4 -2 -4 -7q0 -3 4 -7l242 -219q10 -9 10 -17q0 -6 -6 -10t-16 -4h-116
q-18 0 -31 12l-169 161q-7 7 -14 0l-171 -161q-13 -12 -31 -12h-116q-22 0 -22 13z" />
    <glyph glyph-name="uni0446" unicode="&#x446;" horiz-adv-x="934" 
d="M900 109q9 -9 9 -26v-112q0 -17 -9 -26t-26 -9h-71q-16 0 -25.5 9t-9.5 26v29h-683q-16 0 -25.5 9.5t-9.5 25.5v438q0 17 9.5 26t25.5 9h71q17 0 26 -9t9 -26v-355h434v355q0 17 9.5 26t25.5 9h71q17 0 26 -9t9 -26v-355h108q17 0 26 -9z" />
    <glyph glyph-name="uni0447" unicode="&#x447;" horiz-adv-x="800" 
d="M750 483v-650q0 -25 -25 -25h-92q-25 0 -25 25v288q-71 -78 -250 -78q-161 0 -232 63t-71 189v188q0 25 25 25h91q25 0 25 -25v-188q0 -78 48 -106.5t149 -28.5q113 0 164 32.5t51 102.5v188q0 25 25 25h92q25 0 25 -25z" />
    <glyph glyph-name="uni0448" unicode="&#x448;" horiz-adv-x="1191" 
d="M1132 499q9 -9 9 -26v-438q0 -16 -9 -25.5t-26 -9.5h-1021q-16 0 -25.5 9.5t-9.5 25.5v438q0 17 9.5 26t25.5 9h71q17 0 26 -9t9 -26v-355h334v355q0 17 9.5 26t25.5 9h71q17 0 26 -9t9 -26v-355h334v355q0 17 9.5 26t25.5 9h71q17 0 26 -9z" />
    <glyph glyph-name="uni0449" unicode="&#x449;" horiz-adv-x="1319" 
d="M1285 109q9 -9 9 -26v-112q0 -17 -9 -26t-26 -9h-71q-16 0 -25.5 9t-9.5 26v29h-1068q-16 0 -25.5 9.5t-9.5 25.5v438q0 17 9.5 26t25.5 9h71q17 0 26 -9t9 -26v-355h334v355q0 17 9.5 26t25.5 9h71q17 0 26 -9t9 -26v-355h334v355q0 17 9.5 26t25.5 9h71q17 0 26 -9
t9 -26v-355h118q17 0 26 -9z" />
    <glyph glyph-name="uni044A" unicode="&#x44a;" horiz-adv-x="856" 
d="M741.5 355.5q75.5 -49.5 74.5 -152.5t-76 -153t-244 -50h-312q-25 0 -25 25v365h-94q-16 0 -25.5 9.5t-9.5 25.5v48q0 17 9.5 26t25.5 9h211q25 0 25 -25v-78h195q170 0 245.5 -49.5zM603 126.5q39 8.5 55 27t16 49.5q0 30 -16 48.5t-55 27t-107 8.5h-195v-169h195
q68 0 107 8.5z" />
    <glyph glyph-name="uni044B" unicode="&#x44b;" horiz-adv-x="1004" 
d="M632.5 355.5q75.5 -49.5 74.5 -152.5t-76 -153t-244 -50h-312q-25 0 -25 25v458q0 25 25 25h91q25 0 25 -25v-78h196q170 0 245.5 -49.5zM954 483v-458q0 -25 -25 -25h-91q-25 0 -25 25v458q0 25 25 25h91q25 0 25 -25zM493.5 126.5q38.5 8.5 54.5 27t16 49.5t-16 49
t-54.5 26.5t-106.5 8.5h-196v-169h196q68 0 106.5 8.5z" />
    <glyph glyph-name="uni044C" unicode="&#x44c;" horiz-adv-x="757" 
d="M642.5 355.5q75.5 -49.5 74.5 -152.5t-76 -153t-244 -50h-312q-25 0 -25 25v458q0 25 25 25h91q25 0 25 -25v-78h196q170 0 245.5 -49.5zM503.5 126.5q38.5 8.5 54.5 27t16 49.5t-16 49t-54.5 26.5t-106.5 8.5h-196v-169h196q68 0 106.5 8.5z" />
    <glyph glyph-name="uni044D" unicode="&#x44d;" horiz-adv-x="736" 
d="M696 255q0 -262 -353 -262q-199 0 -295 82q-7 7 -7 14q0 10 11 21l31 35q12 13 28 13q9 0 21 -5q50 -23 94.5 -32.5t103.5 -9.5q95 0 147 20.5t68 69.5h-239q-16 0 -25.5 9.5t-9.5 25.5v38q0 17 9.5 26t25.5 9h239q-17 49 -69 69t-146 20q-59 0 -103.5 -9.5t-94.5 -32.5
q-12 -5 -21 -5q-16 0 -28 13l-31 35q-11 11 -11 21q0 7 7 14q96 82 295 82q353 0 353 -261z" />
    <glyph glyph-name="uni044E" unicode="&#x44e;" horiz-adv-x="1055" 
d="M929.5 449q86.5 -67 85.5 -194q-1 -128 -86.5 -195t-273.5 -67q-166 0 -251.5 51.5t-104.5 150.5h-108v-170q0 -25 -25 -25h-91q-25 0 -25 25v458q0 25 25 25h91q25 0 25 -25v-170h108q18 99 104 151t252 52q188 0 274.5 -67zM821.5 143.5q50.5 32.5 50.5 111.5
t-50.5 111t-166.5 32q-117 0 -167.5 -32t-50.5 -111t50.5 -111.5t167.5 -32.5q116 0 166.5 32.5z" />
    <glyph glyph-name="uni044F" unicode="&#x44f;" horiz-adv-x="747" 
d="M697 483v-458q0 -25 -25 -25h-91q-25 0 -25 25v108h-201q-25 0 -67 2l-82 -119q-12 -16 -30 -16h-98q-10 0 -16 4t-6 11q0 8 6 15l91 130q-59 21 -86 60t-27 97q0 98 72.5 144.5t242.5 46.5h317q25 0 25 -25zM556 251v139h-201q-98 0 -135 -17t-37 -53q0 -35 37 -52
t135 -17h201z" />
    <glyph glyph-name="uni0451" unicode="&#x451;" horiz-adv-x="787" 
d="M741.5 236q-5.5 -14 -20 -20t-43.5 -6h-489q16 -57 72 -79t155 -22q66 0 119.5 9t105.5 28q8 2 13 2q19 0 27 -14l14 -28q6 -14 6 -21q0 -17 -14 -25q-93 -67 -281 -67q-187 0 -276.5 67.5t-89.5 194.5t85.5 194t269.5 67t268 -65t84 -174q0 -27 -5.5 -41zM245 375.5
q-49 -22.5 -59 -75.5h427q-12 54 -61 76t-153 22q-105 0 -154 -22.5zM168.5 605q-18.5 10 -18.5 34v27q0 24 18.5 34t63.5 10q44 0 62 -10t18 -34v-27q0 -24 -18 -34t-62 -10q-45 0 -63.5 10zM492.5 605q-18.5 10 -18.5 34v27q0 24 18.5 34t63.5 10q44 0 62 -10t18 -34v-27
q0 -24 -18 -34t-62 -10q-45 0 -63.5 10z" />
    <glyph glyph-name="uni0453" unicode="&#x453;" horiz-adv-x="747" 
d="M75 25v448q0 17 9.5 26t25.5 9h592q25 0 25 -25v-68q0 -25 -25 -25h-486v-365q0 -25 -25 -25h-91q-25 0 -25 25zM572.5 696q5.5 -4 5.5 -10q0 -8 -9 -17l-92 -87q-13 -13 -31 -13h-110q-10 0 -15.5 4t-5.5 10q0 9 8 17l83 87q12 13 31 13h121q9 0 14.5 -4z" />
    <glyph glyph-name="uni0454" unicode="&#x454;" horiz-adv-x="736" 
d="M684 110q11 -11 11 -21q0 -7 -7 -14q-96 -82 -295 -82q-353 0 -353 262q0 261 353 261q199 0 295 -82q7 -7 7 -14q0 -10 -11 -21l-31 -35q-12 -13 -28 -13q-9 0 -21 5q-50 23 -94.5 32.5t-103.5 9.5q-94 0 -146 -20t-69 -69h239q17 0 26 -9t9 -26v-38q0 -16 -9 -25.5
t-26 -9.5h-239q16 -49 68 -69.5t147 -20.5q59 0 103.5 9.5t94.5 32.5q12 5 21 5q16 0 28 -13z" />
    <glyph glyph-name="uni0456" unicode="&#x456;" horiz-adv-x="261" 
d="M69 599.5q-19 11.5 -19 35.5v29q0 24 18.5 35.5t62.5 11.5q43 0 61.5 -11.5t18.5 -35.5v-29q0 -24 -18.5 -35.5t-61.5 -11.5t-62 11.5zM60 25v458q0 25 25 25h91q25 0 25 -25v-458q0 -25 -25 -25h-91q-25 0 -25 25z" />
    <glyph glyph-name="uni0457" unicode="&#x457;" horiz-adv-x="261" 
d="M201 483v-458q0 -25 -25 -25h-91q-25 0 -25 25v458q0 25 25 25h91q25 0 25 -25zM-93.5 605q-18.5 10 -18.5 34v27q0 24 18.5 34t63.5 10q44 0 62 -10t18 -34v-27q0 -24 -18 -34t-62 -10q-45 0 -63.5 10zM230.5 605q-18.5 10 -18.5 34v27q0 24 18.5 34t63.5 10
q44 0 62 -10t18 -34v-27q0 -24 -18 -34t-62 -10q-45 0 -63.5 10z" />
    <glyph glyph-name="uni0490" unicode="&#x490;" horiz-adv-x="1005" 
d="M956 761q9 -9 9 -26v-146q0 -16 -9 -25.5t-26 -9.5h-702v-519q0 -16 -9 -25.5t-26 -9.5h-83q-16 0 -25.5 9.5t-9.5 25.5v630q0 17 9.5 26t25.5 9h702v35q0 17 9.5 26t25.5 9h83q17 0 26 -9z" />
    <glyph glyph-name="uni0491" unicode="&#x491;" horiz-adv-x="747" 
d="M718 571q9 -9 9 -26v-130q0 -25 -25 -25h-486v-365q0 -25 -25 -25h-91q-25 0 -25 25v448q0 17 9.5 26t25.5 9h480v37q0 17 9.5 26t25.5 9h67q17 0 26 -9z" />
    <glyph glyph-name="Wgrave" unicode="&#x1e80;" horiz-adv-x="1642" 
d="M1604 694q8 -6 8 -15q0 -8 -8 -21l-445 -638q-15 -22 -44 -22h-76q-29 0 -44 22l-173 247l-176 -247q-15 -22 -44 -22h-75q-29 0 -44 22l-445 638q-8 13 -8 21q0 9 8 15t22 6h113q27 0 42 -22l351 -509l164 231l-181 258q-8 13 -8 21q0 9 8 15t22 6h113q28 0 42 -22
l351 -508l350 508q15 22 42 22h113q14 0 22 -6zM789 879l83 -87q8 -8 8 -17q0 -6 -5.5 -10t-15.5 -4h-110q-18 0 -31 13l-92 87q-9 9 -9 17q0 6 5.5 10t14.5 4h121q19 0 31 -13z" />
    <glyph glyph-name="wgrave" unicode="&#x1e81;" horiz-adv-x="1222" 
d="M1196 492q0 -8 -5 -14l-324 -456q-15 -22 -44 -22h-65q-14 0 -24 5t-20 17l-105 148l-101 -148q-15 -22 -44 -22h-65q-14 0 -24 5t-20 17l-324 456q-5 6 -5 14q0 16 22 16h108q18 0 30 -17l238 -340q3 -4 7 -4t7 4l91 131l-139 196q-5 6 -5 14q0 16 22 16h109
q18 0 30 -17l238 -340q3 -4 7 -4t7 4l237 340q12 17 30 17h109q22 0 22 -16zM596 687l83 -87q8 -8 8 -17q0 -6 -5.5 -10t-15.5 -4h-110q-18 0 -31 13l-92 87q-9 9 -9 17q0 6 5.5 10t14.5 4h121q19 0 31 -13z" />
    <glyph glyph-name="Wacute" unicode="&#x1e82;" horiz-adv-x="1642" 
d="M1604 694q8 -6 8 -15q0 -8 -8 -21l-445 -638q-15 -22 -44 -22h-76q-29 0 -44 22l-173 247l-176 -247q-15 -22 -44 -22h-75q-29 0 -44 22l-445 638q-8 13 -8 21q0 9 8 15t22 6h113q27 0 42 -22l351 -509l164 231l-181 258q-8 13 -8 21q0 9 8 15t22 6h113q28 0 42 -22
l351 -508l350 508q15 22 42 22h113q14 0 22 -6zM995.5 888q5.5 -4 5.5 -10q0 -8 -9 -17l-92 -87q-13 -13 -31 -13h-110q-10 0 -15.5 4t-5.5 10q0 9 8 17l83 87q12 13 31 13h121q9 0 14.5 -4z" />
    <glyph glyph-name="wacute" unicode="&#x1e83;" horiz-adv-x="1222" 
d="M1196 492q0 -8 -5 -14l-324 -456q-15 -22 -44 -22h-65q-14 0 -24 5t-20 17l-105 148l-101 -148q-15 -22 -44 -22h-65q-14 0 -24 5t-20 17l-324 456q-5 6 -5 14q0 16 22 16h108q18 0 30 -17l238 -340q3 -4 7 -4t7 4l91 131l-139 196q-5 6 -5 14q0 16 22 16h109
q18 0 30 -17l238 -340q3 -4 7 -4t7 4l237 340q12 17 30 17h109q22 0 22 -16zM802.5 696q5.5 -4 5.5 -10q0 -8 -9 -17l-92 -87q-13 -13 -31 -13h-110q-10 0 -15.5 4t-5.5 10q0 9 8 17l83 87q12 13 31 13h121q9 0 14.5 -4z" />
    <glyph glyph-name="Wdieresis" unicode="&#x1e84;" horiz-adv-x="1642" 
d="M1604 694q8 -6 8 -15q0 -8 -8 -21l-445 -638q-15 -22 -44 -22h-76q-29 0 -44 22l-173 247l-176 -247q-15 -22 -44 -22h-75q-29 0 -44 22l-445 638q-8 13 -8 21q0 9 8 15t22 6h113q27 0 42 -22l351 -509l164 231l-181 258q-8 13 -8 21q0 9 8 15t22 6h113q28 0 42 -22
l351 -508l350 508q15 22 42 22h113q14 0 22 -6zM579.5 797q-18.5 10 -18.5 34v27q0 24 18.5 34t63.5 10q44 0 62 -10t18 -34v-27q0 -24 -18 -34t-62 -10q-45 0 -63.5 10zM903.5 797q-18.5 10 -18.5 34v27q0 24 18.5 34t63.5 10q44 0 62 -10t18 -34v-27q0 -24 -18 -34
t-62 -10q-45 0 -63.5 10z" />
    <glyph glyph-name="wdieresis" unicode="&#x1e85;" horiz-adv-x="1222" 
d="M1196 492q0 -8 -5 -14l-324 -456q-15 -22 -44 -22h-65q-14 0 -24 5t-20 17l-105 148l-101 -148q-15 -22 -44 -22h-65q-14 0 -24 5t-20 17l-324 456q-5 6 -5 14q0 16 22 16h108q18 0 30 -17l238 -340q3 -4 7 -4t7 4l91 131l-139 196q-5 6 -5 14q0 16 22 16h109
q18 0 30 -17l238 -340q3 -4 7 -4t7 4l237 340q12 17 30 17h109q22 0 22 -16zM386.5 605q-18.5 10 -18.5 34v27q0 24 18.5 34t63.5 10q44 0 62 -10t18 -34v-27q0 -24 -18 -34t-62 -10q-45 0 -63.5 10zM710.5 605q-18.5 10 -18.5 34v27q0 24 18.5 34t63.5 10q44 0 62 -10
t18 -34v-27q0 -24 -18 -34t-62 -10q-45 0 -63.5 10z" />
    <glyph glyph-name="uni1E9E" unicode="&#x1e9e;" horiz-adv-x="1173" 
d="M1071.5 359.5q51.5 -55.5 51.5 -146.5q0 -98 -59.5 -155.5t-202.5 -57.5h-475q-16 0 -25.5 9.5t-9.5 25.5v67q0 17 9.5 26t25.5 9h454q61 0 95.5 16t34.5 60q0 43 -34.5 59.5t-95.5 16.5h-149q-17 0 -17 13q0 6 4 11l160 243h-293q-132 0 -198 -16t-92 -58.5t-26 -128.5
v-318q0 -16 -9 -25.5t-26 -9.5h-84q-16 0 -25.5 9.5t-9.5 25.5v328q0 135 49.5 208t150 101t270.5 28h506q17 0 17 -13q0 -6 -4 -11l-167 -253q123 -8 174.5 -63.5z" />
    <glyph glyph-name="Ygrave" unicode="&#x1ef2;" horiz-adv-x="1047" 
d="M1009 694.5q8 -5.5 8 -13.5q0 -11 -14 -24l-404 -363v-259q0 -16 -9 -25.5t-26 -9.5h-83q-16 0 -25.5 9.5t-9.5 25.5v260l-402 362q-14 14 -14 24q0 8 8 13.5t22 5.5h131q28 0 44 -16l282 -255q3 -3 7.5 -2.5t6.5 2.5l281 255q19 16 44 16h131q14 0 22 -5.5zM509 879
l83 -87q8 -8 8 -17q0 -6 -5.5 -10t-15.5 -4h-110q-18 0 -31 13l-92 87q-9 9 -9 17q0 6 5.5 10t14.5 4h121q19 0 31 -13z" />
    <glyph glyph-name="ygrave" unicode="&#x1ef3;" horiz-adv-x="863" 
d="M837 492q0 -8 -5 -14l-324 -456q-6 -8 -10 -11l-132 -185q-12 -16 -30 -16h-97q-22 0 -22 14q0 7 6 16l130 185l-322 453q-5 6 -5 14q0 16 22 16h109q18 0 30 -17l237 -340q3 -4 7 -4t7 4l238 340q12 17 30 17h109q22 0 22 -16zM416 687l83 -87q8 -8 8 -17q0 -6 -5.5 -10
t-15.5 -4h-110q-18 0 -31 13l-92 87q-9 9 -9 17q0 6 5.5 10t14.5 4h121q19 0 31 -13z" />
    <glyph glyph-name="endash" unicode="&#x2013;" horiz-adv-x="1034" 
d="M59.5 349q9.5 9 25.5 9h864q17 0 26 -9t9 -26v-76q0 -16 -9 -25.5t-26 -9.5h-864q-16 0 -25.5 9.5t-9.5 25.5v76q0 17 9.5 26z" />
    <glyph glyph-name="emdash" unicode="&#x2014;" horiz-adv-x="1158" 
d="M59.5 349q9.5 9 25.5 9h988q17 0 26 -9t9 -26v-76q0 -16 -9 -25.5t-26 -9.5h-988q-16 0 -25.5 9.5t-9.5 25.5v76q0 17 9.5 26z" />
    <glyph glyph-name="quoteleft" unicode="&#x2018;" horiz-adv-x="245" 
d="M133 700q4 0 7 -3t3 -8v-71q0 -22 19 -29l14 -5q19 -7 19 -29v-70q0 -25 -25 -25h-95q-25 0 -25 25v142q0 14 15 27.5t32.5 25t23.5 15.5q7 5 12 5z" />
    <glyph glyph-name="quoteright" unicode="&#x2019;" horiz-adv-x="245" 
d="M112 460q-4 0 -7 3t-3 8v71q0 22 -19 29l-14 5q-19 7 -19 29v70q0 25 25 25h95q25 0 25 -25v-142q0 -14 -15 -27.5t-32.5 -25t-23.5 -15.5q-7 -5 -12 -5z" />
    <glyph glyph-name="quotesinglbase" unicode="&#x201a;" horiz-adv-x="285" 
d="M133 -119q-11 0 -11 11v70q0 22 -19 29l-14 5q-19 7 -19 29v70q0 25 25 25h95q25 0 25 -25v-142q0 -12 -12.5 -23.5t-37.5 -28.5q-7 -6 -21 -16q-5 -4 -11 -4z" />
    <glyph glyph-name="quotedblleft" unicode="&#x201c;" horiz-adv-x="440" 
d="M328 700q4 0 7 -3t3 -8v-71q0 -22 19 -29l14 -5q19 -7 19 -29v-70q0 -25 -25 -25h-95q-25 0 -25 25v142q0 14 15 27.5t32.5 25t23.5 15.5q7 5 12 5zM133 700q4 0 7 -3t3 -8v-71q0 -22 19 -29l14 -5q19 -7 19 -29v-70q0 -25 -25 -25h-95q-25 0 -25 25v142q0 14 15 27.5
t32.5 25t23.5 15.5q7 5 12 5z" />
    <glyph glyph-name="quotedblright" unicode="&#x201d;" horiz-adv-x="440" 
d="M307 460q-4 0 -7 3t-3 8v71q0 22 -19 29l-14 5q-19 7 -19 29v70q0 25 25 25h95q25 0 25 -25v-142q0 -14 -15 -27.5t-32.5 -25t-23.5 -15.5q-7 -5 -12 -5zM112 460q-4 0 -7 3t-3 8v71q0 22 -19 29l-14 5q-19 7 -19 29v70q0 25 25 25h95q25 0 25 -25v-142q0 -14 -15 -27.5
t-32.5 -25t-23.5 -15.5q-7 -5 -12 -5z" />
    <glyph glyph-name="quotedblbase" unicode="&#x201e;" horiz-adv-x="480" 
d="M327 -120q-4 0 -7 3t-3 8v71q0 22 -19 29l-14 5q-19 7 -19 29v70q0 25 25 25h95q25 0 25 -25v-142q0 -14 -15 -27.5t-32.5 -25t-23.5 -15.5q-7 -5 -12 -5zM132 -120q-4 0 -7 3t-3 8v71q0 22 -19 29l-14 5q-19 7 -19 29v70q0 25 25 25h95q25 0 25 -25v-142
q0 -14 -15 -27.5t-32.5 -25t-23.5 -15.5q-7 -5 -12 -5z" />
    <glyph glyph-name="dagger" unicode="&#x2020;" horiz-adv-x="541" 
d="M491 483v-66q0 -25 -25 -25h-131v-279q0 -25 -25 -25h-79q-25 0 -25 25v279h-131q-25 0 -25 25v66q0 25 25 25h131v167q0 25 25 25h79q25 0 25 -25v-167h131q25 0 25 -25z" />
    <glyph glyph-name="daggerdbl" unicode="&#x2021;" horiz-adv-x="541" 
d="M491 531v-66q0 -25 -25 -25h-131v-119q0 -25 -25 -25h-79q-25 0 -25 25v119h-131q-25 0 -25 25v66q0 25 25 25h131v119q0 25 25 25h79q25 0 25 -25v-119h131q25 0 25 -25zM491 45v-66q0 -25 -25 -25h-131v-119q0 -25 -25 -25h-79q-25 0 -25 25v119h-131q-25 0 -25 25v66
q0 25 25 25h131v119q0 25 25 25h79q25 0 25 -25v-119h131q25 0 25 -25z" />
    <glyph glyph-name="bullet" unicode="&#x2022;" horiz-adv-x="353" 
d="M89.5 208.5q-9.5 9.5 -9.5 25.5v120q0 17 9.5 26t25.5 9h123q17 0 26 -9t9 -26v-120q0 -16 -9 -25.5t-26 -9.5h-123q-16 0 -25.5 9.5z" />
    <glyph glyph-name="ellipsis" unicode="&#x2026;" horiz-adv-x="856" 
d="M359.5 2.5q-20.5 12.5 -20.5 39.5v32q0 27 20.5 39t69.5 12q48 0 68 -12t20 -39v-32q0 -27 -20.5 -39.5t-67.5 -12.5q-49 0 -69.5 12.5zM628.5 2.5q-20.5 12.5 -20.5 39.5v32q0 27 20.5 39t69.5 12q48 0 68 -12t20 -39v-32q0 -27 -20.5 -39.5t-67.5 -12.5
q-49 0 -69.5 12.5zM90.5 2.5q-20.5 12.5 -20.5 39.5v32q0 27 20.5 39t69.5 12q48 0 68 -12t20 -39v-32q0 -27 -20.5 -39.5t-67.5 -12.5q-49 0 -69.5 12.5z" />
    <glyph glyph-name="perthousand" unicode="&#x2030;" horiz-adv-x="1753" 
d="M998 701l91 -2q21 0 21 -12q0 -7 -11 -17l-856 -660q-12 -10 -31 -10h-91q-10 0 -16 4t-6 10q0 8 11 17l857 660q17 10 31 10zM462.5 662.5q56.5 -37.5 56.5 -121.5t-56.5 -121.5t-166.5 -37.5h-23q-110 0 -166.5 37.5t-56.5 121.5t56.5 121.5t166.5 37.5h23
q110 0 166.5 -37.5zM376 482q27 8 36 22.5t9 36.5t-9 36.5t-36 22.5t-80 8h-23q-52 0 -79.5 -8t-36.5 -22.5t-9 -36.5t9 -36.5t36.5 -22.5t79.5 -8h23q53 0 80 8zM1100.5 280.5q56.5 -37.5 56.5 -121.5t-56.5 -121.5t-166.5 -37.5h-23q-110 0 -166.5 37.5t-56.5 121.5
t56.5 121.5t166.5 37.5h23q110 0 166.5 -37.5zM1646.5 280.5q56.5 -37.5 56.5 -121.5t-56.5 -121.5t-166.5 -37.5h-23q-110 0 -166.5 37.5t-56.5 121.5t56.5 121.5t166.5 37.5h23q110 0 166.5 -37.5zM1014 100q27 8 36 22.5t9 36.5t-9 36.5t-36 22.5t-80 8h-23
q-52 0 -79.5 -8t-36.5 -22.5t-9 -36.5t9 -36.5t36.5 -22.5t79.5 -8h23q53 0 80 8zM1560 100q27 8 36 22.5t9 36.5t-9 36.5t-36 22.5t-80 8h-23q-52 0 -79.5 -8t-36.5 -22.5t-9 -36.5t9 -36.5t36.5 -22.5t79.5 -8h23q53 0 80 8z" />
    <glyph glyph-name="guilsinglleft" unicode="&#x2039;" horiz-adv-x="223" 
d="M54.5 415q4.5 9 18.5 21l69 60q7 5 14 5t12 -5t5 -16v-66q0 -19 -13 -40l-45 -62l45 -63q13 -21 13 -40v-65q0 -11 -5 -16.5t-12 -5.5t-14 5l-69 60q-14 12 -18.5 21.5t-4.5 22.5v161q0 14 4.5 23z" />
    <glyph glyph-name="guilsinglright" unicode="&#x203a;" horiz-adv-x="223" 
d="M168.5 208.5q-4.5 -9.5 -18.5 -21.5l-69 -60q-7 -5 -14 -5t-12 5.5t-5 16.5v65q0 19 13 40l45 63l-45 62q-13 21 -13 40v66q0 11 5 16t12 5t14 -5l69 -60q14 -12 18.5 -21t4.5 -23v-161q0 -13 -4.5 -22.5z" />
    <glyph glyph-name="fraction" unicode="&#x2044;" horiz-adv-x="847" 
d="M769 739.5q8 -5.5 8 -15.5q0 -8 -8 -21l-539 -779q-16 -22 -42 -22h-87q-15 0 -23 5.5t-8 15.5q0 8 8 21l540 779q16 22 42 22h86q15 0 23 -5.5z" />
    <glyph glyph-name="Euro" unicode="&#x20ac;" horiz-adv-x="1166" 
d="M1106.5 118q9.5 -19 9.5 -27q0 -12 -16 -24q-47 -30 -156 -54.5t-285 -24.5q-237 0 -368.5 57.5t-168.5 186.5h-77q-25 0 -25 25v43q0 25 25 25h63q-1 8 -1 25v15h-62q-25 0 -25 25v43q0 25 25 25h74q34 135 166.5 194.5t373.5 59.5q175 0 283.5 -24.5t155.5 -54.5
q16 -12 16 -24q0 -10 -9 -24l-32 -59q-7 -13 -23 -13q-8 0 -26 6q-59 21 -142.5 35.5t-217.5 14.5q-161 0 -249.5 -27t-122.5 -84h144q25 0 25 -25v-43q0 -25 -25 -25h-170v-15q0 -17 1 -25h169q25 0 25 -25v-43q0 -25 -25 -25h-138q35 -51 117.5 -76t224.5 -25
q148 0 236.5 14.5t149.5 35.5q13 5 25 5q16 0 24 -12q22 -37 31.5 -56z" />
    <glyph glyph-name="trademark" unicode="&#x2122;" horiz-adv-x="644" 
d="M287 692v-32q0 -8 -8 -8h-83v-136q0 -8 -8 -8h-39q-8 0 -8 8v136h-83q-8 0 -8 8v32q0 8 8 8h221q8 0 8 -8zM594 692v-176q0 -8 -8 -8h-40q-8 0 -8 8v93l-52 -96q-2 -5 -9 -5h-39q-6 0 -9 5l-52 96v-93q0 -8 -8 -8h-39q-8 0 -8 8v176q0 8 8 8h41q7 0 9 -5l78 -138l77 138
q3 5 9 5h42q8 0 8 -8z" />
    <glyph glyph-name="partialdiff" unicode="&#x2202;" horiz-adv-x="1092" 
d="M897 613.5q145 -94.5 145 -283.5q0 -176 -129.5 -257t-382.5 -81q-224 0 -352 58t-128 170q0 107 114.5 158t313.5 51q129 0 236 -19t165 -53q-12 111 -116 163t-262 52q-72 0 -127 -7.5t-80.5 -14.5t-72.5 -21q-13 -4 -25 -4q-19 0 -32 13l-47 43q-13 10 -13 23
q0 16 19 27q49 31 139 54t239 23q251 0 396 -94.5zM759.5 156q81.5 29 107.5 96q-55 26 -154 42t-222 16q-148 0 -215.5 -23.5t-67.5 -60.5q0 -28 36.5 -50.5t109 -35.5t175.5 -13q149 0 230.5 29z" />
    <glyph glyph-name="product" unicode="&#x220f;" horiz-adv-x="763" 
d="M75 800h613q25 0 25 -25v-940q0 -25 -25 -25h-90q-25 0 -25 25v837h-383v-837q0 -25 -25 -25h-90q-25 0 -25 25v940q0 25 25 25z" />
    <glyph glyph-name="summation" unicode="&#x2211;" horiz-adv-x="739" 
d="M689 775v-79q0 -25 -25 -25h-398l211 -349q5 -7 5 -17q0 -9 -5 -17l-211 -349h398q25 0 25 -25v-79q0 -25 -25 -25h-592q-10 0 -16 4t-6 11t5 15l277 465l-277 465q-5 8 -5 15t6 11t16 4h592q25 0 25 -25z" />
    <glyph glyph-name="minus" unicode="&#x2212;" horiz-adv-x="696" 
d="M60 349q10 9 28 9h519q18 0 28 -9t10 -26v-76q0 -17 -10 -26t-28 -9h-519q-18 0 -28 9t-10 26v76q0 17 10 26z" />
    <glyph glyph-name="radical" unicode="&#x221a;" horiz-adv-x="913" 
d="M858 794.5q6 -5.5 6 -14.5q0 -5 -1 -8l-296 -941q-6 -21 -28 -21h-122q-22 0 -29 19l-179 406h-134q-25 0 -25 25v101q0 25 25 25h202q22 0 29 -19l166 -377l238 789q6 21 28 21h102q12 0 18 -5.5z" />
    <glyph glyph-name="infinity" unicode="&#x221e;" horiz-adv-x="890" 
d="M751 421q43 -24 66 -66t23 -93q0 -53 -23 -95t-65.5 -66.5t-100.5 -24.5q-118 0 -206 107q-87 -107 -189 -107q-99 0 -152.5 52t-53.5 134q0 80 54 131.5t152 51.5q101 0 189 -105q90 105 206 105q57 0 100 -24zM323 188.5q34 21.5 67 73.5q-33 51 -67 73t-71 22
q-49 0 -73 -30t-24 -65q0 -36 23.5 -65.5t73.5 -29.5q37 0 71 21.5zM708.5 196.5q23.5 29.5 23.5 65.5q0 35 -24 65t-73 30q-37 0 -69.5 -21.5t-65.5 -73.5q33 -52 65.5 -73.5t69.5 -21.5q50 0 73.5 29.5z" />
    <glyph glyph-name="integral" unicode="&#x222b;" horiz-adv-x="1143" 
d="M1115 681q0 -14 -18 -29l-42 -35q-9 -8 -22 -8q-12 0 -30 8q-31 13 -65 19.5t-86 6.5q-106 0 -156.5 -28.5t-50.5 -96.5v-466q0 -119 -87 -180.5t-275 -61.5q-72 0 -137.5 15.5t-99.5 43.5q-12 10 -12 20q0 14 18 29l42 35q9 8 22 8q12 0 30 -8q31 -13 65 -19.5t85 -6.5
q106 0 157 28.5t51 96.5v466q0 119 87 180.5t275 61.5q72 0 137 -15.5t100 -43.5q12 -10 12 -20z" />
    <glyph glyph-name="approxequal" unicode="&#x2248;" horiz-adv-x="452" 
d="M60 241q16 9 31.5 11.5t34.5 2.5q25 0 46 -4.5t54 -13.5q32 -9 54 -13.5t46 -4.5q36 0 58 10l8 2q10 0 10 -12v-71q0 -12 -10 -18q-16 -9 -31.5 -11.5t-34.5 -2.5q-24 0 -46 4.5t-54 13.5q-33 9 -54 13.5t-46 4.5q-36 0 -58 -10l-8 -2q-10 0 -10 12v71q0 12 10 18z
M60 401q16 9 31.5 11.5t34.5 2.5q25 0 46 -4.5t54 -13.5q32 -9 54 -13.5t46 -4.5q36 0 58 10l8 2q10 0 10 -12v-71q0 -12 -10 -18q-16 -9 -31.5 -11.5t-34.5 -2.5q-24 0 -46 4.5t-54 13.5q-33 9 -54 13.5t-46 4.5q-36 0 -58 -10l-8 -2q-10 0 -10 12v71q0 12 10 18z" />
    <glyph glyph-name="notequal" unicode="&#x2260;" horiz-adv-x="696" 
d="M415 312l-25 -64h217q18 0 28 -9t10 -26v-76q0 -17 -10 -26t-28 -9h-273l-35 -90q-4 -12 -18 -12h-79q-8 0 -11.5 4.5t-0.5 12.5l33 85h-135q-18 0 -28 9t-10 26v76q0 17 10 26t28 9h191l25 64h-216q-18 0 -28 9t-10 26v76q0 17 10 26t28 9h273l35 91q5 12 18 12h79
q8 0 11.5 -4.5t0.5 -12.5l-33 -86h135q18 0 28 -9t10 -26v-76q0 -17 -10 -26t-28 -9h-192z" />
    <glyph glyph-name="lessequal" unicode="&#x2264;" horiz-adv-x="696" 
d="M60 67q10 9 28 9h519q18 0 28 -9t10 -26v-76q0 -17 -10 -26t-28 -9h-519q-18 0 -28 9t-10 26v76q0 17 10 26zM621 638q12 0 19 -8t7 -23v-73q0 -15 -8 -25.5t-21 -13.5l-407 -113l407 -113q13 -3 21 -13.5t8 -25.5v-73q0 -15 -7 -23t-19 -8q-9 0 -14 2l-527 166
q-30 9 -30 40v96q0 31 30 40l527 166q5 2 14 2z" />
    <glyph glyph-name="greaterequal" unicode="&#x2265;" horiz-adv-x="696" 
d="M616 470q30 -9 30 -40v-96q0 -31 -30 -40l-527 -166q-5 -2 -14 -2q-12 0 -19 8t-7 23v73q0 15 7.5 25.5t21.5 13.5l407 113l-407 113q-14 3 -21.5 13.5t-7.5 25.5v73q0 15 7 23t19 8q9 0 14 -2zM646 -35q0 -17 -10 -26t-28 -9h-520q-17 0 -27 9.5t-10 25.5v76
q0 16 10 25.5t27 9.5h520q18 0 28 -9t10 -26v-76z" />
    <glyph glyph-name="lozenge" unicode="&#x25ca;" horiz-adv-x="610" 
d="M416 681l140 -314q4 -8 4 -17t-4 -17l-140 -314q-9 -19 -29 -19h-164q-20 0 -29 19l-140 314q-4 12 -4 17t4 17l140 314q9 19 29 19h164q20 0 29 -19zM415 350l-110 249l-110 -249l110 -249z" />
    <glyph glyph-name="I.ss01" horiz-adv-x="1000" 
d="M578 554v-408h342q17 0 26 -9t9 -26v-76q0 -16 -9 -25.5t-26 -9.5h-840q-16 0 -25.5 9.5t-9.5 25.5v76q0 17 9.5 26t25.5 9h345v408h-345q-16 0 -25.5 9.5t-9.5 25.5v76q0 17 9.5 26t25.5 9h840q17 0 26 -9t9 -26v-76q0 -16 -9 -25.5t-26 -9.5h-342z" />
    <glyph glyph-name="W.ss01" horiz-adv-x="1681" 
d="M1644 694q7 -6 7 -15t-6 -21l-340 -638q-14 -22 -44 -22h-85q-32 0 -44 22l-291 526l-291 -526q-12 -22 -44 -22h-85q-30 0 -44 22l-341 638q-6 12 -6 21t7 15t21 6h101q31 0 42 -22l264 -520l285 520q12 22 42 22h97q30 0 42 -22l285 -520l264 520q11 22 42 22h101
q14 0 21 -6z" />
    <glyph glyph-name="i.loclTRK" horiz-adv-x="261" 
d="M201 483v-458q0 -25 -25 -25h-91q-25 0 -25 25v458q0 25 25 25h91q25 0 25 -25zM69.5 605q-18.5 10 -18.5 34v27q0 24 18.5 34t63.5 10q44 0 62 -10t18 -34v-27q0 -24 -18 -34t-62 -10q-45 0 -63.5 10z" />
    </font>
</defs>
</svg>
